<ttFont>
<head>
    <!-- Most of this table will be recalculated by the compiler -->
    <tableVersion value="1.0"/>
    <fontRevision value="1.0"/>
    <checkSumAdjustment value="0x21c65d28"/>
    <magicNumber value="0x5f0f3cf5"/>
    <flags value="00000000 00001011"/>
    <unitsPerEm value="1000"/>
    <created value="Fri Apr  5 17:35:44 2019"/>
    <modified value="Fri Apr  5 17:35:44 2019"/>
    <xMin value="-72"/>
    <yMin value="-295"/>
    <xMax value="1153"/>
    <yMax value="1007"/>
    <macStyle value="00000000 00000000"/>
    <lowestRecPPEM value="6"/>
    <fontDirectionHint value="2"/>
    <indexToLocFormat value="0"/>
    <glyphDataFormat value="0"/>
  </head>
    <TTGlyph name=".notdef" xMin="60" yMin="-100" xMax="454" yMax="750">
      <contour>
        <pt x="60" y="-100" on="1"/>
        <pt x="60" y="750" on="1"/>
        <pt x="454" y="750" on="1"/>
        <pt x="454" y="-100" on="1"/>
      </contour>
    </TTGlyph>
    <TTGlyph name="A" xMin="-7" yMin="0" xMax="760" yMax="700">
      <contour>
        <pt x="-7" y="0" on="1"/>
        <pt x="280" y="700" on="1"/>
        <pt x="477" y="700" on="1"/>
        <pt x="760" y="0" on="1"/>
        <pt x="574" y="0" on="1"/>
        <pt x="510" y="169" on="1"/>
        <pt x="237" y="169" on="1"/>
        <pt x="172" y="0" on="1"/>
      </contour>
      <contour>
        <pt x="289" y="306" on="1"/>
        <pt x="459" y="306" on="1"/>
        <pt x="375" y="530" on="1"/>
      </contour>
    </TTGlyph>
    <TTGlyph name="AE" xMin="-7" yMin="0" xMax="951" yMax="700">
      <contour>
        <pt x="-7" y="0" on="1"/>
        <pt x="280" y="700" on="1"/>
        <pt x="951" y="700" on="1"/>
        <pt x="951" y="551" on="1"/>
        <pt x="539" y="551" on="1"/>
        <pt x="587" y="425" on="1"/>
        <pt x="828" y="425" on="1"/>
        <pt x="828" y="281" on="1"/>
        <pt x="642" y="281" on="1"/>
        <pt x="693" y="149" on="1"/>
        <pt x="951" y="149" on="1"/>
        <pt x="951" y="0" on="1"/>
        <pt x="574" y="0" on="1"/>
        <pt x="510" y="169" on="1"/>
        <pt x="237" y="169" on="1"/>
        <pt x="172" y="0" on="1"/>
      </contour>
      <contour>
        <pt x="289" y="306" on="1"/>
        <pt x="459" y="306" on="1"/>
        <pt x="375" y="530" on="1"/>
      </contour>
    </TTGlyph>
    <TTGlyph name="Aacute" xMin="-7" yMin="0" xMax="760" yMax="918">
      <component glyphName="A" x="0" y="0" flags="0x204"/>
      <component glyphName="acute" x="152" y="171" flags="0x4"/>
    </TTGlyph>
    <TTGlyph name="Abreve" xMin="-7" yMin="0" xMax="760" yMax="939">
      <component glyphName="A" x="0" y="0" flags="0x204"/>
      <component glyphName="breve" x="119" y="171" flags="0x4"/>
    </TTGlyph>
    <TTGlyph name="Acircumflex" xMin="-7" yMin="0" xMax="760" yMax="921">
      <component glyphName="A" x="0" y="0" flags="0x204"/>
      <component glyphName="circumflex" x="119" y="171" flags="0x4"/>
    </TTGlyph>
    <TTGlyph name="Adieresis" xMin="-7" yMin="0" xMax="760" yMax="937">
      <component glyphName="A" x="0" y="0" flags="0x204"/>
      <component glyphName="dieresis" x="73" y="171" flags="0x4"/>
    </TTGlyph>
    <TTGlyph name="Agrave" xMin="-7" yMin="0" xMax="760" yMax="918">
      <component glyphName="A" x="0" y="0" flags="0x204"/>
      <component glyphName="grave" x="77" y="171" flags="0x4"/>
    </TTGlyph>
    <TTGlyph name="Amacron" xMin="-7" yMin="0" xMax="760" yMax="899">
      <component glyphName="A" x="0" y="0" flags="0x204"/>
      <component glyphName="macron" x="119" y="171" flags="0x4"/>
    </TTGlyph>
    <TTGlyph name="Aogonek" xMin="-7" yMin="-221" xMax="780" yMax="700">
      <contour>
        <pt x="-7" y="0" on="1"/>
        <pt x="280" y="700" on="1"/>
        <pt x="477" y="700" on="1"/>
        <pt x="760" y="0" on="1"/>
        <pt x="717" y="-25" on="0"/>
        <pt x="676" y="-73" on="0"/>
        <pt x="676" y="-98" on="1"/>
        <pt x="676" y="-117" on="0"/>
        <pt x="701" y="-139" on="0"/>
        <pt x="723" y="-139" on="1"/>
        <pt x="732" y="-139" on="0"/>
        <pt x="752" y="-133" on="0"/>
        <pt x="759" y="-128" on="1"/>
        <pt x="780" y="-198" on="1"/>
        <pt x="763" y="-208" on="0"/>
        <pt x="717" y="-221" on="0"/>
        <pt x="693" y="-221" on="1"/>
        <pt x="644" y="-221" on="0"/>
        <pt x="585" y="-169" on="0"/>
        <pt x="585" y="-127" on="1"/>
        <pt x="585" y="-90" on="0"/>
        <pt x="627" y="-28" on="0"/>
        <pt x="672" y="0" on="1"/>
        <pt x="574" y="0" on="1"/>
        <pt x="510" y="169" on="1"/>
        <pt x="237" y="169" on="1"/>
        <pt x="172" y="0" on="1"/>
      </contour>
      <contour>
        <pt x="289" y="306" on="1"/>
        <pt x="459" y="306" on="1"/>
        <pt x="375" y="530" on="1"/>
      </contour>
    </TTGlyph>
    <TTGlyph name="Aring" xMin="-7" yMin="0" xMax="760" yMax="1007">
      <component glyphName="A" x="0" y="0" flags="0x204"/>
      <component glyphName="ring" x="119" y="171" flags="0x4"/>
    </TTGlyph>
    <TTGlyph name="Atilde" xMin="-7" yMin="0" xMax="760" yMax="924">
      <component glyphName="A" x="0" y="0" flags="0x204"/>
      <component glyphName="tilde" x="119" y="171" flags="0x4"/>
    </TTGlyph>
    <TTGlyph name="B" xMin="58" yMin="0" xMax="670" yMax="700">
      <contour>
        <pt x="58" y="700" on="1"/>
        <pt x="405" y="700" on="1"/>
        <pt x="458" y="700" on="0"/>
        <pt x="548" y="671" on="0"/>
        <pt x="612" y="619" on="0"/>
        <pt x="648" y="546" on="0"/>
        <pt x="648" y="503" on="1"/>
        <pt x="648" y="460" on="0"/>
        <pt x="605" y="385" on="0"/>
        <pt x="568" y="359" on="1"/>
        <pt x="614" y="334" on="0"/>
        <pt x="670" y="254" on="0"/>
        <pt x="670" y="206" on="1"/>
        <pt x="670" y="114" on="0"/>
        <pt x="532" y="0" on="0"/>
        <pt x="422" y="0" on="1"/>
        <pt x="58" y="0" on="1"/>
      </contour>
      <contour>
        <pt x="394" y="559" on="1"/>
        <pt x="230" y="559" on="1"/>
        <pt x="230" y="421" on="1"/>
        <pt x="394" y="421" on="1"/>
        <pt x="431" y="421" on="0"/>
        <pt x="476" y="459" on="0"/>
        <pt x="476" y="490" on="1"/>
        <pt x="476" y="521" on="0"/>
        <pt x="431" y="559" on="0"/>
      </contour>
      <contour>
        <pt x="409" y="141" on="1"/>
        <pt x="449" y="141" on="0"/>
        <pt x="496" y="181" on="0"/>
        <pt x="496" y="215" on="1"/>
        <pt x="496" y="249" on="0"/>
        <pt x="449" y="289" on="0"/>
        <pt x="409" y="289" on="1"/>
        <pt x="230" y="289" on="1"/>
        <pt x="230" y="141" on="1"/>
      </contour>
    </TTGlyph>
    <TTGlyph name="C" xMin="33" yMin="-10" xMax="706" yMax="711">
      <contour>
        <pt x="415" y="149" on="1"/>
        <pt x="466" y="149" on="0"/>
        <pt x="553" y="193" on="0"/>
        <pt x="588" y="236" on="1"/>
        <pt x="701" y="125" on="1"/>
        <pt x="652" y="64" on="0"/>
        <pt x="493" y="-10" on="0"/>
        <pt x="409" y="-10" on="1"/>
        <pt x="330" y="-10" on="0"/>
        <pt x="191" y="46" on="0"/>
        <pt x="91" y="142" on="0"/>
        <pt x="33" y="274" on="0"/>
        <pt x="33" y="350" on="1"/>
        <pt x="33" y="426" on="0"/>
        <pt x="91" y="559" on="0"/>
        <pt x="192" y="655" on="0"/>
        <pt x="330" y="711" on="0"/>
        <pt x="409" y="711" on="1"/>
        <pt x="452" y="711" on="0"/>
        <pt x="538" y="691" on="0"/>
        <pt x="616" y="656" on="0"/>
        <pt x="682" y="605" on="0"/>
        <pt x="706" y="574" on="1"/>
        <pt x="590" y="460" on="1"/>
        <pt x="553" y="506" on="0"/>
        <pt x="462" y="553" on="0"/>
        <pt x="409" y="553" on="1"/>
        <pt x="367" y="553" on="0"/>
        <pt x="294" y="522" on="0"/>
        <pt x="241" y="468" on="0"/>
        <pt x="210" y="393" on="0"/>
        <pt x="210" y="350" on="1"/>
        <pt x="210" y="307" on="0"/>
        <pt x="241" y="234" on="0"/>
        <pt x="296" y="180" on="0"/>
        <pt x="371" y="149" on="0"/>
      </contour>
    </TTGlyph>
    <TTGlyph name="Cacute" xMin="33" yMin="-10" xMax="706" yMax="918">
      <component glyphName="C" x="0" y="0" flags="0x204"/>
      <component glyphName="acute" x="183" y="171" flags="0x4"/>
    </TTGlyph>
    <TTGlyph name="Ccaron" xMin="33" yMin="-10" xMax="706" yMax="921">
      <component glyphName="C" x="0" y="0" flags="0x204"/>
      <component glyphName="caron" x="148" y="171" flags="0x4"/>
    </TTGlyph>
    <TTGlyph name="Ccedilla" xMin="33" yMin="-239" xMax="706" yMax="711">
      <contour>
        <pt x="415" y="149" on="1"/>
        <pt x="466" y="149" on="0"/>
        <pt x="553" y="193" on="0"/>
        <pt x="588" y="236" on="1"/>
        <pt x="701" y="125" on="1"/>
        <pt x="657" y="70" on="0"/>
        <pt x="517" y="-1" on="0"/>
        <pt x="442" y="-8" on="1"/>
        <pt x="432" y="-42" on="1"/>
        <pt x="476" y="-46" on="0"/>
        <pt x="527" y="-96" on="0"/>
        <pt x="527" y="-134" on="1"/>
        <pt x="527" y="-178" on="0"/>
        <pt x="447" y="-239" on="0"/>
        <pt x="388" y="-239" on="1"/>
        <pt x="349" y="-239" on="0"/>
        <pt x="285" y="-216" on="0"/>
        <pt x="258" y="-192" on="1"/>
        <pt x="309" y="-138" on="1"/>
        <pt x="327" y="-151" on="0"/>
        <pt x="366" y="-166" on="0"/>
        <pt x="385" y="-166" on="1"/>
        <pt x="410" y="-166" on="0"/>
        <pt x="436" y="-148" on="0"/>
        <pt x="436" y="-132" on="1"/>
        <pt x="436" y="-117" on="0"/>
        <pt x="409" y="-99" on="0"/>
        <pt x="387" y="-99" on="1"/>
        <pt x="340" y="-99" on="1"/>
        <pt x="367" y="-8" on="1"/>
        <pt x="295" y="-1" on="0"/>
        <pt x="172" y="60" on="0"/>
        <pt x="84" y="155" on="0"/>
        <pt x="33" y="279" on="0"/>
        <pt x="33" y="350" on="1"/>
        <pt x="33" y="426" on="0"/>
        <pt x="91" y="559" on="0"/>
        <pt x="192" y="655" on="0"/>
        <pt x="330" y="711" on="0"/>
        <pt x="409" y="711" on="1"/>
        <pt x="452" y="711" on="0"/>
        <pt x="538" y="691" on="0"/>
        <pt x="616" y="656" on="0"/>
        <pt x="682" y="605" on="0"/>
        <pt x="706" y="574" on="1"/>
        <pt x="590" y="460" on="1"/>
        <pt x="553" y="506" on="0"/>
        <pt x="462" y="553" on="0"/>
        <pt x="409" y="553" on="1"/>
        <pt x="367" y="553" on="0"/>
        <pt x="294" y="522" on="0"/>
        <pt x="241" y="468" on="0"/>
        <pt x="210" y="393" on="0"/>
        <pt x="210" y="350" on="1"/>
        <pt x="210" y="307" on="0"/>
        <pt x="241" y="234" on="0"/>
        <pt x="296" y="180" on="0"/>
        <pt x="371" y="149" on="0"/>
      </contour>
    </TTGlyph>
    <TTGlyph name="Ccircumflex" xMin="33" yMin="-10" xMax="706" yMax="921">
      <component glyphName="C" x="0" y="0" flags="0x204"/>
      <component glyphName="circumflex" x="150" y="171" flags="0x4"/>
    </TTGlyph>
    <TTGlyph name="Cdotaccent" xMin="33" yMin="-10" xMax="706" yMax="937">
      <component glyphName="C" x="0" y="0" flags="0x204"/>
      <component glyphName="dotaccent" x="258" y="171" flags="0x4"/>
    </TTGlyph>
    <TTGlyph name="D" xMin="58" yMin="0" xMax="712" yMax="700">
      <contour>
        <pt x="58" y="0" on="1"/>
        <pt x="58" y="700" on="1"/>
        <pt x="342" y="700" on="1"/>
        <pt x="419" y="700" on="0"/>
        <pt x="555" y="645" on="0"/>
        <pt x="654" y="551" on="0"/>
        <pt x="712" y="422" on="0"/>
        <pt x="712" y="348" on="1"/>
        <pt x="712" y="276" on="0"/>
        <pt x="654" y="148" on="0"/>
        <pt x="555" y="54" on="0"/>
        <pt x="419" y="0" on="0"/>
        <pt x="342" y="0" on="1"/>
      </contour>
      <contour>
        <pt x="338" y="548" on="1"/>
        <pt x="230" y="548" on="1"/>
        <pt x="230" y="152" on="1"/>
        <pt x="338" y="152" on="1"/>
        <pt x="379" y="152" on="0"/>
        <pt x="451" y="182" on="0"/>
        <pt x="504" y="235" on="0"/>
        <pt x="534" y="307" on="0"/>
        <pt x="534" y="348" on="1"/>
        <pt x="534" y="390" on="0"/>
        <pt x="504" y="463" on="0"/>
        <pt x="451" y="517" on="0"/>
        <pt x="379" y="548" on="0"/>
      </contour>
    </TTGlyph>
    <TTGlyph name="Dcaron" xMin="58" yMin="0" xMax="712" yMax="921">
      <component glyphName="D" x="0" y="0" flags="0x204"/>
      <component glyphName="caron" x="113" y="171" flags="0x4"/>
    </TTGlyph>
    <TTGlyph name="Dcroat" xMin="18" yMin="0" xMax="747" yMax="700">
      <contour>
        <pt x="93" y="0" on="1"/>
        <pt x="93" y="283" on="1"/>
        <pt x="18" y="283" on="1"/>
        <pt x="18" y="418" on="1"/>
        <pt x="93" y="418" on="1"/>
        <pt x="93" y="700" on="1"/>
        <pt x="377" y="700" on="1"/>
        <pt x="454" y="700" on="0"/>
        <pt x="590" y="645" on="0"/>
        <pt x="689" y="551" on="0"/>
        <pt x="747" y="422" on="0"/>
        <pt x="747" y="348" on="1"/>
        <pt x="747" y="276" on="0"/>
        <pt x="689" y="148" on="0"/>
        <pt x="590" y="54" on="0"/>
        <pt x="454" y="0" on="0"/>
        <pt x="377" y="0" on="1"/>
      </contour>
      <contour>
        <pt x="373" y="548" on="1"/>
        <pt x="265" y="548" on="1"/>
        <pt x="265" y="418" on="1"/>
        <pt x="421" y="418" on="1"/>
        <pt x="421" y="283" on="1"/>
        <pt x="265" y="283" on="1"/>
        <pt x="265" y="152" on="1"/>
        <pt x="373" y="152" on="1"/>
        <pt x="414" y="152" on="0"/>
        <pt x="486" y="182" on="0"/>
        <pt x="539" y="235" on="0"/>
        <pt x="569" y="307" on="0"/>
        <pt x="569" y="348" on="1"/>
        <pt x="569" y="390" on="0"/>
        <pt x="539" y="463" on="0"/>
        <pt x="486" y="517" on="0"/>
        <pt x="414" y="548" on="0"/>
      </contour>
    </TTGlyph>
    <TTGlyph name="E" xMin="58" yMin="0" xMax="614" yMax="700">
      <contour>
        <pt x="58" y="0" on="1"/>
        <pt x="58" y="700" on="1"/>
        <pt x="610" y="700" on="1"/>
        <pt x="610" y="551" on="1"/>
        <pt x="230" y="551" on="1"/>
        <pt x="230" y="425" on="1"/>
        <pt x="481" y="425" on="1"/>
        <pt x="481" y="281" on="1"/>
        <pt x="230" y="281" on="1"/>
        <pt x="230" y="149" on="1"/>
        <pt x="614" y="149" on="1"/>
        <pt x="614" y="0" on="1"/>
      </contour>
    </TTGlyph>
    <TTGlyph name="Eacute" xMin="58" yMin="0" xMax="614" yMax="918">
      <component glyphName="E" x="0" y="0" flags="0x204"/>
      <component glyphName="acute" x="121" y="171" flags="0x4"/>
    </TTGlyph>
    <TTGlyph name="Ebreve" xMin="58" yMin="0" xMax="614" yMax="939">
      <component glyphName="E" x="0" y="0" flags="0x204"/>
      <component glyphName="breve" x="88" y="171" flags="0x4"/>
    </TTGlyph>
    <TTGlyph name="Ecaron" xMin="58" yMin="0" xMax="614" yMax="921">
      <component glyphName="E" x="0" y="0" flags="0x204"/>
      <component glyphName="caron" x="86" y="171" flags="0x4"/>
    </TTGlyph>
    <TTGlyph name="Ecircumflex" xMin="58" yMin="0" xMax="614" yMax="921">
      <component glyphName="E" x="0" y="0" flags="0x204"/>
      <component glyphName="circumflex" x="88" y="171" flags="0x4"/>
    </TTGlyph>
    <TTGlyph name="Edieresis" xMin="58" yMin="0" xMax="614" yMax="937">
      <component glyphName="E" x="0" y="0" flags="0x204"/>
      <component glyphName="dieresis" x="42" y="171" flags="0x4"/>
    </TTGlyph>
    <TTGlyph name="Edotaccent" xMin="58" yMin="0" xMax="614" yMax="937">
      <component glyphName="E" x="0" y="0" flags="0x204"/>
      <component glyphName="dotaccent" x="196" y="171" flags="0x4"/>
    </TTGlyph>
    <TTGlyph name="Egrave" xMin="58" yMin="0" xMax="614" yMax="918">
      <component glyphName="E" x="0" y="0" flags="0x204"/>
      <component glyphName="grave" x="46" y="171" flags="0x4"/>
    </TTGlyph>
    <TTGlyph name="Emacron" xMin="58" yMin="0" xMax="614" yMax="899">
      <component glyphName="E" x="0" y="0" flags="0x204"/>
      <component glyphName="macron" x="88" y="171" flags="0x4"/>
    </TTGlyph>
    <TTGlyph name="Eng" xMin="58" yMin="-218" xMax="700" yMax="700">
      <contour>
        <pt x="538" y="6" on="1"/>
        <pt x="220" y="416" on="1"/>
        <pt x="220" y="0" on="1"/>
        <pt x="58" y="0" on="1"/>
        <pt x="58" y="700" on="1"/>
        <pt x="215" y="700" on="1"/>
        <pt x="538" y="288" on="1"/>
        <pt x="538" y="700" on="1"/>
        <pt x="700" y="700" on="1"/>
        <pt x="700" y="-52" on="1"/>
        <pt x="700" y="-131" on="0"/>
        <pt x="603" y="-218" on="0"/>
        <pt x="516" y="-218" on="1"/>
        <pt x="495" y="-218" on="0"/>
        <pt x="447" y="-212" on="0"/>
        <pt x="434" y="-208" on="1"/>
        <pt x="434" y="-86" on="1"/>
        <pt x="446" y="-88" on="0"/>
        <pt x="467" y="-90" on="0"/>
        <pt x="482" y="-90" on="1"/>
        <pt x="510" y="-90" on="0"/>
        <pt x="538" y="-67" on="0"/>
        <pt x="538" y="-42" on="1"/>
      </contour>
    </TTGlyph>
    <TTGlyph name="Eogonek" xMin="58" yMin="-221" xMax="634" yMax="700">
      <contour>
        <pt x="58" y="0" on="1"/>
        <pt x="58" y="700" on="1"/>
        <pt x="610" y="700" on="1"/>
        <pt x="610" y="551" on="1"/>
        <pt x="230" y="551" on="1"/>
        <pt x="230" y="425" on="1"/>
        <pt x="481" y="425" on="1"/>
        <pt x="481" y="281" on="1"/>
        <pt x="230" y="281" on="1"/>
        <pt x="230" y="149" on="1"/>
        <pt x="614" y="149" on="1"/>
        <pt x="614" y="0" on="1"/>
        <pt x="571" y="-25" on="0"/>
        <pt x="530" y="-73" on="0"/>
        <pt x="530" y="-98" on="1"/>
        <pt x="530" y="-117" on="0"/>
        <pt x="555" y="-139" on="0"/>
        <pt x="577" y="-139" on="1"/>
        <pt x="586" y="-139" on="0"/>
        <pt x="606" y="-133" on="0"/>
        <pt x="613" y="-128" on="1"/>
        <pt x="634" y="-198" on="1"/>
        <pt x="617" y="-208" on="0"/>
        <pt x="571" y="-221" on="0"/>
        <pt x="547" y="-221" on="1"/>
        <pt x="498" y="-221" on="0"/>
        <pt x="439" y="-169" on="0"/>
        <pt x="439" y="-127" on="1"/>
        <pt x="439" y="-90" on="0"/>
        <pt x="481" y="-28" on="0"/>
        <pt x="526" y="0" on="1"/>
      </contour>
    </TTGlyph>
    <TTGlyph name="Eth" xMin="18" yMin="0" xMax="747" yMax="700">
      <contour>
        <pt x="93" y="0" on="1"/>
        <pt x="93" y="283" on="1"/>
        <pt x="18" y="283" on="1"/>
        <pt x="18" y="418" on="1"/>
        <pt x="93" y="418" on="1"/>
        <pt x="93" y="700" on="1"/>
        <pt x="377" y="700" on="1"/>
        <pt x="454" y="700" on="0"/>
        <pt x="590" y="645" on="0"/>
        <pt x="689" y="551" on="0"/>
        <pt x="747" y="422" on="0"/>
        <pt x="747" y="348" on="1"/>
        <pt x="747" y="276" on="0"/>
        <pt x="689" y="148" on="0"/>
        <pt x="590" y="54" on="0"/>
        <pt x="454" y="0" on="0"/>
        <pt x="377" y="0" on="1"/>
      </contour>
      <contour>
        <pt x="373" y="548" on="1"/>
        <pt x="265" y="548" on="1"/>
        <pt x="265" y="418" on="1"/>
        <pt x="421" y="418" on="1"/>
        <pt x="421" y="283" on="1"/>
        <pt x="265" y="283" on="1"/>
        <pt x="265" y="152" on="1"/>
        <pt x="373" y="152" on="1"/>
        <pt x="414" y="152" on="0"/>
        <pt x="486" y="182" on="0"/>
        <pt x="539" y="235" on="0"/>
        <pt x="569" y="307" on="0"/>
        <pt x="569" y="348" on="1"/>
        <pt x="569" y="390" on="0"/>
        <pt x="539" y="463" on="0"/>
        <pt x="486" y="517" on="0"/>
        <pt x="414" y="548" on="0"/>
      </contour>
    </TTGlyph>
    <TTGlyph name="Euro" xMin="36" yMin="-11" xMax="766" yMax="711">
      <contour>
        <pt x="258" y="350" on="1"/>
        <pt x="258" y="343" on="0"/>
        <pt x="258" y="330" on="0"/>
        <pt x="259" y="323" on="1"/>
        <pt x="473" y="323" on="1"/>
        <pt x="442" y="245" on="1"/>
        <pt x="278" y="245" on="1"/>
        <pt x="303" y="187" on="0"/>
        <pt x="406" y="120" on="0"/>
        <pt x="476" y="120" on="1"/>
        <pt x="533" y="120" on="0"/>
        <pt x="632" y="163" on="0"/>
        <pt x="659" y="200" on="1"/>
        <pt x="766" y="119" on="1"/>
        <pt x="717" y="56" on="0"/>
        <pt x="569" y="-11" on="0"/>
        <pt x="475" y="-11" on="1"/>
        <pt x="342" y="-11" on="0"/>
        <pt x="151" y="129" on="0"/>
        <pt x="120" y="245" on="1"/>
        <pt x="36" y="245" on="1"/>
        <pt x="36" y="323" on="1"/>
        <pt x="108" y="323" on="1"/>
        <pt x="107" y="330" on="0"/>
        <pt x="107" y="343" on="0"/>
        <pt x="107" y="350" on="1"/>
        <pt x="107" y="357" on="0"/>
        <pt x="107" y="370" on="0"/>
        <pt x="108" y="376" on="1"/>
        <pt x="36" y="376" on="1"/>
        <pt x="36" y="455" on="1"/>
        <pt x="120" y="455" on="1"/>
        <pt x="151" y="571" on="0"/>
        <pt x="341" y="711" on="0"/>
        <pt x="475" y="711" on="1"/>
        <pt x="570" y="711" on="0"/>
        <pt x="719" y="644" on="0"/>
        <pt x="766" y="581" on="1"/>
        <pt x="658" y="499" on="1"/>
        <pt x="631" y="536" on="0"/>
        <pt x="533" y="580" on="0"/>
        <pt x="476" y="580" on="1"/>
        <pt x="406" y="580" on="0"/>
        <pt x="303" y="513" on="0"/>
        <pt x="278" y="455" on="1"/>
        <pt x="523" y="455" on="1"/>
        <pt x="492" y="376" on="1"/>
        <pt x="259" y="376" on="1"/>
        <pt x="258" y="370" on="0"/>
        <pt x="258" y="357" on="0"/>
      </contour>
    </TTGlyph>
    <TTGlyph name="F" xMin="58" yMin="0" xMax="614" yMax="700">
      <contour>
        <pt x="58" y="0" on="1"/>
        <pt x="58" y="700" on="1"/>
        <pt x="614" y="700" on="1"/>
        <pt x="614" y="551" on="1"/>
        <pt x="230" y="551" on="1"/>
        <pt x="230" y="420" on="1"/>
        <pt x="486" y="420" on="1"/>
        <pt x="486" y="276" on="1"/>
        <pt x="230" y="276" on="1"/>
        <pt x="230" y="0" on="1"/>
      </contour>
    </TTGlyph>
    <TTGlyph name="G" xMin="33" yMin="-11" xMax="763" yMax="711">
      <contour>
        <pt x="763" y="354" on="1"/>
        <pt x="763" y="275" on="0"/>
        <pt x="709" y="141" on="0"/>
        <pt x="615" y="44" on="0"/>
        <pt x="484" y="-11" on="0"/>
        <pt x="408" y="-11" on="1"/>
        <pt x="329" y="-11" on="0"/>
        <pt x="192" y="45" on="0"/>
        <pt x="91" y="142" on="0"/>
        <pt x="33" y="274" on="0"/>
        <pt x="33" y="350" on="1"/>
        <pt x="33" y="426" on="0"/>
        <pt x="91" y="558" on="0"/>
        <pt x="191" y="655" on="0"/>
        <pt x="327" y="711" on="0"/>
        <pt x="405" y="711" on="1"/>
        <pt x="494" y="711" on="0"/>
        <pt x="652" y="637" on="0"/>
        <pt x="702" y="574" on="1"/>
        <pt x="581" y="465" on="1"/>
        <pt x="547" y="508" on="0"/>
        <pt x="457" y="553" on="0"/>
        <pt x="405" y="553" on="1"/>
        <pt x="363" y="553" on="0"/>
        <pt x="291" y="522" on="0"/>
        <pt x="240" y="468" on="0"/>
        <pt x="210" y="393" on="0"/>
        <pt x="210" y="350" on="1"/>
        <pt x="210" y="306" on="0"/>
        <pt x="241" y="231" on="0"/>
        <pt x="294" y="176" on="0"/>
        <pt x="368" y="145" on="0"/>
        <pt x="411" y="145" on="1"/>
        <pt x="471" y="145" on="0"/>
        <pt x="562" y="206" on="0"/>
        <pt x="577" y="255" on="1"/>
        <pt x="388" y="255" on="1"/>
        <pt x="388" y="404" on="1"/>
        <pt x="763" y="404" on="1"/>
      </contour>
    </TTGlyph>
    <TTGlyph name="Gbreve" xMin="33" yMin="-11" xMax="763" yMax="939">
      <component glyphName="G" x="0" y="0" flags="0x204"/>
      <component glyphName="breve" x="148" y="171" flags="0x4"/>
    </TTGlyph>
    <TTGlyph name="Gcircumflex" xMin="33" yMin="-11" xMax="763" yMax="921">
      <component glyphName="G" x="0" y="0" flags="0x204"/>
      <component glyphName="circumflex" x="148" y="171" flags="0x4"/>
    </TTGlyph>
    <TTGlyph name="Gcommaaccent" xMin="33" yMin="-295" xMax="763" yMax="711">
      <component glyphName="G" x="0" y="0" flags="0x204"/>
      <component glyphName="commaaccent" x="271" y="0" flags="0x4"/>
    </TTGlyph>
    <TTGlyph name="Gdotaccent" xMin="33" yMin="-11" xMax="763" yMax="937">
      <component glyphName="G" x="0" y="0" flags="0x204"/>
      <component glyphName="dotaccent" x="256" y="171" flags="0x4"/>
    </TTGlyph>
    <TTGlyph name="H" xMin="58" yMin="0" xMax="690" yMax="700">
      <contour>
        <pt x="58" y="0" on="1"/>
        <pt x="58" y="700" on="1"/>
        <pt x="230" y="700" on="1"/>
        <pt x="230" y="431" on="1"/>
        <pt x="518" y="431" on="1"/>
        <pt x="518" y="700" on="1"/>
        <pt x="690" y="700" on="1"/>
        <pt x="690" y="0" on="1"/>
        <pt x="518" y="0" on="1"/>
        <pt x="518" y="274" on="1"/>
        <pt x="230" y="274" on="1"/>
        <pt x="230" y="0" on="1"/>
      </contour>
    </TTGlyph>
    <TTGlyph name="Hbar" xMin="8" yMin="0" xMax="760" yMax="700">
      <contour>
        <pt x="68" y="0" on="1"/>
        <pt x="68" y="489" on="1"/>
        <pt x="8" y="489" on="1"/>
        <pt x="8" y="624" on="1"/>
        <pt x="68" y="624" on="1"/>
        <pt x="68" y="700" on="1"/>
        <pt x="240" y="700" on="1"/>
        <pt x="240" y="624" on="1"/>
        <pt x="528" y="624" on="1"/>
        <pt x="528" y="700" on="1"/>
        <pt x="700" y="700" on="1"/>
        <pt x="700" y="624" on="1"/>
        <pt x="760" y="624" on="1"/>
        <pt x="760" y="489" on="1"/>
        <pt x="700" y="489" on="1"/>
        <pt x="700" y="0" on="1"/>
        <pt x="528" y="0" on="1"/>
        <pt x="528" y="274" on="1"/>
        <pt x="240" y="274" on="1"/>
        <pt x="240" y="0" on="1"/>
      </contour>
      <contour>
        <pt x="240" y="431" on="1"/>
        <pt x="528" y="431" on="1"/>
        <pt x="528" y="489" on="1"/>
        <pt x="240" y="489" on="1"/>
      </contour>
    </TTGlyph>
    <TTGlyph name="Hcircumflex" xMin="58" yMin="0" xMax="690" yMax="921">
      <component glyphName="H" x="0" y="0" flags="0x204"/>
      <component glyphName="circumflex" x="116" y="171" flags="0x4"/>
    </TTGlyph>
    <TTGlyph name="I" xMin="58" yMin="0" xMax="230" yMax="700">
      <contour>
        <pt x="58" y="0" on="1"/>
        <pt x="58" y="700" on="1"/>
        <pt x="230" y="700" on="1"/>
        <pt x="230" y="0" on="1"/>
      </contour>
    </TTGlyph>
    <TTGlyph name="IJ" xMin="58" yMin="-10" xMax="898" yMax="700">
      <component glyphName="I" x="0" y="0" flags="0x4"/>
      <component glyphName="J" x="288" y="0" flags="0x4"/>
    </TTGlyph>
    <TTGlyph name="Iacute" xMin="58" yMin="0" xMax="337" yMax="918">
      <component glyphName="I" x="0" y="0" flags="0x204"/>
      <component glyphName="acute" x="-81" y="171" flags="0x4"/>
    </TTGlyph>
    <TTGlyph name="Ibreve" xMin="-40" yMin="0" xMax="328" yMax="939">
      <component glyphName="I" x="0" y="0" flags="0x204"/>
      <component glyphName="breve" x="-114" y="171" flags="0x4"/>
    </TTGlyph>
    <TTGlyph name="Icircumflex" xMin="-56" yMin="0" xMax="346" yMax="921">
      <component glyphName="I" x="0" y="0" flags="0x204"/>
      <component glyphName="circumflex" x="-114" y="171" flags="0x4"/>
    </TTGlyph>
    <TTGlyph name="Idieresis" xMin="-59" yMin="0" xMax="347" yMax="937">
      <component glyphName="I" x="0" y="0" flags="0x204"/>
      <component glyphName="dieresis" x="-160" y="171" flags="0x4"/>
    </TTGlyph>
    <TTGlyph name="Idotaccent" xMin="58" yMin="0" xMax="230" yMax="937">
      <component glyphName="I" x="0" y="0" flags="0x204"/>
      <component glyphName="dotaccent" x="-6" y="171" flags="0x4"/>
    </TTGlyph>
    <TTGlyph name="Igrave" xMin="-44" yMin="0" xMax="230" yMax="918">
      <component glyphName="I" x="0" y="0" flags="0x204"/>
      <component glyphName="grave" x="-156" y="171" flags="0x4"/>
    </TTGlyph>
    <TTGlyph name="Imacron" xMin="-20" yMin="0" xMax="315" yMax="899">
      <component glyphName="I" x="0" y="0" flags="0x204"/>
      <component glyphName="macron" x="-114" y="171" flags="0x4"/>
    </TTGlyph>
    <TTGlyph name="Iogonek" xMin="55" yMin="-221" xMax="250" yMax="700">
      <contour>
        <pt x="58" y="0" on="1"/>
        <pt x="58" y="700" on="1"/>
        <pt x="230" y="700" on="1"/>
        <pt x="230" y="0" on="1"/>
        <pt x="187" y="-25" on="0"/>
        <pt x="146" y="-73" on="0"/>
        <pt x="146" y="-98" on="1"/>
        <pt x="146" y="-117" on="0"/>
        <pt x="171" y="-139" on="0"/>
        <pt x="193" y="-139" on="1"/>
        <pt x="202" y="-139" on="0"/>
        <pt x="222" y="-133" on="0"/>
        <pt x="229" y="-128" on="1"/>
        <pt x="250" y="-198" on="1"/>
        <pt x="233" y="-208" on="0"/>
        <pt x="187" y="-221" on="0"/>
        <pt x="163" y="-221" on="1"/>
        <pt x="114" y="-221" on="0"/>
        <pt x="55" y="-169" on="0"/>
        <pt x="55" y="-127" on="1"/>
        <pt x="55" y="-90" on="0"/>
        <pt x="97" y="-28" on="0"/>
        <pt x="142" y="0" on="1"/>
      </contour>
    </TTGlyph>
    <TTGlyph name="Itilde" xMin="-58" yMin="0" xMax="349" yMax="924">
      <component glyphName="I" x="0" y="0" flags="0x204"/>
      <component glyphName="tilde" x="-114" y="171" flags="0x4"/>
    </TTGlyph>
    <TTGlyph name="J" xMin="17" yMin="-10" xMax="610" yMax="700">
      <contour>
        <pt x="610" y="275" on="1"/>
        <pt x="610" y="212" on="0"/>
        <pt x="567" y="106" on="0"/>
        <pt x="489" y="31" on="0"/>
        <pt x="378" y="-10" on="0"/>
        <pt x="311" y="-10" on="1"/>
        <pt x="201" y="-10" on="0"/>
        <pt x="48" y="102" on="0"/>
        <pt x="17" y="206" on="1"/>
        <pt x="176" y="265" on="1"/>
        <pt x="195" y="204" on="0"/>
        <pt x="262" y="146" on="0"/>
        <pt x="312" y="146" on="1"/>
        <pt x="368" y="146" on="0"/>
        <pt x="438" y="220" on="0"/>
        <pt x="438" y="280" on="1"/>
        <pt x="438" y="700" on="1"/>
        <pt x="610" y="700" on="1"/>
      </contour>
    </TTGlyph>
    <TTGlyph name="Jcircumflex" xMin="17" yMin="-10" xMax="729" yMax="921">
      <component glyphName="J" x="0" y="0" flags="0x204"/>
      <component glyphName="circumflex" x="269" y="171" flags="0x4"/>
    </TTGlyph>
    <TTGlyph name="K" xMin="58" yMin="0" xMax="739" yMax="700">
      <contour>
        <pt x="58" y="0" on="1"/>
        <pt x="58" y="700" on="1"/>
        <pt x="230" y="700" on="1"/>
        <pt x="230" y="394" on="1"/>
        <pt x="513" y="700" on="1"/>
        <pt x="721" y="700" on="1"/>
        <pt x="397" y="371" on="1"/>
        <pt x="739" y="0" on="1"/>
        <pt x="511" y="0" on="1"/>
        <pt x="230" y="321" on="1"/>
        <pt x="230" y="0" on="1"/>
      </contour>
    </TTGlyph>
    <TTGlyph name="Kcommaaccent" xMin="58" yMin="-295" xMax="739" yMax="700">
      <component glyphName="K" x="0" y="0" flags="0x204"/>
      <component glyphName="commaaccent" x="231" y="0" flags="0x4"/>
    </TTGlyph>
    <TTGlyph name="L" xMin="58" yMin="0" xMax="599" yMax="700">
      <contour>
        <pt x="58" y="0" on="1"/>
        <pt x="58" y="700" on="1"/>
        <pt x="230" y="700" on="1"/>
        <pt x="230" y="152" on="1"/>
        <pt x="599" y="152" on="1"/>
        <pt x="599" y="0" on="1"/>
      </contour>
    </TTGlyph>
    <TTGlyph name="Lacute" xMin="58" yMin="0" xMax="599" yMax="918">
      <component glyphName="L" x="0" y="0" flags="0x204"/>
      <component glyphName="acute" x="-82" y="171" flags="0x4"/>
    </TTGlyph>
    <TTGlyph name="Lcaron" xMin="58" yMin="0" xMax="599" yMax="723">
      <component glyphName="L" x="0" y="0" flags="0x4"/>
      <component glyphName="caronSlovak" x="322" y="0" flags="0x4"/>
    </TTGlyph>
    <TTGlyph name="Lcommaaccent" xMin="58" yMin="-295" xMax="599" yMax="700">
      <component glyphName="L" x="0" y="0" flags="0x204"/>
      <component glyphName="commaaccent" x="213" y="0" flags="0x4"/>
    </TTGlyph>
    <TTGlyph name="Ldot" xMin="58" yMin="0" xMax="599" yMax="700">
      <component glyphName="L" x="0" y="0" flags="0x4"/>
      <component glyphName="dotaccent" x="296" y="-310" flags="0x4"/>
    </TTGlyph>
    <TTGlyph name="Lslash" xMin="11" yMin="0" xMax="629" yMax="700">
      <contour>
        <pt x="88" y="0" on="1"/>
        <pt x="88" y="200" on="1"/>
        <pt x="11" y="154" on="1"/>
        <pt x="11" y="296" on="1"/>
        <pt x="88" y="342" on="1"/>
        <pt x="88" y="700" on="1"/>
        <pt x="260" y="700" on="1"/>
        <pt x="260" y="443" on="1"/>
        <pt x="428" y="543" on="1"/>
        <pt x="428" y="401" on="1"/>
        <pt x="260" y="301" on="1"/>
        <pt x="260" y="152" on="1"/>
        <pt x="629" y="152" on="1"/>
        <pt x="629" y="0" on="1"/>
      </contour>
    </TTGlyph>
    <TTGlyph name="M" xMin="58" yMin="0" xMax="838" yMax="700">
      <contour>
        <pt x="446" y="50" on="1"/>
        <pt x="216" y="479" on="1"/>
        <pt x="216" y="0" on="1"/>
        <pt x="58" y="0" on="1"/>
        <pt x="58" y="700" on="1"/>
        <pt x="275" y="700" on="1"/>
        <pt x="448" y="370" on="1"/>
        <pt x="621" y="700" on="1"/>
        <pt x="838" y="700" on="1"/>
        <pt x="838" y="0" on="1"/>
        <pt x="676" y="0" on="1"/>
        <pt x="676" y="477" on="1"/>
      </contour>
    </TTGlyph>
    <TTGlyph name="N" xMin="58" yMin="0" xMax="700" yMax="700">
      <contour>
        <pt x="58" y="700" on="1"/>
        <pt x="220" y="700" on="1"/>
        <pt x="538" y="294" on="1"/>
        <pt x="538" y="700" on="1"/>
        <pt x="700" y="700" on="1"/>
        <pt x="700" y="0" on="1"/>
        <pt x="548" y="0" on="1"/>
        <pt x="220" y="422" on="1"/>
        <pt x="220" y="0" on="1"/>
        <pt x="58" y="0" on="1"/>
      </contour>
    </TTGlyph>
    <TTGlyph name="Nacute" xMin="58" yMin="0" xMax="700" yMax="918">
      <component glyphName="N" x="0" y="0" flags="0x204"/>
      <component glyphName="acute" x="154" y="171" flags="0x4"/>
    </TTGlyph>
    <TTGlyph name="Ncaron" xMin="58" yMin="0" xMax="700" yMax="921">
      <component glyphName="N" x="0" y="0" flags="0x204"/>
      <component glyphName="caron" x="119" y="171" flags="0x4"/>
    </TTGlyph>
    <TTGlyph name="Ncommaaccent" xMin="58" yMin="-295" xMax="700" yMax="700">
      <component glyphName="N" x="0" y="0" flags="0x204"/>
      <component glyphName="commaaccent" x="240" y="0" flags="0x4"/>
    </TTGlyph>
    <TTGlyph name="Ntilde" xMin="58" yMin="0" xMax="700" yMax="924">
      <component glyphName="N" x="0" y="0" flags="0x204"/>
      <component glyphName="tilde" x="121" y="171" flags="0x4"/>
    </TTGlyph>
    <TTGlyph name="O" xMin="33" yMin="-11" xMax="781" yMax="711">
      <contour>
        <pt x="781" y="350" on="1"/>
        <pt x="781" y="275" on="0"/>
        <pt x="723" y="142" on="0"/>
        <pt x="623" y="45" on="0"/>
        <pt x="485" y="-11" on="0"/>
        <pt x="407" y="-11" on="1"/>
        <pt x="329" y="-11" on="0"/>
        <pt x="191" y="45" on="0"/>
        <pt x="91" y="142" on="0"/>
        <pt x="33" y="275" on="0"/>
        <pt x="33" y="350" on="1"/>
        <pt x="33" y="425" on="0"/>
        <pt x="91" y="558" on="0"/>
        <pt x="191" y="655" on="0"/>
        <pt x="329" y="711" on="0"/>
        <pt x="407" y="711" on="1"/>
        <pt x="485" y="711" on="0"/>
        <pt x="623" y="655" on="0"/>
        <pt x="723" y="558" on="0"/>
        <pt x="781" y="425" on="0"/>
      </contour>
      <contour>
        <pt x="604" y="350" on="1"/>
        <pt x="604" y="393" on="0"/>
        <pt x="574" y="468" on="0"/>
        <pt x="521" y="522" on="0"/>
        <pt x="449" y="553" on="0"/>
        <pt x="407" y="553" on="1"/>
        <pt x="365" y="553" on="0"/>
        <pt x="293" y="522" on="0"/>
        <pt x="240" y="468" on="0"/>
        <pt x="210" y="393" on="0"/>
        <pt x="210" y="350" on="1"/>
        <pt x="210" y="307" on="0"/>
        <pt x="240" y="232" on="0"/>
        <pt x="293" y="178" on="0"/>
        <pt x="365" y="147" on="0"/>
        <pt x="407" y="147" on="1"/>
        <pt x="449" y="147" on="0"/>
        <pt x="521" y="178" on="0"/>
        <pt x="574" y="232" on="0"/>
        <pt x="604" y="307" on="0"/>
      </contour>
    </TTGlyph>
    <TTGlyph name="OE" xMin="38" yMin="0" xMax="1063" yMax="700">
      <contour>
        <pt x="402" y="0" on="1"/>
        <pt x="326" y="0" on="0"/>
        <pt x="193" y="55" on="0"/>
        <pt x="95" y="149" on="0"/>
        <pt x="38" y="277" on="0"/>
        <pt x="38" y="350" on="1"/>
        <pt x="38" y="423" on="0"/>
        <pt x="95" y="551" on="0"/>
        <pt x="193" y="645" on="0"/>
        <pt x="326" y="700" on="0"/>
        <pt x="402" y="700" on="1"/>
        <pt x="1063" y="700" on="1"/>
        <pt x="1063" y="551" on="1"/>
        <pt x="699" y="551" on="1"/>
        <pt x="719" y="523" on="0"/>
        <pt x="749" y="459" on="0"/>
        <pt x="756" y="425" on="1"/>
        <pt x="940" y="425" on="1"/>
        <pt x="940" y="281" on="1"/>
        <pt x="757" y="281" on="1"/>
        <pt x="750" y="245" on="0"/>
        <pt x="720" y="178" on="0"/>
        <pt x="699" y="149" on="1"/>
        <pt x="1063" y="149" on="1"/>
        <pt x="1063" y="0" on="1"/>
      </contour>
      <contour>
        <pt x="402" y="152" on="1"/>
        <pt x="441" y="152" on="0"/>
        <pt x="510" y="183" on="0"/>
        <pt x="560" y="235" on="0"/>
        <pt x="589" y="308" on="0"/>
        <pt x="589" y="350" on="1"/>
        <pt x="589" y="392" on="0"/>
        <pt x="560" y="465" on="0"/>
        <pt x="510" y="517" on="0"/>
        <pt x="441" y="548" on="0"/>
        <pt x="402" y="548" on="1"/>
        <pt x="363" y="548" on="0"/>
        <pt x="294" y="517" on="0"/>
        <pt x="244" y="465" on="0"/>
        <pt x="215" y="392" on="0"/>
        <pt x="215" y="350" on="1"/>
        <pt x="215" y="308" on="0"/>
        <pt x="244" y="235" on="0"/>
        <pt x="294" y="183" on="0"/>
        <pt x="363" y="152" on="0"/>
      </contour>
    </TTGlyph>
    <TTGlyph name="Oacute" xMin="33" yMin="-11" xMax="781" yMax="918">
      <component glyphName="O" x="0" y="0" flags="0x204"/>
      <component glyphName="acute" x="182" y="171" flags="0x4"/>
    </TTGlyph>
    <TTGlyph name="Obreve" xMin="33" yMin="-11" xMax="781" yMax="939">
      <component glyphName="O" x="0" y="0" flags="0x204"/>
      <component glyphName="breve" x="149" y="171" flags="0x4"/>
    </TTGlyph>
    <TTGlyph name="Ocircumflex" xMin="33" yMin="-11" xMax="781" yMax="921">
      <component glyphName="O" x="0" y="0" flags="0x204"/>
      <component glyphName="circumflex" x="149" y="171" flags="0x4"/>
    </TTGlyph>
    <TTGlyph name="Odieresis" xMin="33" yMin="-11" xMax="781" yMax="937">
      <component glyphName="O" x="0" y="0" flags="0x204"/>
      <component glyphName="dieresis" x="103" y="171" flags="0x4"/>
    </TTGlyph>
    <TTGlyph name="Ograve" xMin="33" yMin="-11" xMax="781" yMax="918">
      <component glyphName="O" x="0" y="0" flags="0x204"/>
      <component glyphName="grave" x="107" y="171" flags="0x4"/>
    </TTGlyph>
    <TTGlyph name="Ohungarumlaut" xMin="33" yMin="-11" xMax="781" yMax="917">
      <component glyphName="O" x="0" y="0" flags="0x204"/>
      <component glyphName="hungarumlaut" x="157" y="171" flags="0x4"/>
    </TTGlyph>
    <TTGlyph name="Omacron" xMin="33" yMin="-11" xMax="781" yMax="899">
      <component glyphName="O" x="0" y="0" flags="0x204"/>
      <component glyphName="macron" x="149" y="171" flags="0x4"/>
    </TTGlyph>
    <TTGlyph name="Oslash" xMin="33" yMin="-11" xMax="781" yMax="711">
      <contour>
        <pt x="187" y="0" on="1"/>
        <pt x="40" y="0" on="1"/>
        <pt x="128" y="107" on="1"/>
        <pt x="84" y="155" on="0"/>
        <pt x="33" y="280" on="0"/>
        <pt x="33" y="350" on="1"/>
        <pt x="33" y="425" on="0"/>
        <pt x="91" y="558" on="0"/>
        <pt x="191" y="655" on="0"/>
        <pt x="329" y="711" on="0"/>
        <pt x="407" y="711" on="1"/>
        <pt x="457" y="711" on="0"/>
        <pt x="549" y="688" on="0"/>
        <pt x="589" y="667" on="1"/>
        <pt x="617" y="700" on="1"/>
        <pt x="765" y="700" on="1"/>
        <pt x="681" y="598" on="1"/>
        <pt x="727" y="550" on="0"/>
        <pt x="781" y="422" on="0"/>
        <pt x="781" y="350" on="1"/>
        <pt x="781" y="275" on="0"/>
        <pt x="723" y="142" on="0"/>
        <pt x="623" y="45" on="0"/>
        <pt x="485" y="-11" on="0"/>
        <pt x="407" y="-11" on="1"/>
        <pt x="355" y="-11" on="0"/>
        <pt x="259" y="14" on="0"/>
        <pt x="218" y="37" on="1"/>
      </contour>
      <contour>
        <pt x="210" y="350" on="1"/>
        <pt x="210" y="319" on="0"/>
        <pt x="225" y="264" on="0"/>
        <pt x="239" y="241" on="1"/>
        <pt x="484" y="538" on="1"/>
        <pt x="466" y="545" on="0"/>
        <pt x="427" y="553" on="0"/>
        <pt x="407" y="553" on="1"/>
        <pt x="365" y="553" on="0"/>
        <pt x="293" y="522" on="0"/>
        <pt x="240" y="468" on="0"/>
        <pt x="210" y="393" on="0"/>
      </contour>
      <contour>
        <pt x="604" y="350" on="1"/>
        <pt x="604" y="383" on="0"/>
        <pt x="587" y="441" on="0"/>
        <pt x="571" y="465" on="1"/>
        <pt x="323" y="165" on="1"/>
        <pt x="342" y="156" on="0"/>
        <pt x="385" y="147" on="0"/>
        <pt x="407" y="147" on="1"/>
        <pt x="449" y="147" on="0"/>
        <pt x="521" y="178" on="0"/>
        <pt x="574" y="232" on="0"/>
        <pt x="604" y="307" on="0"/>
      </contour>
    </TTGlyph>
    <TTGlyph name="Otilde" xMin="33" yMin="-11" xMax="781" yMax="924">
      <component glyphName="O" x="0" y="0" flags="0x204"/>
      <component glyphName="tilde" x="149" y="171" flags="0x4"/>
    </TTGlyph>
    <TTGlyph name="P" xMin="58" yMin="0" xMax="665" yMax="700">
      <contour>
        <pt x="58" y="0" on="1"/>
        <pt x="58" y="700" on="1"/>
        <pt x="427" y="700" on="1"/>
        <pt x="478" y="700" on="0"/>
        <pt x="566" y="666" on="0"/>
        <pt x="629" y="605" on="0"/>
        <pt x="665" y="522" on="0"/>
        <pt x="665" y="473" on="1"/>
        <pt x="665" y="426" on="0"/>
        <pt x="629" y="344" on="0"/>
        <pt x="565" y="285" on="0"/>
        <pt x="478" y="251" on="0"/>
        <pt x="427" y="251" on="1"/>
        <pt x="230" y="251" on="1"/>
        <pt x="230" y="0" on="1"/>
      </contour>
      <contour>
        <pt x="407" y="553" on="1"/>
        <pt x="230" y="553" on="1"/>
        <pt x="230" y="393" on="1"/>
        <pt x="407" y="393" on="1"/>
        <pt x="444" y="393" on="0"/>
        <pt x="491" y="437" on="0"/>
        <pt x="491" y="472" on="1"/>
        <pt x="491" y="508" on="0"/>
        <pt x="444" y="553" on="0"/>
      </contour>
    </TTGlyph>
    <TTGlyph name="Q" xMin="33" yMin="-41" xMax="781" yMax="711">
      <contour>
        <pt x="781" y="350" on="1"/>
        <pt x="781" y="277" on="0"/>
        <pt x="726" y="148" on="0"/>
        <pt x="678" y="99" on="1"/>
        <pt x="746" y="13" on="1"/>
        <pt x="600" y="-41" on="1"/>
        <pt x="554" y="17" on="1"/>
        <pt x="520" y="4" on="0"/>
        <pt x="447" y="-11" on="0"/>
        <pt x="407" y="-11" on="1"/>
        <pt x="329" y="-11" on="0"/>
        <pt x="191" y="45" on="0"/>
        <pt x="91" y="142" on="0"/>
        <pt x="33" y="275" on="0"/>
        <pt x="33" y="350" on="1"/>
        <pt x="33" y="425" on="0"/>
        <pt x="91" y="558" on="0"/>
        <pt x="191" y="655" on="0"/>
        <pt x="329" y="711" on="0"/>
        <pt x="407" y="711" on="1"/>
        <pt x="485" y="711" on="0"/>
        <pt x="623" y="655" on="0"/>
        <pt x="723" y="558" on="0"/>
        <pt x="781" y="425" on="0"/>
      </contour>
      <contour>
        <pt x="529" y="289" on="1"/>
        <pt x="571" y="235" on="1"/>
        <pt x="587" y="259" on="0"/>
        <pt x="604" y="318" on="0"/>
        <pt x="604" y="350" on="1"/>
        <pt x="604" y="393" on="0"/>
        <pt x="574" y="468" on="0"/>
        <pt x="521" y="522" on="0"/>
        <pt x="449" y="553" on="0"/>
        <pt x="407" y="553" on="1"/>
        <pt x="365" y="553" on="0"/>
        <pt x="293" y="522" on="0"/>
        <pt x="240" y="468" on="0"/>
        <pt x="210" y="393" on="0"/>
        <pt x="210" y="350" on="1"/>
        <pt x="210" y="307" on="0"/>
        <pt x="240" y="232" on="0"/>
        <pt x="293" y="178" on="0"/>
        <pt x="365" y="147" on="0"/>
        <pt x="407" y="147" on="1"/>
        <pt x="417" y="147" on="0"/>
        <pt x="439" y="149" on="0"/>
        <pt x="449" y="151" on="1"/>
        <pt x="383" y="235" on="1"/>
      </contour>
    </TTGlyph>
    <TTGlyph name="R" xMin="58" yMin="0" xMax="685" yMax="700">
      <contour>
        <pt x="58" y="0" on="1"/>
        <pt x="58" y="700" on="1"/>
        <pt x="416" y="700" on="1"/>
        <pt x="470" y="700" on="0"/>
        <pt x="561" y="667" on="0"/>
        <pt x="626" y="608" on="0"/>
        <pt x="663" y="526" on="0"/>
        <pt x="663" y="477" on="1"/>
        <pt x="663" y="411" on="0"/>
        <pt x="591" y="307" on="0"/>
        <pt x="532" y="280" on="1"/>
        <pt x="685" y="0" on="1"/>
        <pt x="493" y="0" on="1"/>
        <pt x="361" y="255" on="1"/>
        <pt x="230" y="255" on="1"/>
        <pt x="230" y="0" on="1"/>
      </contour>
      <contour>
        <pt x="400" y="553" on="1"/>
        <pt x="230" y="553" on="1"/>
        <pt x="230" y="395" on="1"/>
        <pt x="400" y="395" on="1"/>
        <pt x="440" y="395" on="0"/>
        <pt x="489" y="439" on="0"/>
        <pt x="489" y="474" on="1"/>
        <pt x="489" y="509" on="0"/>
        <pt x="440" y="553" on="0"/>
      </contour>
    </TTGlyph>
    <TTGlyph name="Racute" xMin="58" yMin="0" xMax="685" yMax="918">
      <component glyphName="R" x="0" y="0" flags="0x204"/>
      <component glyphName="acute" x="122" y="171" flags="0x4"/>
    </TTGlyph>
    <TTGlyph name="Rcaron" xMin="58" yMin="0" xMax="685" yMax="921">
      <component glyphName="R" x="0" y="0" flags="0x204"/>
      <component glyphName="caron" x="87" y="171" flags="0x4"/>
    </TTGlyph>
    <TTGlyph name="Rcommaaccent" xMin="58" yMin="-295" xMax="685" yMax="700">
      <component glyphName="R" x="0" y="0" flags="0x204"/>
      <component glyphName="commaaccent" x="219" y="0" flags="0x4"/>
    </TTGlyph>
    <TTGlyph name="S" xMin="0" yMin="-10" xMax="623" yMax="710">
      <contour>
        <pt x="0" y="107" on="1"/>
        <pt x="96" y="232" on="1"/>
        <pt x="159" y="181" on="0"/>
        <pt x="269" y="135" on="0"/>
        <pt x="329" y="135" on="1"/>
        <pt x="388" y="135" on="0"/>
        <pt x="455" y="171" on="0"/>
        <pt x="455" y="203" on="1"/>
        <pt x="455" y="232" on="0"/>
        <pt x="410" y="264" on="0"/>
        <pt x="358" y="273" on="1"/>
        <pt x="204" y="300" on="1"/>
        <pt x="119" y="315" on="0"/>
        <pt x="27" y="415" on="0"/>
        <pt x="27" y="492" on="1"/>
        <pt x="27" y="593" on="0"/>
        <pt x="180" y="710" on="0"/>
        <pt x="314" y="710" on="1"/>
        <pt x="392" y="710" on="0"/>
        <pt x="551" y="656" on="0"/>
        <pt x="608" y="610" on="1"/>
        <pt x="517" y="483" on="1"/>
        <pt x="462" y="526" on="0"/>
        <pt x="357" y="566" on="0"/>
        <pt x="302" y="566" on="1"/>
        <pt x="250" y="566" on="0"/>
        <pt x="189" y="533" on="0"/>
        <pt x="189" y="505" on="1"/>
        <pt x="189" y="479" on="0"/>
        <pt x="228" y="450" on="0"/>
        <pt x="272" y="443" on="1"/>
        <pt x="417" y="419" on="1"/>
        <pt x="518" y="403" on="0"/>
        <pt x="623" y="301" on="0"/>
        <pt x="623" y="220" on="1"/>
        <pt x="623" y="114" on="0"/>
        <pt x="458" y="-10" on="0"/>
        <pt x="316" y="-10" on="1"/>
        <pt x="232" y="-10" on="0"/>
        <pt x="65" y="52" on="0"/>
      </contour>
    </TTGlyph>
    <TTGlyph name="Sacute" xMin="0" yMin="-10" xMax="623" yMax="918">
      <component glyphName="S" x="0" y="0" flags="0x204"/>
      <component glyphName="acute" x="82" y="171" flags="0x4"/>
    </TTGlyph>
    <TTGlyph name="Scaron" xMin="0" yMin="-10" xMax="623" yMax="921">
      <component glyphName="S" x="0" y="0" flags="0x204"/>
      <component glyphName="caron" x="47" y="171" flags="0x4"/>
    </TTGlyph>
    <TTGlyph name="Scedilla" xMin="0" yMin="-239" xMax="623" yMax="710">
      <contour>
        <pt x="0" y="107" on="1"/>
        <pt x="96" y="232" on="1"/>
        <pt x="159" y="181" on="0"/>
        <pt x="269" y="135" on="0"/>
        <pt x="329" y="135" on="1"/>
        <pt x="388" y="135" on="0"/>
        <pt x="455" y="171" on="0"/>
        <pt x="455" y="203" on="1"/>
        <pt x="455" y="232" on="0"/>
        <pt x="410" y="264" on="0"/>
        <pt x="358" y="273" on="1"/>
        <pt x="204" y="300" on="1"/>
        <pt x="119" y="315" on="0"/>
        <pt x="27" y="415" on="0"/>
        <pt x="27" y="492" on="1"/>
        <pt x="27" y="593" on="0"/>
        <pt x="180" y="710" on="0"/>
        <pt x="314" y="710" on="1"/>
        <pt x="392" y="710" on="0"/>
        <pt x="551" y="656" on="0"/>
        <pt x="608" y="610" on="1"/>
        <pt x="517" y="483" on="1"/>
        <pt x="462" y="526" on="0"/>
        <pt x="357" y="566" on="0"/>
        <pt x="302" y="566" on="1"/>
        <pt x="250" y="566" on="0"/>
        <pt x="189" y="533" on="0"/>
        <pt x="189" y="505" on="1"/>
        <pt x="189" y="479" on="0"/>
        <pt x="228" y="450" on="0"/>
        <pt x="272" y="443" on="1"/>
        <pt x="417" y="419" on="1"/>
        <pt x="518" y="403" on="0"/>
        <pt x="623" y="301" on="0"/>
        <pt x="623" y="220" on="1"/>
        <pt x="623" y="121" on="0"/>
        <pt x="477" y="-2" on="0"/>
        <pt x="350" y="-9" on="1"/>
        <pt x="340" y="-42" on="1"/>
        <pt x="384" y="-46" on="0"/>
        <pt x="435" y="-96" on="0"/>
        <pt x="435" y="-134" on="1"/>
        <pt x="435" y="-178" on="0"/>
        <pt x="355" y="-239" on="0"/>
        <pt x="296" y="-239" on="1"/>
        <pt x="257" y="-239" on="0"/>
        <pt x="193" y="-216" on="0"/>
        <pt x="166" y="-192" on="1"/>
        <pt x="217" y="-138" on="1"/>
        <pt x="235" y="-151" on="0"/>
        <pt x="274" y="-166" on="0"/>
        <pt x="293" y="-166" on="1"/>
        <pt x="318" y="-166" on="0"/>
        <pt x="344" y="-148" on="0"/>
        <pt x="344" y="-132" on="1"/>
        <pt x="344" y="-117" on="0"/>
        <pt x="317" y="-99" on="0"/>
        <pt x="295" y="-99" on="1"/>
        <pt x="248" y="-99" on="1"/>
        <pt x="275" y="-8" on="1"/>
        <pt x="200" y="-1" on="0"/>
        <pt x="57" y="58" on="0"/>
      </contour>
    </TTGlyph>
    <TTGlyph name="Scircumflex" xMin="0" yMin="-10" xMax="623" yMax="921">
      <component glyphName="S" x="0" y="0" flags="0x204"/>
      <component glyphName="circumflex" x="49" y="171" flags="0x4"/>
    </TTGlyph>
    <TTGlyph name="Scommaaccent" xMin="0" yMin="-295" xMax="623" yMax="710">
      <component glyphName="S" x="0" y="0" flags="0x204"/>
      <component glyphName="commaaccent" x="179" y="0" flags="0x4"/>
    </TTGlyph>
    <TTGlyph name="T" xMin="18" yMin="0" xMax="648" yMax="700">
      <contour>
        <pt x="18" y="548" on="1"/>
        <pt x="18" y="700" on="1"/>
        <pt x="648" y="700" on="1"/>
        <pt x="648" y="548" on="1"/>
        <pt x="419" y="548" on="1"/>
        <pt x="419" y="0" on="1"/>
        <pt x="247" y="0" on="1"/>
        <pt x="247" y="548" on="1"/>
      </contour>
    </TTGlyph>
    <TTGlyph name="Tbar" xMin="18" yMin="0" xMax="648" yMax="700">
      <contour>
        <pt x="115" y="404" on="1"/>
        <pt x="247" y="404" on="1"/>
        <pt x="247" y="548" on="1"/>
        <pt x="18" y="548" on="1"/>
        <pt x="18" y="700" on="1"/>
        <pt x="648" y="700" on="1"/>
        <pt x="648" y="548" on="1"/>
        <pt x="419" y="548" on="1"/>
        <pt x="419" y="404" on="1"/>
        <pt x="552" y="404" on="1"/>
        <pt x="552" y="269" on="1"/>
        <pt x="419" y="269" on="1"/>
        <pt x="419" y="0" on="1"/>
        <pt x="247" y="0" on="1"/>
        <pt x="247" y="269" on="1"/>
        <pt x="115" y="269" on="1"/>
      </contour>
    </TTGlyph>
    <TTGlyph name="Tcaron" xMin="18" yMin="0" xMax="648" yMax="921">
      <component glyphName="T" x="0" y="0" flags="0x204"/>
      <component glyphName="caron" x="73" y="171" flags="0x4"/>
    </TTGlyph>
    <TTGlyph name="Tcedilla" xMin="18" yMin="-239" xMax="648" yMax="700">
      <contour>
        <pt x="18" y="548" on="1"/>
        <pt x="18" y="700" on="1"/>
        <pt x="648" y="700" on="1"/>
        <pt x="648" y="548" on="1"/>
        <pt x="419" y="548" on="1"/>
        <pt x="419" y="0" on="1"/>
        <pt x="368" y="0" on="1"/>
        <pt x="355" y="-42" on="1"/>
        <pt x="399" y="-46" on="0"/>
        <pt x="450" y="-96" on="0"/>
        <pt x="450" y="-134" on="1"/>
        <pt x="450" y="-178" on="0"/>
        <pt x="370" y="-239" on="0"/>
        <pt x="311" y="-239" on="1"/>
        <pt x="272" y="-239" on="0"/>
        <pt x="208" y="-216" on="0"/>
        <pt x="181" y="-192" on="1"/>
        <pt x="232" y="-138" on="1"/>
        <pt x="250" y="-151" on="0"/>
        <pt x="289" y="-166" on="0"/>
        <pt x="308" y="-166" on="1"/>
        <pt x="333" y="-166" on="0"/>
        <pt x="359" y="-148" on="0"/>
        <pt x="359" y="-132" on="1"/>
        <pt x="359" y="-117" on="0"/>
        <pt x="332" y="-99" on="0"/>
        <pt x="310" y="-99" on="1"/>
        <pt x="263" y="-99" on="1"/>
        <pt x="292" y="0" on="1"/>
        <pt x="247" y="0" on="1"/>
        <pt x="247" y="548" on="1"/>
      </contour>
    </TTGlyph>
    <TTGlyph name="Thorn" xMin="58" yMin="0" xMax="665" yMax="700">
      <contour>
        <pt x="58" y="0" on="1"/>
        <pt x="58" y="700" on="1"/>
        <pt x="230" y="700" on="1"/>
        <pt x="230" y="575" on="1"/>
        <pt x="427" y="575" on="1"/>
        <pt x="478" y="575" on="0"/>
        <pt x="566" y="540" on="0"/>
        <pt x="629" y="480" on="0"/>
        <pt x="665" y="397" on="0"/>
        <pt x="665" y="348" on="1"/>
        <pt x="665" y="301" on="0"/>
        <pt x="629" y="219" on="0"/>
        <pt x="565" y="160" on="0"/>
        <pt x="478" y="126" on="0"/>
        <pt x="427" y="126" on="1"/>
        <pt x="230" y="126" on="1"/>
        <pt x="230" y="0" on="1"/>
      </contour>
      <contour>
        <pt x="407" y="428" on="1"/>
        <pt x="230" y="428" on="1"/>
        <pt x="230" y="268" on="1"/>
        <pt x="407" y="268" on="1"/>
        <pt x="444" y="268" on="0"/>
        <pt x="491" y="312" on="0"/>
        <pt x="491" y="347" on="1"/>
        <pt x="491" y="383" on="0"/>
        <pt x="444" y="428" on="0"/>
      </contour>
    </TTGlyph>
    <TTGlyph name="U" xMin="48" yMin="-10" xMax="685" yMax="700">
      <contour>
        <pt x="685" y="305" on="1"/>
        <pt x="685" y="234" on="0"/>
        <pt x="639" y="117" on="0"/>
        <pt x="556" y="35" on="0"/>
        <pt x="438" y="-10" on="0"/>
        <pt x="366" y="-10" on="1"/>
        <pt x="294" y="-10" on="0"/>
        <pt x="175" y="34" on="0"/>
        <pt x="93" y="116" on="0"/>
        <pt x="48" y="233" on="0"/>
        <pt x="48" y="305" on="1"/>
        <pt x="48" y="700" on="1"/>
        <pt x="220" y="700" on="1"/>
        <pt x="220" y="305" on="1"/>
        <pt x="220" y="234" on="0"/>
        <pt x="301" y="149" on="0"/>
        <pt x="367" y="149" on="1"/>
        <pt x="433" y="149" on="0"/>
        <pt x="513" y="234" on="0"/>
        <pt x="513" y="305" on="1"/>
        <pt x="513" y="700" on="1"/>
        <pt x="685" y="700" on="1"/>
      </contour>
    </TTGlyph>
    <TTGlyph name="Uacute" xMin="48" yMin="-10" xMax="685" yMax="918">
      <component glyphName="U" x="0" y="0" flags="0x204"/>
      <component glyphName="acute" x="142" y="171" flags="0x4"/>
    </TTGlyph>
    <TTGlyph name="Ubreve" xMin="48" yMin="-10" xMax="685" yMax="939">
      <component glyphName="U" x="0" y="0" flags="0x204"/>
      <component glyphName="breve" x="109" y="171" flags="0x4"/>
    </TTGlyph>
    <TTGlyph name="Ucircumflex" xMin="48" yMin="-10" xMax="685" yMax="921">
      <component glyphName="U" x="0" y="0" flags="0x204"/>
      <component glyphName="circumflex" x="109" y="171" flags="0x4"/>
    </TTGlyph>
    <TTGlyph name="Udieresis" xMin="48" yMin="-10" xMax="685" yMax="937">
      <component glyphName="U" x="0" y="0" flags="0x204"/>
      <component glyphName="dieresis" x="63" y="171" flags="0x4"/>
    </TTGlyph>
    <TTGlyph name="Ugrave" xMin="48" yMin="-10" xMax="685" yMax="918">
      <component glyphName="U" x="0" y="0" flags="0x204"/>
      <component glyphName="grave" x="67" y="171" flags="0x4"/>
    </TTGlyph>
    <TTGlyph name="Uhungarumlaut" xMin="48" yMin="-10" xMax="685" yMax="917">
      <component glyphName="U" x="0" y="0" flags="0x204"/>
      <component glyphName="hungarumlaut" x="117" y="171" flags="0x4"/>
    </TTGlyph>
    <TTGlyph name="Umacron" xMin="48" yMin="-10" xMax="685" yMax="899">
      <component glyphName="U" x="0" y="0" flags="0x204"/>
      <component glyphName="macron" x="109" y="171" flags="0x4"/>
    </TTGlyph>
    <TTGlyph name="Uogonek" xMin="48" yMin="-221" xMax="685" yMax="700">
      <contour>
        <pt x="685" y="305" on="1"/>
        <pt x="685" y="183" on="0"/>
        <pt x="556" y="20" on="0"/>
        <pt x="446" y="-2" on="1"/>
        <pt x="405" y="-26" on="0"/>
        <pt x="366" y="-73" on="0"/>
        <pt x="366" y="-98" on="1"/>
        <pt x="366" y="-117" on="0"/>
        <pt x="391" y="-139" on="0"/>
        <pt x="413" y="-139" on="1"/>
        <pt x="422" y="-139" on="0"/>
        <pt x="442" y="-133" on="0"/>
        <pt x="449" y="-128" on="1"/>
        <pt x="470" y="-198" on="1"/>
        <pt x="453" y="-208" on="0"/>
        <pt x="407" y="-221" on="0"/>
        <pt x="383" y="-221" on="1"/>
        <pt x="334" y="-221" on="0"/>
        <pt x="275" y="-169" on="0"/>
        <pt x="275" y="-127" on="1"/>
        <pt x="275" y="-93" on="0"/>
        <pt x="311" y="-36" on="0"/>
        <pt x="348" y="-10" on="1"/>
        <pt x="211" y="-4" on="0"/>
        <pt x="48" y="165" on="0"/>
        <pt x="48" y="305" on="1"/>
        <pt x="48" y="700" on="1"/>
        <pt x="220" y="700" on="1"/>
        <pt x="220" y="305" on="1"/>
        <pt x="220" y="234" on="0"/>
        <pt x="301" y="149" on="0"/>
        <pt x="367" y="149" on="1"/>
        <pt x="433" y="149" on="0"/>
        <pt x="513" y="234" on="0"/>
        <pt x="513" y="305" on="1"/>
        <pt x="513" y="700" on="1"/>
        <pt x="685" y="700" on="1"/>
      </contour>
    </TTGlyph>
    <TTGlyph name="Uring" xMin="48" yMin="-10" xMax="685" yMax="1007">
      <component glyphName="U" x="0" y="0" flags="0x204"/>
      <component glyphName="ring" x="109" y="171" flags="0x4"/>
    </TTGlyph>
    <TTGlyph name="Utilde" xMin="48" yMin="-10" xMax="685" yMax="924">
      <component glyphName="U" x="0" y="0" flags="0x204"/>
      <component glyphName="tilde" x="109" y="171" flags="0x4"/>
    </TTGlyph>
    <TTGlyph name="V" xMin="-7" yMin="0" xMax="760" yMax="700">
      <contour>
        <pt x="276" y="0" on="1"/>
        <pt x="-7" y="700" on="1"/>
        <pt x="179" y="700" on="1"/>
        <pt x="378" y="179" on="1"/>
        <pt x="581" y="700" on="1"/>
        <pt x="760" y="700" on="1"/>
        <pt x="473" y="0" on="1"/>
      </contour>
    </TTGlyph>
    <TTGlyph name="W" xMin="23" yMin="0" xMax="946" yMax="700">
      <contour>
        <pt x="361" y="0" on="1"/>
        <pt x="179" y="0" on="1"/>
        <pt x="23" y="700" on="1"/>
        <pt x="200" y="700" on="1"/>
        <pt x="285" y="268" on="1"/>
        <pt x="407" y="700" on="1"/>
        <pt x="568" y="700" on="1"/>
        <pt x="690" y="268" on="1"/>
        <pt x="775" y="700" on="1"/>
        <pt x="946" y="700" on="1"/>
        <pt x="790" y="0" on="1"/>
        <pt x="608" y="0" on="1"/>
        <pt x="485" y="446" on="1"/>
      </contour>
    </TTGlyph>
    <TTGlyph name="Wacute" xMin="23" yMin="0" xMax="946" yMax="918">
      <component glyphName="W" x="0" y="0" flags="0x204"/>
      <component glyphName="acute" x="258" y="171" flags="0x4"/>
    </TTGlyph>
    <TTGlyph name="Wcircumflex" xMin="23" yMin="0" xMax="946" yMax="921">
      <component glyphName="W" x="0" y="0" flags="0x204"/>
      <component glyphName="circumflex" x="225" y="171" flags="0x4"/>
    </TTGlyph>
    <TTGlyph name="Wdieresis" xMin="23" yMin="0" xMax="946" yMax="937">
      <component glyphName="W" x="0" y="0" flags="0x204"/>
      <component glyphName="dieresis" x="179" y="171" flags="0x4"/>
    </TTGlyph>
    <TTGlyph name="Wgrave" xMin="23" yMin="0" xMax="946" yMax="918">
      <component glyphName="W" x="0" y="0" flags="0x204"/>
      <component glyphName="grave" x="183" y="171" flags="0x4"/>
    </TTGlyph>
    <TTGlyph name="X" xMin="-5" yMin="0" xMax="730" yMax="700">
      <contour>
        <pt x="192" y="0" on="1"/>
        <pt x="-5" y="0" on="1"/>
        <pt x="260" y="361" on="1"/>
        <pt x="7" y="700" on="1"/>
        <pt x="212" y="700" on="1"/>
        <pt x="362" y="489" on="1"/>
        <pt x="512" y="700" on="1"/>
        <pt x="709" y="700" on="1"/>
        <pt x="460" y="361" on="1"/>
        <pt x="730" y="0" on="1"/>
        <pt x="525" y="0" on="1"/>
        <pt x="358" y="234" on="1"/>
      </contour>
    </TTGlyph>
    <TTGlyph name="Y" xMin="-10" yMin="0" xMax="742" yMax="700">
      <contour>
        <pt x="280" y="0" on="1"/>
        <pt x="280" y="261" on="1"/>
        <pt x="-10" y="700" on="1"/>
        <pt x="188" y="700" on="1"/>
        <pt x="371" y="413" on="1"/>
        <pt x="555" y="700" on="1"/>
        <pt x="742" y="700" on="1"/>
        <pt x="452" y="261" on="1"/>
        <pt x="452" y="0" on="1"/>
      </contour>
    </TTGlyph>
    <TTGlyph name="Yacute" xMin="-10" yMin="0" xMax="742" yMax="918">
      <component glyphName="Y" x="0" y="0" flags="0x204"/>
      <component glyphName="acute" x="141" y="171" flags="0x4"/>
    </TTGlyph>
    <TTGlyph name="Ycircumflex" xMin="-10" yMin="0" xMax="742" yMax="921">
      <component glyphName="Y" x="0" y="0" flags="0x204"/>
      <component glyphName="circumflex" x="108" y="171" flags="0x4"/>
    </TTGlyph>
    <TTGlyph name="Ydieresis" xMin="-10" yMin="0" xMax="742" yMax="937">
      <component glyphName="Y" x="0" y="0" flags="0x204"/>
      <component glyphName="dieresis" x="62" y="171" flags="0x4"/>
    </TTGlyph>
    <TTGlyph name="Ygrave" xMin="-10" yMin="0" xMax="742" yMax="918">
      <component glyphName="Y" x="0" y="0" flags="0x204"/>
      <component glyphName="grave" x="66" y="171" flags="0x4"/>
    </TTGlyph>
    <TTGlyph name="Z" xMin="20" yMin="0" xMax="609" yMax="700">
      <contour>
        <pt x="20" y="0" on="1"/>
        <pt x="20" y="116" on="1"/>
        <pt x="382" y="551" on="1"/>
        <pt x="23" y="551" on="1"/>
        <pt x="23" y="700" on="1"/>
        <pt x="606" y="700" on="1"/>
        <pt x="606" y="584" on="1"/>
        <pt x="245" y="149" on="1"/>
        <pt x="609" y="149" on="1"/>
        <pt x="609" y="0" on="1"/>
      </contour>
    </TTGlyph>
    <TTGlyph name="Zacute" xMin="20" yMin="0" xMax="609" yMax="918">
      <component glyphName="Z" x="0" y="0" flags="0x204"/>
      <component glyphName="acute" x="95" y="171" flags="0x4"/>
    </TTGlyph>
    <TTGlyph name="Zcaron" xMin="20" yMin="0" xMax="609" yMax="921">
      <component glyphName="Z" x="0" y="0" flags="0x204"/>
      <component glyphName="caron" x="60" y="171" flags="0x4"/>
    </TTGlyph>
    <TTGlyph name="Zdotaccent" xMin="20" yMin="0" xMax="609" yMax="937">
      <component glyphName="Z" x="0" y="0" flags="0x204"/>
      <component glyphName="dotaccent" x="170" y="171" flags="0x4"/>
    </TTGlyph>
    <TTGlyph name="a" xMin="27" yMin="-9" xMax="525" yMax="539">
      <contour>
        <pt x="219" y="-9" on="1"/>
        <pt x="135" y="-9" on="0"/>
        <pt x="27" y="83" on="0"/>
        <pt x="27" y="155" on="1"/>
        <pt x="27" y="230" on="0"/>
        <pt x="142" y="314" on="0"/>
        <pt x="245" y="314" on="1"/>
        <pt x="276" y="314" on="0"/>
        <pt x="336" y="306" on="0"/>
        <pt x="365" y="299" on="1"/>
        <pt x="365" y="325" on="1"/>
        <pt x="365" y="365" on="0"/>
        <pt x="314" y="404" on="0"/>
        <pt x="264" y="404" on="1"/>
        <pt x="233" y="404" on="0"/>
        <pt x="155" y="384" on="0"/>
        <pt x="104" y="362" on="1"/>
        <pt x="46" y="481" on="1"/>
        <pt x="110" y="510" on="0"/>
        <pt x="233" y="539" on="0"/>
        <pt x="293" y="539" on="1"/>
        <pt x="403" y="539" on="0"/>
        <pt x="525" y="434" on="0"/>
        <pt x="525" y="339" on="1"/>
        <pt x="525" y="0" on="1"/>
        <pt x="365" y="0" on="1"/>
        <pt x="365" y="32" on="1"/>
        <pt x="333" y="10" on="0"/>
        <pt x="262" y="-9" on="0"/>
      </contour>
      <contour>
        <pt x="181" y="158" on="1"/>
        <pt x="181" y="133" on="0"/>
        <pt x="225" y="105" on="0"/>
        <pt x="264" y="105" on="1"/>
        <pt x="293" y="105" on="0"/>
        <pt x="344" y="117" on="0"/>
        <pt x="365" y="130" on="1"/>
        <pt x="365" y="198" on="1"/>
        <pt x="342" y="204" on="0"/>
        <pt x="294" y="210" on="0"/>
        <pt x="269" y="210" on="1"/>
        <pt x="227" y="210" on="0"/>
        <pt x="181" y="183" on="0"/>
      </contour>
    </TTGlyph>
    <TTGlyph name="a.school" xMin="26" yMin="-7" xMax="598" yMax="536">
      <contour>
        <pt x="438" y="0" on="1"/>
        <pt x="438" y="39" on="1"/>
        <pt x="407" y="17" on="0"/>
        <pt x="335" y="-7" on="0"/>
        <pt x="296" y="-7" on="1"/>
        <pt x="240" y="-7" on="0"/>
        <pt x="141" y="35" on="0"/>
        <pt x="68" y="109" on="0"/>
        <pt x="26" y="208" on="0"/>
        <pt x="26" y="265" on="1"/>
        <pt x="26" y="322" on="0"/>
        <pt x="69" y="421" on="0"/>
        <pt x="143" y="494" on="0"/>
        <pt x="244" y="536" on="0"/>
        <pt x="301" y="536" on="1"/>
        <pt x="338" y="536" on="0"/>
        <pt x="406" y="518" on="0"/>
        <pt x="436" y="501" on="1"/>
        <pt x="436" y="529" on="1"/>
        <pt x="598" y="529" on="1"/>
        <pt x="598" y="0" on="1"/>
      </contour>
      <contour>
        <pt x="185" y="265" on="1"/>
        <pt x="185" y="208" on="0"/>
        <pt x="266" y="131" on="0"/>
        <pt x="324" y="131" on="1"/>
        <pt x="358" y="131" on="0"/>
        <pt x="414" y="152" on="0"/>
        <pt x="436" y="173" on="1"/>
        <pt x="436" y="358" on="1"/>
        <pt x="415" y="377" on="0"/>
        <pt x="357" y="399" on="0"/>
        <pt x="324" y="399" on="1"/>
        <pt x="265" y="399" on="0"/>
        <pt x="185" y="322" on="0"/>
      </contour>
    </TTGlyph>
    <TTGlyph name="aacute" xMin="27" yMin="-9" xMax="525" yMax="747">
      <component glyphName="a" x="0" y="0" flags="0x204"/>
      <component glyphName="acute" x="53" y="0" flags="0x4"/>
    </TTGlyph>
    <TTGlyph name="aacute.school" xMin="26" yMin="-7" xMax="598" yMax="747">
      <component glyphName="a.school" x="0" y="0" flags="0x204"/>
      <component glyphName="acute" x="98" y="0" flags="0x4"/>
    </TTGlyph>
    <TTGlyph name="abreve" xMin="27" yMin="-9" xMax="525" yMax="768">
      <component glyphName="a" x="0" y="0" flags="0x204"/>
      <component glyphName="breve" x="20" y="0" flags="0x4"/>
    </TTGlyph>
    <TTGlyph name="abreve.school" xMin="26" yMin="-7" xMax="598" yMax="768">
      <component glyphName="a.school" x="0" y="0" flags="0x204"/>
      <component glyphName="breve" x="65" y="0" flags="0x4"/>
    </TTGlyph>
    <TTGlyph name="acircumflex" xMin="27" yMin="-9" xMax="525" yMax="750">
      <component glyphName="a" x="0" y="0" flags="0x204"/>
      <component glyphName="circumflex" x="20" y="0" flags="0x4"/>
    </TTGlyph>
    <TTGlyph name="acircumflex.school" xMin="26" yMin="-7" xMax="598" yMax="750">
      <component glyphName="a.school" x="0" y="0" flags="0x204"/>
      <component glyphName="circumflex" x="65" y="0" flags="0x4"/>
    </TTGlyph>
    <TTGlyph name="acute" xMin="149" yMin="611" xMax="418" yMax="747">
      <contour>
        <pt x="237" y="747" on="1"/>
        <pt x="418" y="747" on="1"/>
        <pt x="278" y="611" on="1"/>
        <pt x="149" y="611" on="1"/>
      </contour>
    </TTGlyph>
    <TTGlyph name="adieresis" xMin="27" yMin="-9" xMax="525" yMax="766">
      <component glyphName="a" x="0" y="0" flags="0x204"/>
      <component glyphName="dieresis" x="-26" y="0" flags="0x4"/>
    </TTGlyph>
    <TTGlyph name="adieresis.school" xMin="26" yMin="-7" xMax="598" yMax="766">
      <component glyphName="a.school" x="0" y="0" flags="0x204"/>
      <component glyphName="dieresis" x="19" y="0" flags="0x4"/>
    </TTGlyph>
    <TTGlyph name="ae" xMin="32" yMin="-10" xMax="908" yMax="539">
      <contour>
        <pt x="219" y="-9" on="1"/>
        <pt x="137" y="-9" on="0"/>
        <pt x="32" y="83" on="0"/>
        <pt x="32" y="155" on="1"/>
        <pt x="32" y="230" on="0"/>
        <pt x="144" y="314" on="0"/>
        <pt x="245" y="314" on="1"/>
        <pt x="276" y="314" on="0"/>
        <pt x="336" y="306" on="0"/>
        <pt x="365" y="299" on="1"/>
        <pt x="365" y="325" on="1"/>
        <pt x="365" y="365" on="0"/>
        <pt x="314" y="404" on="0"/>
        <pt x="264" y="404" on="1"/>
        <pt x="233" y="404" on="0"/>
        <pt x="155" y="384" on="0"/>
        <pt x="104" y="362" on="1"/>
        <pt x="46" y="481" on="1"/>
        <pt x="110" y="510" on="0"/>
        <pt x="233" y="539" on="0"/>
        <pt x="293" y="539" on="1"/>
        <pt x="352" y="539" on="0"/>
        <pt x="443" y="507" on="0"/>
        <pt x="472" y="476" on="1"/>
        <pt x="506" y="506" on="0"/>
        <pt x="592" y="538" on="0"/>
        <pt x="641" y="538" on="1"/>
        <pt x="699" y="538" on="0"/>
        <pt x="797" y="494" on="0"/>
        <pt x="868" y="418" on="0"/>
        <pt x="908" y="311" on="0"/>
        <pt x="908" y="249" on="1"/>
        <pt x="908" y="209" on="1"/>
        <pt x="531" y="209" on="1"/>
        <pt x="547" y="172" on="0"/>
        <pt x="615" y="125" on="0"/>
        <pt x="661" y="125" on="1"/>
        <pt x="694" y="125" on="0"/>
        <pt x="748" y="146" on="0"/>
        <pt x="767" y="165" on="1"/>
        <pt x="874" y="70" on="1"/>
        <pt x="824" y="28" on="0"/>
        <pt x="719" y="-10" on="0"/>
        <pt x="653" y="-10" on="1"/>
        <pt x="590" y="-10" on="0"/>
        <pt x="482" y="35" on="0"/>
        <pt x="443" y="75" on="1"/>
        <pt x="394" y="31" on="0"/>
        <pt x="287" y="-9" on="0"/>
      </contour>
      <contour>
        <pt x="638" y="406" on="1"/>
        <pt x="598" y="406" on="0"/>
        <pt x="540" y="362" on="0"/>
        <pt x="528" y="322" on="1"/>
        <pt x="749" y="322" on="1"/>
        <pt x="736" y="360" on="0"/>
        <pt x="677" y="406" on="0"/>
      </contour>
      <contour>
        <pt x="186" y="158" on="1"/>
        <pt x="186" y="133" on="0"/>
        <pt x="227" y="105" on="0"/>
        <pt x="264" y="105" on="1"/>
        <pt x="298" y="105" on="0"/>
        <pt x="361" y="129" on="0"/>
        <pt x="389" y="153" on="1"/>
        <pt x="385" y="163" on="0"/>
        <pt x="377" y="185" on="0"/>
        <pt x="374" y="195" on="1"/>
        <pt x="349" y="202" on="0"/>
        <pt x="296" y="210" on="0"/>
        <pt x="269" y="210" on="1"/>
        <pt x="229" y="210" on="0"/>
        <pt x="186" y="183" on="0"/>
      </contour>
    </TTGlyph>
    <TTGlyph name="agrave" xMin="27" yMin="-9" xMax="525" yMax="747">
      <component glyphName="a" x="0" y="0" flags="0x204"/>
      <component glyphName="grave" x="-22" y="0" flags="0x4"/>
    </TTGlyph>
    <TTGlyph name="agrave.school" xMin="26" yMin="-7" xMax="598" yMax="747">
      <component glyphName="a.school" x="0" y="0" flags="0x204"/>
      <component glyphName="grave" x="23" y="0" flags="0x4"/>
    </TTGlyph>
    <TTGlyph name="amacron" xMin="27" yMin="-9" xMax="525" yMax="728">
      <component glyphName="a" x="0" y="0" flags="0x204"/>
      <component glyphName="macron" x="20" y="0" flags="0x4"/>
    </TTGlyph>
    <TTGlyph name="amacron.school" xMin="26" yMin="-7" xMax="598" yMax="728">
      <component glyphName="a.school" x="0" y="0" flags="0x204"/>
      <component glyphName="macron" x="65" y="0" flags="0x4"/>
    </TTGlyph>
    <TTGlyph name="ampersand" xMin="24" yMin="-23" xMax="664" yMax="712">
      <contour>
        <pt x="664" y="91" on="1"/>
        <pt x="568" y="-23" on="1"/>
        <pt x="546" y="-7" on="0"/>
        <pt x="499" y="29" on="0"/>
        <pt x="477" y="48" on="1"/>
        <pt x="435" y="20" on="0"/>
        <pt x="334" y="-10" on="0"/>
        <pt x="277" y="-10" on="1"/>
        <pt x="164" y="-10" on="0"/>
        <pt x="24" y="101" on="0"/>
        <pt x="24" y="190" on="1"/>
        <pt x="24" y="254" on="0"/>
        <pt x="82" y="340" on="0"/>
        <pt x="152" y="380" on="1"/>
        <pt x="121" y="420" on="0"/>
        <pt x="96" y="490" on="0"/>
        <pt x="96" y="531" on="1"/>
        <pt x="96" y="609" on="0"/>
        <pt x="213" y="712" on="0"/>
        <pt x="302" y="712" on="1"/>
        <pt x="389" y="712" on="0"/>
        <pt x="504" y="613" on="0"/>
        <pt x="504" y="539" on="1"/>
        <pt x="504" y="494" on="0"/>
        <pt x="457" y="419" on="0"/>
        <pt x="410" y="391" on="1"/>
        <pt x="359" y="359" on="1"/>
        <pt x="384" y="334" on="0"/>
        <pt x="440" y="279" on="0"/>
        <pt x="470" y="252" on="1"/>
        <pt x="486" y="282" on="0"/>
        <pt x="511" y="355" on="0"/>
        <pt x="520" y="398" on="1"/>
        <pt x="658" y="375" on="1"/>
        <pt x="642" y="309" on="0"/>
        <pt x="601" y="202" on="0"/>
        <pt x="574" y="161" on="1"/>
        <pt x="597" y="142" on="0"/>
        <pt x="643" y="107" on="0"/>
      </contour>
      <contour>
        <pt x="240" y="534" on="1"/>
        <pt x="240" y="516" on="0"/>
        <pt x="258" y="478" on="0"/>
        <pt x="282" y="450" on="1"/>
        <pt x="317" y="471" on="1"/>
        <pt x="339" y="485" on="0"/>
        <pt x="359" y="515" on="0"/>
        <pt x="359" y="534" on="1"/>
        <pt x="359" y="559" on="0"/>
        <pt x="323" y="594" on="0"/>
        <pt x="298" y="594" on="1"/>
        <pt x="273" y="594" on="0"/>
        <pt x="240" y="560" on="0"/>
      </contour>
      <contour>
        <pt x="173" y="203" on="1"/>
        <pt x="173" y="163" on="0"/>
        <pt x="235" y="116" on="0"/>
        <pt x="289" y="116" on="1"/>
        <pt x="313" y="116" on="0"/>
        <pt x="356" y="126" on="0"/>
        <pt x="375" y="137" on="1"/>
        <pt x="336" y="173" on="0"/>
        <pt x="262" y="248" on="0"/>
        <pt x="229" y="285" on="1"/>
        <pt x="198" y="266" on="0"/>
        <pt x="173" y="228" on="0"/>
      </contour>
    </TTGlyph>
    <TTGlyph name="aogonek" xMin="27" yMin="-221" xMax="545" yMax="539">
      <contour>
        <pt x="219" y="-9" on="1"/>
        <pt x="135" y="-9" on="0"/>
        <pt x="27" y="83" on="0"/>
        <pt x="27" y="155" on="1"/>
        <pt x="27" y="230" on="0"/>
        <pt x="142" y="314" on="0"/>
        <pt x="245" y="314" on="1"/>
        <pt x="276" y="314" on="0"/>
        <pt x="336" y="306" on="0"/>
        <pt x="365" y="299" on="1"/>
        <pt x="365" y="325" on="1"/>
        <pt x="365" y="365" on="0"/>
        <pt x="314" y="404" on="0"/>
        <pt x="264" y="404" on="1"/>
        <pt x="233" y="404" on="0"/>
        <pt x="155" y="384" on="0"/>
        <pt x="104" y="362" on="1"/>
        <pt x="46" y="481" on="1"/>
        <pt x="110" y="510" on="0"/>
        <pt x="233" y="539" on="0"/>
        <pt x="293" y="539" on="1"/>
        <pt x="403" y="539" on="0"/>
        <pt x="525" y="434" on="0"/>
        <pt x="525" y="339" on="1"/>
        <pt x="525" y="0" on="1"/>
        <pt x="482" y="-25" on="0"/>
        <pt x="441" y="-73" on="0"/>
        <pt x="441" y="-98" on="1"/>
        <pt x="441" y="-117" on="0"/>
        <pt x="466" y="-139" on="0"/>
        <pt x="488" y="-139" on="1"/>
        <pt x="497" y="-139" on="0"/>
        <pt x="517" y="-133" on="0"/>
        <pt x="524" y="-128" on="1"/>
        <pt x="545" y="-198" on="1"/>
        <pt x="528" y="-208" on="0"/>
        <pt x="482" y="-221" on="0"/>
        <pt x="458" y="-221" on="1"/>
        <pt x="409" y="-221" on="0"/>
        <pt x="350" y="-169" on="0"/>
        <pt x="350" y="-127" on="1"/>
        <pt x="350" y="-90" on="0"/>
        <pt x="392" y="-28" on="0"/>
        <pt x="437" y="0" on="1"/>
        <pt x="365" y="0" on="1"/>
        <pt x="365" y="32" on="1"/>
        <pt x="333" y="10" on="0"/>
        <pt x="262" y="-9" on="0"/>
      </contour>
      <contour>
        <pt x="181" y="158" on="1"/>
        <pt x="181" y="133" on="0"/>
        <pt x="225" y="105" on="0"/>
        <pt x="264" y="105" on="1"/>
        <pt x="293" y="105" on="0"/>
        <pt x="344" y="117" on="0"/>
        <pt x="365" y="130" on="1"/>
        <pt x="365" y="198" on="1"/>
        <pt x="342" y="204" on="0"/>
        <pt x="294" y="210" on="0"/>
        <pt x="269" y="210" on="1"/>
        <pt x="227" y="210" on="0"/>
        <pt x="181" y="183" on="0"/>
      </contour>
    </TTGlyph>
    <TTGlyph name="aogonek.school" xMin="26" yMin="-221" xMax="618" yMax="536">
      <contour>
        <pt x="438" y="0" on="1"/>
        <pt x="438" y="39" on="1"/>
        <pt x="407" y="17" on="0"/>
        <pt x="335" y="-7" on="0"/>
        <pt x="296" y="-7" on="1"/>
        <pt x="240" y="-7" on="0"/>
        <pt x="141" y="35" on="0"/>
        <pt x="68" y="109" on="0"/>
        <pt x="26" y="208" on="0"/>
        <pt x="26" y="265" on="1"/>
        <pt x="26" y="322" on="0"/>
        <pt x="69" y="421" on="0"/>
        <pt x="143" y="494" on="0"/>
        <pt x="244" y="536" on="0"/>
        <pt x="301" y="536" on="1"/>
        <pt x="338" y="536" on="0"/>
        <pt x="406" y="518" on="0"/>
        <pt x="436" y="501" on="1"/>
        <pt x="436" y="529" on="1"/>
        <pt x="598" y="529" on="1"/>
        <pt x="598" y="0" on="1"/>
        <pt x="555" y="-25" on="0"/>
        <pt x="514" y="-73" on="0"/>
        <pt x="514" y="-98" on="1"/>
        <pt x="514" y="-117" on="0"/>
        <pt x="539" y="-139" on="0"/>
        <pt x="561" y="-139" on="1"/>
        <pt x="570" y="-139" on="0"/>
        <pt x="590" y="-133" on="0"/>
        <pt x="597" y="-128" on="1"/>
        <pt x="618" y="-198" on="1"/>
        <pt x="601" y="-208" on="0"/>
        <pt x="555" y="-221" on="0"/>
        <pt x="531" y="-221" on="1"/>
        <pt x="482" y="-221" on="0"/>
        <pt x="423" y="-169" on="0"/>
        <pt x="423" y="-127" on="1"/>
        <pt x="423" y="-90" on="0"/>
        <pt x="465" y="-28" on="0"/>
        <pt x="510" y="0" on="1"/>
      </contour>
      <contour>
        <pt x="185" y="265" on="1"/>
        <pt x="185" y="208" on="0"/>
        <pt x="266" y="131" on="0"/>
        <pt x="324" y="131" on="1"/>
        <pt x="358" y="131" on="0"/>
        <pt x="414" y="152" on="0"/>
        <pt x="436" y="173" on="1"/>
        <pt x="436" y="358" on="1"/>
        <pt x="415" y="377" on="0"/>
        <pt x="357" y="399" on="0"/>
        <pt x="324" y="399" on="1"/>
        <pt x="265" y="399" on="0"/>
        <pt x="185" y="322" on="0"/>
      </contour>
    </TTGlyph>
    <TTGlyph name="aring" xMin="27" yMin="-9" xMax="525" yMax="836">
      <component glyphName="a" x="0" y="0" flags="0x204"/>
      <component glyphName="ring" x="20" y="0" flags="0x4"/>
    </TTGlyph>
    <TTGlyph name="aring.school" xMin="26" yMin="-7" xMax="598" yMax="836">
      <component glyphName="a.school" x="0" y="0" flags="0x204"/>
      <component glyphName="ring" x="65" y="0" flags="0x4"/>
    </TTGlyph>
    <TTGlyph name="asciicircum" xMin="28" yMin="350" xMax="532" yMax="700">
      <contour>
        <pt x="28" y="350" on="1"/>
        <pt x="211" y="700" on="1"/>
        <pt x="349" y="700" on="1"/>
        <pt x="532" y="350" on="1"/>
        <pt x="401" y="350" on="1"/>
        <pt x="280" y="583" on="1"/>
        <pt x="159" y="350" on="1"/>
      </contour>
    </TTGlyph>
    <TTGlyph name="asciitilde" xMin="22" yMin="269" xMax="596" yMax="471">
      <contour>
        <pt x="273" y="448" on="1"/>
        <pt x="365" y="405" on="1"/>
        <pt x="387" y="395" on="0"/>
        <pt x="414" y="387" on="0"/>
        <pt x="424" y="387" on="1"/>
        <pt x="450" y="387" on="0"/>
        <pt x="481" y="424" on="0"/>
        <pt x="485" y="461" on="1"/>
        <pt x="596" y="449" on="1"/>
        <pt x="586" y="362" on="0"/>
        <pt x="505" y="269" on="0"/>
        <pt x="442" y="269" on="1"/>
        <pt x="418" y="269" on="0"/>
        <pt x="367" y="281" on="0"/>
        <pt x="345" y="292" on="1"/>
        <pt x="253" y="335" on="1"/>
        <pt x="231" y="345" on="0"/>
        <pt x="204" y="353" on="0"/>
        <pt x="194" y="353" on="1"/>
        <pt x="168" y="353" on="0"/>
        <pt x="137" y="316" on="0"/>
        <pt x="133" y="279" on="1"/>
        <pt x="22" y="291" on="1"/>
        <pt x="32" y="378" on="0"/>
        <pt x="113" y="471" on="0"/>
        <pt x="176" y="471" on="1"/>
        <pt x="200" y="471" on="0"/>
        <pt x="251" y="459" on="0"/>
      </contour>
    </TTGlyph>
    <TTGlyph name="asterisk" xMin="38" yMin="306" xMax="451" yMax="700">
      <contour>
        <pt x="391" y="351" on="1"/>
        <pt x="294" y="412" on="1"/>
        <pt x="296" y="306" on="1"/>
        <pt x="193" y="306" on="1"/>
        <pt x="195" y="413" on="1"/>
        <pt x="96" y="351" on="1"/>
        <pt x="40" y="438" on="1"/>
        <pt x="149" y="501" on="1"/>
        <pt x="38" y="567" on="1"/>
        <pt x="95" y="652" on="1"/>
        <pt x="195" y="589" on="1"/>
        <pt x="193" y="700" on="1"/>
        <pt x="296" y="700" on="1"/>
        <pt x="294" y="589" on="1"/>
        <pt x="394" y="652" on="1"/>
        <pt x="451" y="567" on="1"/>
        <pt x="340" y="501" on="1"/>
        <pt x="449" y="438" on="1"/>
      </contour>
    </TTGlyph>
    <TTGlyph name="at" xMin="40" yMin="-144" xMax="754" yMax="583">
      <contour>
        <pt x="350" y="47" on="1"/>
        <pt x="289" y="47" on="0"/>
        <pt x="204" y="138" on="0"/>
        <pt x="204" y="203" on="1"/>
        <pt x="204" y="242" on="0"/>
        <pt x="232" y="310" on="0"/>
        <pt x="280" y="359" on="0"/>
        <pt x="346" y="388" on="0"/>
        <pt x="384" y="388" on="1"/>
        <pt x="409" y="388" on="0"/>
        <pt x="456" y="372" on="0"/>
        <pt x="474" y="357" on="1"/>
        <pt x="478" y="375" on="1"/>
        <pt x="581" y="375" on="1"/>
        <pt x="537" y="167" on="1"/>
        <pt x="532" y="144" on="0"/>
        <pt x="553" y="119" on="0"/>
        <pt x="576" y="119" on="1"/>
        <pt x="621" y="119" on="0"/>
        <pt x="677" y="204" on="0"/>
        <pt x="677" y="272" on="1"/>
        <pt x="677" y="325" on="0"/>
        <pt x="636" y="415" on="0"/>
        <pt x="566" y="481" on="0"/>
        <pt x="468" y="519" on="0"/>
        <pt x="411" y="519" on="1"/>
        <pt x="348" y="519" on="0"/>
        <pt x="240" y="472" on="0"/>
        <pt x="160" y="391" on="0"/>
        <pt x="115" y="279" on="0"/>
        <pt x="115" y="214" on="1"/>
        <pt x="115" y="150" on="0"/>
        <pt x="159" y="44" on="0"/>
        <pt x="236" y="-32" on="0"/>
        <pt x="346" y="-74" on="0"/>
        <pt x="412" y="-74" on="1"/>
        <pt x="458" y="-74" on="0"/>
        <pt x="539" y="-56" on="0"/>
        <pt x="575" y="-39" on="1"/>
        <pt x="603" y="-101" on="1"/>
        <pt x="555" y="-123" on="0"/>
        <pt x="462" y="-144" on="0"/>
        <pt x="413" y="-144" on="1"/>
        <pt x="332" y="-144" on="0"/>
        <pt x="195" y="-91" on="0"/>
        <pt x="96" y="2" on="0"/>
        <pt x="40" y="131" on="0"/>
        <pt x="40" y="207" on="1"/>
        <pt x="40" y="288" on="0"/>
        <pt x="97" y="426" on="0"/>
        <pt x="196" y="526" on="0"/>
        <pt x="334" y="583" on="0"/>
        <pt x="414" y="583" on="1"/>
        <pt x="485" y="583" on="0"/>
        <pt x="610" y="536" on="0"/>
        <pt x="701" y="454" on="0"/>
        <pt x="754" y="343" on="0"/>
        <pt x="754" y="279" on="1"/>
        <pt x="754" y="177" on="0"/>
        <pt x="645" y="46" on="0"/>
        <pt x="560" y="46" on="1"/>
        <pt x="523" y="46" on="0"/>
        <pt x="469" y="67" on="0"/>
        <pt x="454" y="87" on="1"/>
        <pt x="432" y="68" on="0"/>
        <pt x="378" y="47" on="0"/>
      </contour>
      <contour>
        <pt x="303" y="212" on="1"/>
        <pt x="303" y="177" on="0"/>
        <pt x="344" y="131" on="0"/>
        <pt x="375" y="131" on="1"/>
        <pt x="391" y="131" on="0"/>
        <pt x="422" y="142" on="0"/>
        <pt x="436" y="154" on="1"/>
        <pt x="436" y="161" on="0"/>
        <pt x="438" y="175" on="0"/>
        <pt x="439" y="182" on="1"/>
        <pt x="456" y="269" on="1"/>
        <pt x="445" y="285" on="0"/>
        <pt x="410" y="301" on="0"/>
        <pt x="388" y="301" on="1"/>
        <pt x="354" y="301" on="0"/>
        <pt x="303" y="249" on="0"/>
      </contour>
    </TTGlyph>
    <TTGlyph name="at.cap" xMin="40" yMin="-15" xMax="754" yMax="712">
      <component glyphName="at" x="0" y="129" flags="0x4"/>
    </TTGlyph>
    <TTGlyph name="atilde" xMin="27" yMin="-9" xMax="525" yMax="753">
      <component glyphName="a" x="0" y="0" flags="0x204"/>
      <component glyphName="tilde" x="20" y="0" flags="0x4"/>
    </TTGlyph>
    <TTGlyph name="atilde.school" xMin="26" yMin="-7" xMax="598" yMax="753">
      <component glyphName="a.school" x="0" y="0" flags="0x204"/>
      <component glyphName="tilde" x="65" y="0" flags="0x4"/>
    </TTGlyph>
    <TTGlyph name="b" xMin="50" yMin="-7" xMax="622" yMax="735">
      <contour>
        <pt x="622" y="264" on="1"/>
        <pt x="622" y="207" on="0"/>
        <pt x="579" y="108" on="0"/>
        <pt x="505" y="35" on="0"/>
        <pt x="404" y="-7" on="0"/>
        <pt x="347" y="-7" on="1"/>
        <pt x="310" y="-7" on="0"/>
        <pt x="240" y="12" on="0"/>
        <pt x="210" y="30" on="1"/>
        <pt x="210" y="0" on="1"/>
        <pt x="50" y="0" on="1"/>
        <pt x="50" y="700" on="1"/>
        <pt x="212" y="735" on="1"/>
        <pt x="212" y="492" on="1"/>
        <pt x="243" y="514" on="0"/>
        <pt x="314" y="536" on="0"/>
        <pt x="352" y="536" on="1"/>
        <pt x="408" y="536" on="0"/>
        <pt x="507" y="494" on="0"/>
        <pt x="580" y="420" on="0"/>
        <pt x="622" y="321" on="0"/>
      </contour>
      <contour>
        <pt x="324" y="398" on="1"/>
        <pt x="290" y="398" on="0"/>
        <pt x="234" y="377" on="0"/>
        <pt x="212" y="356" on="1"/>
        <pt x="212" y="171" on="1"/>
        <pt x="233" y="152" on="0"/>
        <pt x="291" y="130" on="0"/>
        <pt x="324" y="130" on="1"/>
        <pt x="383" y="130" on="0"/>
        <pt x="463" y="207" on="0"/>
        <pt x="463" y="264" on="1"/>
        <pt x="463" y="321" on="0"/>
        <pt x="382" y="398" on="0"/>
      </contour>
    </TTGlyph>
    <TTGlyph name="backslash" xMin="17" yMin="-211" xMax="612" yMax="700">
      <contour>
        <pt x="612" y="-211" on="1"/>
        <pt x="441" y="-211" on="1"/>
        <pt x="17" y="700" on="1"/>
        <pt x="188" y="700" on="1"/>
      </contour>
    </TTGlyph>
    <TTGlyph name="bar" xMin="97" yMin="-214" xMax="248" yMax="700">
      <contour>
        <pt x="97" y="-214" on="1"/>
        <pt x="97" y="700" on="1"/>
        <pt x="248" y="700" on="1"/>
        <pt x="248" y="-214" on="1"/>
      </contour>
    </TTGlyph>
    <TTGlyph name="braceleft" xMin="11" yMin="-220" xMax="408" yMax="710">
      <contour>
        <pt x="304" y="84" on="1"/>
        <pt x="272" y="-8" on="1"/>
        <pt x="259" y="-46" on="0"/>
        <pt x="287" y="-97" on="0"/>
        <pt x="323" y="-98" on="1"/>
        <pt x="339" y="-98" on="0"/>
        <pt x="371" y="-92" on="0"/>
        <pt x="386" y="-87" on="1"/>
        <pt x="408" y="-202" on="1"/>
        <pt x="381" y="-211" on="0"/>
        <pt x="329" y="-220" on="0"/>
        <pt x="301" y="-220" on="1"/>
        <pt x="249" y="-220" on="0"/>
        <pt x="170" y="-188" on="0"/>
        <pt x="124" y="-132" on="0"/>
        <pt x="114" y="-54" on="0"/>
        <pt x="130" y="-8" on="1"/>
        <pt x="161" y="80" on="1"/>
        <pt x="177" y="126" on="0"/>
        <pt x="141" y="186" on="0"/>
        <pt x="96" y="186" on="1"/>
        <pt x="11" y="186" on="1"/>
        <pt x="11" y="304" on="1"/>
        <pt x="96" y="304" on="1"/>
        <pt x="141" y="304" on="0"/>
        <pt x="177" y="364" on="0"/>
        <pt x="161" y="410" on="1"/>
        <pt x="130" y="498" on="1"/>
        <pt x="114" y="544" on="0"/>
        <pt x="124" y="622" on="0"/>
        <pt x="170" y="678" on="0"/>
        <pt x="249" y="710" on="0"/>
        <pt x="301" y="710" on="1"/>
        <pt x="329" y="710" on="0"/>
        <pt x="381" y="701" on="0"/>
        <pt x="408" y="692" on="1"/>
        <pt x="386" y="577" on="1"/>
        <pt x="371" y="582" on="0"/>
        <pt x="339" y="588" on="0"/>
        <pt x="323" y="588" on="1"/>
        <pt x="287" y="587" on="0"/>
        <pt x="259" y="536" on="0"/>
        <pt x="272" y="498" on="1"/>
        <pt x="304" y="406" on="1"/>
        <pt x="324" y="349" on="0"/>
        <pt x="264" y="258" on="0"/>
        <pt x="199" y="245" on="1"/>
        <pt x="264" y="232" on="0"/>
        <pt x="324" y="141" on="0"/>
      </contour>
    </TTGlyph>
    <TTGlyph name="braceright" xMin="40" yMin="-219" xMax="437" yMax="711">
      <contour>
        <pt x="144" y="407" on="1"/>
        <pt x="176" y="499" on="1"/>
        <pt x="189" y="537" on="0"/>
        <pt x="161" y="588" on="0"/>
        <pt x="125" y="589" on="1"/>
        <pt x="109" y="589" on="0"/>
        <pt x="77" y="583" on="0"/>
        <pt x="62" y="578" on="1"/>
        <pt x="40" y="693" on="1"/>
        <pt x="67" y="702" on="0"/>
        <pt x="119" y="711" on="0"/>
        <pt x="147" y="711" on="1"/>
        <pt x="199" y="711" on="0"/>
        <pt x="278" y="679" on="0"/>
        <pt x="324" y="623" on="0"/>
        <pt x="334" y="545" on="0"/>
        <pt x="318" y="499" on="1"/>
        <pt x="287" y="411" on="1"/>
        <pt x="271" y="365" on="0"/>
        <pt x="307" y="305" on="0"/>
        <pt x="352" y="305" on="1"/>
        <pt x="437" y="305" on="1"/>
        <pt x="437" y="187" on="1"/>
        <pt x="352" y="187" on="1"/>
        <pt x="307" y="187" on="0"/>
        <pt x="271" y="127" on="0"/>
        <pt x="287" y="81" on="1"/>
        <pt x="318" y="-7" on="1"/>
        <pt x="334" y="-53" on="0"/>
        <pt x="324" y="-131" on="0"/>
        <pt x="278" y="-187" on="0"/>
        <pt x="199" y="-219" on="0"/>
        <pt x="147" y="-219" on="1"/>
        <pt x="119" y="-219" on="0"/>
        <pt x="67" y="-210" on="0"/>
        <pt x="40" y="-201" on="1"/>
        <pt x="62" y="-86" on="1"/>
        <pt x="77" y="-91" on="0"/>
        <pt x="109" y="-97" on="0"/>
        <pt x="125" y="-97" on="1"/>
        <pt x="161" y="-96" on="0"/>
        <pt x="189" y="-45" on="0"/>
        <pt x="176" y="-7" on="1"/>
        <pt x="144" y="85" on="1"/>
        <pt x="124" y="142" on="0"/>
        <pt x="184" y="233" on="0"/>
        <pt x="249" y="246" on="1"/>
        <pt x="184" y="259" on="0"/>
        <pt x="124" y="350" on="0"/>
      </contour>
    </TTGlyph>
    <TTGlyph name="bracketleft" xMin="56" yMin="-215" xMax="374" yMax="700">
      <contour>
        <pt x="374" y="-215" on="1"/>
        <pt x="56" y="-215" on="1"/>
        <pt x="56" y="700" on="1"/>
        <pt x="374" y="700" on="1"/>
        <pt x="374" y="574" on="1"/>
        <pt x="209" y="574" on="1"/>
        <pt x="209" y="-89" on="1"/>
        <pt x="374" y="-89" on="1"/>
      </contour>
    </TTGlyph>
    <TTGlyph name="bracketright" xMin="38" yMin="-215" xMax="356" yMax="700">
      <contour>
        <pt x="38" y="700" on="1"/>
        <pt x="356" y="700" on="1"/>
        <pt x="356" y="-215" on="1"/>
        <pt x="38" y="-215" on="1"/>
        <pt x="38" y="-89" on="1"/>
        <pt x="203" y="-89" on="1"/>
        <pt x="203" y="574" on="1"/>
        <pt x="38" y="574" on="1"/>
      </contour>
    </TTGlyph>
    <TTGlyph name="breve" xMin="74" yMin="603" xMax="442" yMax="768">
      <contour>
        <pt x="258" y="692" on="1"/>
        <pt x="289" y="692" on="0"/>
        <pt x="333" y="730" on="0"/>
        <pt x="345" y="768" on="1"/>
        <pt x="442" y="743" on="1"/>
        <pt x="425" y="676" on="0"/>
        <pt x="329" y="603" on="0"/>
        <pt x="258" y="603" on="1"/>
        <pt x="187" y="603" on="0"/>
        <pt x="91" y="676" on="0"/>
        <pt x="74" y="743" on="1"/>
        <pt x="171" y="768" on="1"/>
        <pt x="184" y="729" on="0"/>
        <pt x="227" y="692" on="0"/>
      </contour>
    </TTGlyph>
    <TTGlyph name="bullet" xMin="59" yMin="202" xMax="307" yMax="445">
      <contour>
        <pt x="183" y="202" on="1"/>
        <pt x="132" y="202" on="0"/>
        <pt x="59" y="272" on="0"/>
        <pt x="59" y="323" on="1"/>
        <pt x="59" y="374" on="0"/>
        <pt x="131" y="445" on="0"/>
        <pt x="183" y="445" on="1"/>
        <pt x="235" y="445" on="0"/>
        <pt x="307" y="374" on="0"/>
        <pt x="307" y="323" on="1"/>
        <pt x="307" y="272" on="0"/>
        <pt x="234" y="202" on="0"/>
      </contour>
    </TTGlyph>
    <TTGlyph name="c" xMin="26" yMin="-10" xMax="530" yMax="539">
      <contour>
        <pt x="314" y="130" on="1"/>
        <pt x="347" y="130" on="0"/>
        <pt x="403" y="158" on="0"/>
        <pt x="429" y="187" on="1"/>
        <pt x="525" y="87" on="1"/>
        <pt x="485" y="41" on="0"/>
        <pt x="369" y="-10" on="0"/>
        <pt x="306" y="-10" on="1"/>
        <pt x="247" y="-10" on="0"/>
        <pt x="144" y="32" on="0"/>
        <pt x="69" y="106" on="0"/>
        <pt x="26" y="206" on="0"/>
        <pt x="26" y="264" on="1"/>
        <pt x="26" y="322" on="0"/>
        <pt x="69" y="423" on="0"/>
        <pt x="144" y="496" on="0"/>
        <pt x="247" y="539" on="0"/>
        <pt x="306" y="539" on="1"/>
        <pt x="371" y="539" on="0"/>
        <pt x="489" y="487" on="0"/>
        <pt x="530" y="441" on="1"/>
        <pt x="431" y="338" on="1"/>
        <pt x="403" y="369" on="0"/>
        <pt x="345" y="399" on="0"/>
        <pt x="310" y="399" on="1"/>
        <pt x="258" y="399" on="0"/>
        <pt x="187" y="321" on="0"/>
        <pt x="187" y="264" on="1"/>
        <pt x="187" y="207" on="0"/>
        <pt x="260" y="130" on="0"/>
      </contour>
    </TTGlyph>
    <TTGlyph name="cacute" xMin="26" yMin="-10" xMax="530" yMax="747">
      <component glyphName="c" x="0" y="0" flags="0x204"/>
      <component glyphName="acute" x="79" y="0" flags="0x4"/>
    </TTGlyph>
    <TTGlyph name="caron" xMin="58" yMin="609" xMax="460" yMax="750">
      <contour>
        <pt x="191" y="750" on="1"/>
        <pt x="261" y="679" on="1"/>
        <pt x="331" y="750" on="1"/>
        <pt x="460" y="750" on="1"/>
        <pt x="341" y="609" on="1"/>
        <pt x="177" y="609" on="1"/>
        <pt x="58" y="750" on="1"/>
      </contour>
    </TTGlyph>
    <TTGlyph name="caronSlovak" xMin="73" yMin="466" xMax="238" yMax="723">
      <contour>
        <pt x="83" y="723" on="1"/>
        <pt x="238" y="723" on="1"/>
        <pt x="179" y="466" on="1"/>
        <pt x="73" y="466" on="1"/>
      </contour>
    </TTGlyph>
    <TTGlyph name="ccaron" xMin="26" yMin="-10" xMax="530" yMax="750">
      <component glyphName="c" x="0" y="0" flags="0x204"/>
      <component glyphName="caron" x="44" y="0" flags="0x4"/>
    </TTGlyph>
    <TTGlyph name="ccedilla" xMin="26" yMin="-239" xMax="530" yMax="539">
      <contour>
        <pt x="314" y="130" on="1"/>
        <pt x="347" y="130" on="0"/>
        <pt x="403" y="158" on="0"/>
        <pt x="429" y="187" on="1"/>
        <pt x="525" y="87" on="1"/>
        <pt x="491" y="48" on="0"/>
        <pt x="395" y="-1" on="0"/>
        <pt x="342" y="-8" on="1"/>
        <pt x="331" y="-42" on="1"/>
        <pt x="375" y="-46" on="0"/>
        <pt x="426" y="-96" on="0"/>
        <pt x="426" y="-134" on="1"/>
        <pt x="426" y="-178" on="0"/>
        <pt x="346" y="-239" on="0"/>
        <pt x="287" y="-239" on="1"/>
        <pt x="248" y="-239" on="0"/>
        <pt x="184" y="-216" on="0"/>
        <pt x="157" y="-192" on="1"/>
        <pt x="208" y="-138" on="1"/>
        <pt x="226" y="-151" on="0"/>
        <pt x="265" y="-166" on="0"/>
        <pt x="284" y="-166" on="1"/>
        <pt x="309" y="-166" on="0"/>
        <pt x="335" y="-148" on="0"/>
        <pt x="335" y="-132" on="1"/>
        <pt x="335" y="-117" on="0"/>
        <pt x="308" y="-99" on="0"/>
        <pt x="286" y="-99" on="1"/>
        <pt x="239" y="-99" on="1"/>
        <pt x="266" y="-7" on="1"/>
        <pt x="215" y="0" on="0"/>
        <pt x="126" y="46" on="0"/>
        <pt x="62" y="118" on="0"/>
        <pt x="26" y="211" on="0"/>
        <pt x="26" y="264" on="1"/>
        <pt x="26" y="322" on="0"/>
        <pt x="69" y="423" on="0"/>
        <pt x="144" y="496" on="0"/>
        <pt x="247" y="539" on="0"/>
        <pt x="306" y="539" on="1"/>
        <pt x="371" y="539" on="0"/>
        <pt x="489" y="487" on="0"/>
        <pt x="530" y="441" on="1"/>
        <pt x="431" y="338" on="1"/>
        <pt x="403" y="369" on="0"/>
        <pt x="345" y="399" on="0"/>
        <pt x="310" y="399" on="1"/>
        <pt x="258" y="399" on="0"/>
        <pt x="187" y="321" on="0"/>
        <pt x="187" y="264" on="1"/>
        <pt x="187" y="207" on="0"/>
        <pt x="260" y="130" on="0"/>
      </contour>
    </TTGlyph>
    <TTGlyph name="ccircumflex" xMin="26" yMin="-10" xMax="530" yMax="750">
      <component glyphName="c" x="0" y="0" flags="0x204"/>
      <component glyphName="circumflex" x="46" y="0" flags="0x4"/>
    </TTGlyph>
    <TTGlyph name="cdotaccent" xMin="26" yMin="-10" xMax="530" yMax="766">
      <component glyphName="c" x="0" y="0" flags="0x204"/>
      <component glyphName="dotaccent" x="154" y="0" flags="0x4"/>
    </TTGlyph>
    <TTGlyph name="cedilla" xMin="138" yMin="-239" xMax="407" yMax="0">
      <contour>
        <pt x="407" y="-134" on="1"/>
        <pt x="407" y="-178" on="0"/>
        <pt x="327" y="-239" on="0"/>
        <pt x="268" y="-239" on="1"/>
        <pt x="229" y="-239" on="0"/>
        <pt x="165" y="-216" on="0"/>
        <pt x="138" y="-192" on="1"/>
        <pt x="189" y="-138" on="1"/>
        <pt x="207" y="-151" on="0"/>
        <pt x="246" y="-166" on="0"/>
        <pt x="265" y="-166" on="1"/>
        <pt x="290" y="-166" on="0"/>
        <pt x="316" y="-148" on="0"/>
        <pt x="316" y="-132" on="1"/>
        <pt x="316" y="-117" on="0"/>
        <pt x="289" y="-99" on="0"/>
        <pt x="267" y="-99" on="1"/>
        <pt x="220" y="-99" on="1"/>
        <pt x="249" y="0" on="1"/>
        <pt x="325" y="0" on="1"/>
        <pt x="312" y="-42" on="1"/>
        <pt x="356" y="-46" on="0"/>
        <pt x="407" y="-96" on="0"/>
      </contour>
    </TTGlyph>
    <TTGlyph name="cent" xMin="26" yMin="-110" xMax="530" yMax="625">
      <contour>
        <pt x="276" y="-110" on="1"/>
        <pt x="276" y="-9" on="1"/>
        <pt x="223" y="-4" on="0"/>
        <pt x="131" y="42" on="0"/>
        <pt x="64" y="114" on="0"/>
        <pt x="26" y="210" on="0"/>
        <pt x="26" y="264" on="1"/>
        <pt x="26" y="318" on="0"/>
        <pt x="64" y="414" on="0"/>
        <pt x="131" y="486" on="0"/>
        <pt x="223" y="532" on="0"/>
        <pt x="276" y="538" on="1"/>
        <pt x="276" y="625" on="1"/>
        <pt x="342" y="625" on="1"/>
        <pt x="342" y="537" on="1"/>
        <pt x="396" y="530" on="0"/>
        <pt x="495" y="481" on="0"/>
        <pt x="530" y="441" on="1"/>
        <pt x="431" y="338" on="1"/>
        <pt x="410" y="362" on="0"/>
        <pt x="367" y="391" on="0"/>
        <pt x="342" y="396" on="1"/>
        <pt x="342" y="133" on="1"/>
        <pt x="366" y="137" on="0"/>
        <pt x="409" y="165" on="0"/>
        <pt x="429" y="187" on="1"/>
        <pt x="525" y="87" on="1"/>
        <pt x="491" y="48" on="0"/>
        <pt x="395" y="-1" on="0"/>
        <pt x="342" y="-8" on="1"/>
        <pt x="342" y="-110" on="1"/>
      </contour>
      <contour>
        <pt x="187" y="264" on="1"/>
        <pt x="187" y="217" on="0"/>
        <pt x="236" y="148" on="0"/>
        <pt x="276" y="136" on="1"/>
        <pt x="276" y="394" on="1"/>
        <pt x="237" y="383" on="0"/>
        <pt x="187" y="312" on="0"/>
      </contour>
    </TTGlyph>
    <TTGlyph name="circumflex" xMin="58" yMin="609" xMax="460" yMax="750">
      <contour>
        <pt x="327" y="609" on="1"/>
        <pt x="257" y="680" on="1"/>
        <pt x="187" y="609" on="1"/>
        <pt x="58" y="609" on="1"/>
        <pt x="177" y="750" on="1"/>
        <pt x="341" y="750" on="1"/>
        <pt x="460" y="609" on="1"/>
      </contour>
    </TTGlyph>
    <TTGlyph name="colon" xMin="36" yMin="-11" xMax="222" yMax="538">
      <component glyphName="period" x="0" y="0" flags="0x204"/>
      <component glyphName="period" x="0" y="363" flags="0x4"/>
    </TTGlyph>
    <TTGlyph name="comma" xMin="-10" yMin="-157" xMax="230" yMax="127">
      <contour>
        <pt x="63" y="127" on="1"/>
        <pt x="230" y="127" on="1"/>
        <pt x="111" y="-157" on="1"/>
        <pt x="-10" y="-157" on="1"/>
      </contour>
    </TTGlyph>
    <TTGlyph name="commaaccent" xMin="11" yMin="-295" xMax="217" yMax="-80">
      <contour>
        <pt x="66" y="-80" on="1"/>
        <pt x="217" y="-80" on="1"/>
        <pt x="128" y="-295" on="1"/>
        <pt x="11" y="-295" on="1"/>
      </contour>
    </TTGlyph>
    <TTGlyph name="copyright" xMin="33" yMin="-11" xMax="749" yMax="711">
      <contour>
        <pt x="33" y="350" on="1"/>
        <pt x="33" y="425" on="0"/>
        <pt x="89" y="558" on="0"/>
        <pt x="185" y="655" on="0"/>
        <pt x="316" y="711" on="0"/>
        <pt x="391" y="711" on="1"/>
        <pt x="466" y="711" on="0"/>
        <pt x="597" y="655" on="0"/>
        <pt x="693" y="558" on="0"/>
        <pt x="749" y="425" on="0"/>
        <pt x="749" y="350" on="1"/>
        <pt x="749" y="275" on="0"/>
        <pt x="693" y="142" on="0"/>
        <pt x="597" y="45" on="0"/>
        <pt x="466" y="-11" on="0"/>
        <pt x="391" y="-11" on="1"/>
        <pt x="316" y="-11" on="0"/>
        <pt x="185" y="45" on="0"/>
        <pt x="89" y="142" on="0"/>
        <pt x="33" y="275" on="0"/>
      </contour>
      <contour>
        <pt x="678" y="350" on="1"/>
        <pt x="678" y="411" on="0"/>
        <pt x="633" y="518" on="0"/>
        <pt x="555" y="598" on="0"/>
        <pt x="450" y="644" on="0"/>
        <pt x="391" y="644" on="1"/>
        <pt x="332" y="644" on="0"/>
        <pt x="227" y="598" on="0"/>
        <pt x="150" y="518" on="0"/>
        <pt x="105" y="411" on="0"/>
        <pt x="105" y="350" on="1"/>
        <pt x="105" y="289" on="0"/>
        <pt x="150" y="182" on="0"/>
        <pt x="227" y="102" on="0"/>
        <pt x="332" y="56" on="0"/>
        <pt x="391" y="56" on="1"/>
        <pt x="450" y="56" on="0"/>
        <pt x="555" y="102" on="0"/>
        <pt x="633" y="182" on="0"/>
        <pt x="678" y="289" on="0"/>
      </contour>
      <contour>
        <pt x="203" y="351" on="1"/>
        <pt x="203" y="391" on="0"/>
        <pt x="233" y="461" on="0"/>
        <pt x="285" y="513" on="0"/>
        <pt x="357" y="542" on="0"/>
        <pt x="398" y="542" on="1"/>
        <pt x="443" y="542" on="0"/>
        <pt x="525" y="506" on="0"/>
        <pt x="553" y="474" on="1"/>
        <pt x="485" y="403" on="1"/>
        <pt x="465" y="425" on="0"/>
        <pt x="426" y="445" on="0"/>
        <pt x="401" y="445" on="1"/>
        <pt x="364" y="445" on="0"/>
        <pt x="315" y="391" on="0"/>
        <pt x="315" y="351" on="1"/>
        <pt x="315" y="311" on="0"/>
        <pt x="366" y="258" on="0"/>
        <pt x="403" y="258" on="1"/>
        <pt x="426" y="258" on="0"/>
        <pt x="465" y="278" on="0"/>
        <pt x="483" y="298" on="1"/>
        <pt x="550" y="228" on="1"/>
        <pt x="521" y="196" on="0"/>
        <pt x="441" y="161" on="0"/>
        <pt x="398" y="161" on="1"/>
        <pt x="357" y="161" on="0"/>
        <pt x="285" y="190" on="0"/>
        <pt x="233" y="241" on="0"/>
        <pt x="203" y="311" on="0"/>
      </contour>
    </TTGlyph>
    <TTGlyph name="cordinal" xMin="26" yMin="294" xMax="407" yMax="708">
      <contour>
        <pt x="244" y="403" on="1"/>
        <pt x="268" y="403" on="0"/>
        <pt x="309" y="424" on="0"/>
        <pt x="328" y="446" on="1"/>
        <pt x="403" y="368" on="1"/>
        <pt x="373" y="333" on="0"/>
        <pt x="286" y="294" on="0"/>
        <pt x="238" y="294" on="1"/>
        <pt x="193" y="294" on="0"/>
        <pt x="115" y="326" on="0"/>
        <pt x="59" y="381" on="0"/>
        <pt x="26" y="457" on="0"/>
        <pt x="26" y="500" on="1"/>
        <pt x="26" y="544" on="0"/>
        <pt x="59" y="620" on="0"/>
        <pt x="115" y="676" on="0"/>
        <pt x="193" y="708" on="0"/>
        <pt x="238" y="708" on="1"/>
        <pt x="287" y="708" on="0"/>
        <pt x="376" y="668" on="0"/>
        <pt x="407" y="633" on="1"/>
        <pt x="330" y="553" on="1"/>
        <pt x="309" y="577" on="0"/>
        <pt x="266" y="598" on="0"/>
        <pt x="241" y="598" on="1"/>
        <pt x="203" y="598" on="0"/>
        <pt x="152" y="542" on="0"/>
        <pt x="152" y="500" on="1"/>
        <pt x="152" y="459" on="0"/>
        <pt x="204" y="403" on="0"/>
      </contour>
    </TTGlyph>
    <TTGlyph name="d" xMin="26" yMin="-7" xMax="598" yMax="735">
      <contour>
        <pt x="438" y="0" on="1"/>
        <pt x="438" y="39" on="1"/>
        <pt x="407" y="17" on="0"/>
        <pt x="335" y="-7" on="0"/>
        <pt x="296" y="-7" on="1"/>
        <pt x="240" y="-7" on="0"/>
        <pt x="141" y="35" on="0"/>
        <pt x="68" y="109" on="0"/>
        <pt x="26" y="208" on="0"/>
        <pt x="26" y="265" on="1"/>
        <pt x="26" y="322" on="0"/>
        <pt x="69" y="421" on="0"/>
        <pt x="143" y="494" on="0"/>
        <pt x="244" y="536" on="0"/>
        <pt x="301" y="536" on="1"/>
        <pt x="338" y="536" on="0"/>
        <pt x="406" y="518" on="0"/>
        <pt x="436" y="501" on="1"/>
        <pt x="436" y="700" on="1"/>
        <pt x="598" y="735" on="1"/>
        <pt x="598" y="0" on="1"/>
      </contour>
      <contour>
        <pt x="185" y="265" on="1"/>
        <pt x="185" y="208" on="0"/>
        <pt x="266" y="131" on="0"/>
        <pt x="324" y="131" on="1"/>
        <pt x="358" y="131" on="0"/>
        <pt x="414" y="152" on="0"/>
        <pt x="436" y="173" on="1"/>
        <pt x="436" y="358" on="1"/>
        <pt x="415" y="377" on="0"/>
        <pt x="357" y="399" on="0"/>
        <pt x="324" y="399" on="1"/>
        <pt x="265" y="399" on="0"/>
        <pt x="185" y="322" on="0"/>
      </contour>
    </TTGlyph>
    <TTGlyph name="dagger" xMin="47" yMin="0" xMax="413" yMax="700">
      <contour>
        <pt x="166" y="0" on="1"/>
        <pt x="166" y="402" on="1"/>
        <pt x="47" y="402" on="1"/>
        <pt x="47" y="526" on="1"/>
        <pt x="166" y="526" on="1"/>
        <pt x="166" y="700" on="1"/>
        <pt x="295" y="700" on="1"/>
        <pt x="295" y="526" on="1"/>
        <pt x="413" y="526" on="1"/>
        <pt x="413" y="402" on="1"/>
        <pt x="295" y="402" on="1"/>
        <pt x="295" y="0" on="1"/>
      </contour>
    </TTGlyph>
    <TTGlyph name="daggerdbl" xMin="47" yMin="0" xMax="413" yMax="700">
      <contour>
        <pt x="166" y="0" on="1"/>
        <pt x="166" y="174" on="1"/>
        <pt x="47" y="174" on="1"/>
        <pt x="47" y="298" on="1"/>
        <pt x="166" y="298" on="1"/>
        <pt x="166" y="402" on="1"/>
        <pt x="47" y="402" on="1"/>
        <pt x="47" y="526" on="1"/>
        <pt x="166" y="526" on="1"/>
        <pt x="166" y="700" on="1"/>
        <pt x="295" y="700" on="1"/>
        <pt x="295" y="526" on="1"/>
        <pt x="413" y="526" on="1"/>
        <pt x="413" y="402" on="1"/>
        <pt x="295" y="402" on="1"/>
        <pt x="295" y="298" on="1"/>
        <pt x="413" y="298" on="1"/>
        <pt x="413" y="174" on="1"/>
        <pt x="295" y="174" on="1"/>
        <pt x="295" y="0" on="1"/>
      </contour>
    </TTGlyph>
    <TTGlyph name="dcaron" xMin="26" yMin="-7" xMax="833" yMax="735">
      <component glyphName="d" x="0" y="0" flags="0x4"/>
      <component glyphName="caronSlovak" x="595" y="0" flags="0x4"/>
    </TTGlyph>
    <TTGlyph name="dcroat" xMin="26" yMin="-7" xMax="651" yMax="735">
      <contour>
        <pt x="438" y="0" on="1"/>
        <pt x="438" y="39" on="1"/>
        <pt x="407" y="17" on="0"/>
        <pt x="335" y="-7" on="0"/>
        <pt x="296" y="-7" on="1"/>
        <pt x="240" y="-7" on="0"/>
        <pt x="141" y="35" on="0"/>
        <pt x="68" y="109" on="0"/>
        <pt x="26" y="208" on="0"/>
        <pt x="26" y="265" on="1"/>
        <pt x="26" y="322" on="0"/>
        <pt x="69" y="421" on="0"/>
        <pt x="143" y="494" on="0"/>
        <pt x="244" y="536" on="0"/>
        <pt x="301" y="536" on="1"/>
        <pt x="338" y="536" on="0"/>
        <pt x="406" y="518" on="0"/>
        <pt x="436" y="501" on="1"/>
        <pt x="436" y="576" on="1"/>
        <pt x="306" y="576" on="1"/>
        <pt x="306" y="671" on="1"/>
        <pt x="436" y="671" on="1"/>
        <pt x="436" y="700" on="1"/>
        <pt x="598" y="735" on="1"/>
        <pt x="598" y="671" on="1"/>
        <pt x="651" y="671" on="1"/>
        <pt x="651" y="576" on="1"/>
        <pt x="598" y="576" on="1"/>
        <pt x="598" y="0" on="1"/>
      </contour>
      <contour>
        <pt x="185" y="265" on="1"/>
        <pt x="185" y="208" on="0"/>
        <pt x="266" y="131" on="0"/>
        <pt x="324" y="131" on="1"/>
        <pt x="358" y="131" on="0"/>
        <pt x="414" y="152" on="0"/>
        <pt x="436" y="173" on="1"/>
        <pt x="436" y="358" on="1"/>
        <pt x="415" y="377" on="0"/>
        <pt x="357" y="399" on="0"/>
        <pt x="324" y="399" on="1"/>
        <pt x="265" y="399" on="0"/>
        <pt x="185" y="322" on="0"/>
      </contour>
    </TTGlyph>
    <TTGlyph name="degree" xMin="38" yMin="416" xMax="331" yMax="710">
      <contour>
        <pt x="185" y="416" on="1"/>
        <pt x="124" y="416" on="0"/>
        <pt x="38" y="503" on="0"/>
        <pt x="38" y="565" on="1"/>
        <pt x="38" y="625" on="0"/>
        <pt x="124" y="710" on="0"/>
        <pt x="185" y="710" on="1"/>
        <pt x="245" y="710" on="0"/>
        <pt x="331" y="625" on="0"/>
        <pt x="331" y="565" on="1"/>
        <pt x="331" y="504" on="0"/>
        <pt x="245" y="416" on="0"/>
      </contour>
      <contour>
        <pt x="185" y="499" on="1"/>
        <pt x="210" y="499" on="0"/>
        <pt x="247" y="537" on="0"/>
        <pt x="247" y="565" on="1"/>
        <pt x="247" y="590" on="0"/>
        <pt x="210" y="627" on="0"/>
        <pt x="185" y="627" on="1"/>
        <pt x="159" y="627" on="0"/>
        <pt x="122" y="590" on="0"/>
        <pt x="122" y="565" on="1"/>
        <pt x="122" y="538" on="0"/>
        <pt x="159" y="499" on="0"/>
      </contour>
    </TTGlyph>
    <TTGlyph name="dieresis" xMin="101" yMin="602" xMax="507" yMax="766">
      <contour>
        <pt x="186" y="602" on="1"/>
        <pt x="150" y="602" on="0"/>
        <pt x="101" y="650" on="0"/>
        <pt x="101" y="684" on="1"/>
        <pt x="101" y="719" on="0"/>
        <pt x="149" y="766" on="0"/>
        <pt x="186" y="766" on="1"/>
        <pt x="223" y="766" on="0"/>
        <pt x="271" y="719" on="0"/>
        <pt x="271" y="684" on="1"/>
        <pt x="271" y="650" on="0"/>
        <pt x="222" y="602" on="0"/>
      </contour>
      <contour>
        <pt x="422" y="602" on="1"/>
        <pt x="386" y="602" on="0"/>
        <pt x="337" y="650" on="0"/>
        <pt x="337" y="684" on="1"/>
        <pt x="337" y="719" on="0"/>
        <pt x="385" y="766" on="0"/>
        <pt x="422" y="766" on="1"/>
        <pt x="459" y="766" on="0"/>
        <pt x="507" y="719" on="0"/>
        <pt x="507" y="684" on="1"/>
        <pt x="507" y="650" on="0"/>
        <pt x="458" y="602" on="0"/>
      </contour>
    </TTGlyph>
    <TTGlyph name="divide" xMin="43" yMin="32" xMax="517" yMax="686">
      <contour>
        <pt x="280" y="500" on="1"/>
        <pt x="242" y="500" on="0"/>
        <pt x="187" y="555" on="0"/>
        <pt x="187" y="593" on="1"/>
        <pt x="187" y="631" on="0"/>
        <pt x="242" y="686" on="0"/>
        <pt x="280" y="686" on="1"/>
        <pt x="318" y="686" on="0"/>
        <pt x="373" y="631" on="0"/>
        <pt x="373" y="593" on="1"/>
        <pt x="373" y="555" on="0"/>
        <pt x="318" y="500" on="0"/>
      </contour>
      <contour>
        <pt x="43" y="297" on="1"/>
        <pt x="43" y="421" on="1"/>
        <pt x="517" y="421" on="1"/>
        <pt x="517" y="297" on="1"/>
      </contour>
      <contour>
        <pt x="280" y="32" on="1"/>
        <pt x="242" y="32" on="0"/>
        <pt x="187" y="87" on="0"/>
        <pt x="187" y="125" on="1"/>
        <pt x="187" y="163" on="0"/>
        <pt x="242" y="218" on="0"/>
        <pt x="280" y="218" on="1"/>
        <pt x="318" y="218" on="0"/>
        <pt x="373" y="163" on="0"/>
        <pt x="373" y="125" on="1"/>
        <pt x="373" y="87" on="0"/>
        <pt x="318" y="32" on="0"/>
      </contour>
    </TTGlyph>
    <TTGlyph name="dollar" xMin="0" yMin="-75" xMax="590" yMax="759">
      <contour>
        <pt x="258" y="-75" on="1"/>
        <pt x="258" y="19" on="1"/>
        <pt x="183" y="25" on="0"/>
        <pt x="50" y="80" on="0"/>
        <pt x="0" y="125" on="1"/>
        <pt x="80" y="241" on="1"/>
        <pt x="118" y="207" on="0"/>
        <pt x="209" y="161" on="0"/>
        <pt x="258" y="153" on="1"/>
        <pt x="258" y="281" on="1"/>
        <pt x="196" y="293" on="1"/>
        <pt x="100" y="309" on="0"/>
        <pt x="14" y="396" on="0"/>
        <pt x="14" y="477" on="1"/>
        <pt x="14" y="571" on="0"/>
        <pt x="144" y="682" on="0"/>
        <pt x="258" y="686" on="1"/>
        <pt x="258" y="759" on="1"/>
        <pt x="331" y="759" on="1"/>
        <pt x="331" y="683" on="1"/>
        <pt x="393" y="677" on="0"/>
        <pt x="516" y="637" on="0"/>
        <pt x="569" y="606" on="1"/>
        <pt x="503" y="482" on="1"/>
        <pt x="456" y="507" on="0"/>
        <pt x="371" y="540" on="0"/>
        <pt x="331" y="547" on="1"/>
        <pt x="331" y="417" on="1"/>
        <pt x="392" y="407" on="1"/>
        <pt x="494" y="389" on="0"/>
        <pt x="590" y="304" on="0"/>
        <pt x="590" y="229" on="1"/>
        <pt x="590" y="136" on="0"/>
        <pt x="453" y="24" on="0"/>
        <pt x="331" y="18" on="1"/>
        <pt x="331" y="-75" on="1"/>
      </contour>
      <contour>
        <pt x="257" y="424" on="1"/>
        <pt x="258" y="424" on="1"/>
        <pt x="258" y="553" on="1"/>
        <pt x="215" y="551" on="0"/>
        <pt x="164" y="518" on="0"/>
        <pt x="164" y="490" on="1"/>
        <pt x="164" y="458" on="0"/>
        <pt x="200" y="432" on="0"/>
      </contour>
      <contour>
        <pt x="434" y="213" on="1"/>
        <pt x="434" y="244" on="0"/>
        <pt x="394" y="268" on="0"/>
        <pt x="331" y="276" on="1"/>
        <pt x="331" y="148" on="1"/>
        <pt x="378" y="151" on="0"/>
        <pt x="434" y="185" on="0"/>
      </contour>
    </TTGlyph>
    <TTGlyph name="dotaccent" xMin="65" yMin="602" xMax="235" yMax="766">
      <contour>
        <pt x="150" y="602" on="1"/>
        <pt x="114" y="602" on="0"/>
        <pt x="65" y="650" on="0"/>
        <pt x="65" y="684" on="1"/>
        <pt x="65" y="719" on="0"/>
        <pt x="113" y="766" on="0"/>
        <pt x="150" y="766" on="1"/>
        <pt x="187" y="766" on="0"/>
        <pt x="235" y="719" on="0"/>
        <pt x="235" y="684" on="1"/>
        <pt x="235" y="650" on="0"/>
        <pt x="186" y="602" on="0"/>
      </contour>
    </TTGlyph>
    <TTGlyph name="dotlessi" xMin="50" yMin="0" xMax="212" yMax="529">
      <contour>
        <pt x="212" y="529" on="1"/>
        <pt x="212" y="0" on="1"/>
        <pt x="50" y="0" on="1"/>
        <pt x="50" y="529" on="1"/>
      </contour>
    </TTGlyph>
    <TTGlyph name="dotlessj" xMin="-54" yMin="-218" xMax="212" yMax="529">
      <contour>
        <pt x="-54" y="-208" on="1"/>
        <pt x="-54" y="-86" on="1"/>
        <pt x="-42" y="-88" on="0"/>
        <pt x="-20" y="-90" on="0"/>
        <pt x="-6" y="-90" on="1"/>
        <pt x="22" y="-90" on="0"/>
        <pt x="50" y="-67" on="0"/>
        <pt x="50" y="-42" on="1"/>
        <pt x="50" y="529" on="1"/>
        <pt x="212" y="529" on="1"/>
        <pt x="212" y="-52" on="1"/>
        <pt x="212" y="-131" on="0"/>
        <pt x="115" y="-218" on="0"/>
        <pt x="28" y="-218" on="1"/>
        <pt x="7" y="-218" on="0"/>
        <pt x="-41" y="-212" on="0"/>
      </contour>
    </TTGlyph>
    <TTGlyph name="e" xMin="26" yMin="-10" xMax="569" yMax="538">
      <contour>
        <pt x="535" y="70" on="1"/>
        <pt x="485" y="28" on="0"/>
        <pt x="380" y="-10" on="0"/>
        <pt x="314" y="-10" on="1"/>
        <pt x="254" y="-10" on="0"/>
        <pt x="148" y="32" on="0"/>
        <pt x="71" y="106" on="0"/>
        <pt x="26" y="207" on="0"/>
        <pt x="26" y="264" on="1"/>
        <pt x="26" y="321" on="0"/>
        <pt x="69" y="422" on="0"/>
        <pt x="143" y="496" on="0"/>
        <pt x="244" y="538" on="0"/>
        <pt x="302" y="538" on="1"/>
        <pt x="360" y="538" on="0"/>
        <pt x="458" y="494" on="0"/>
        <pt x="529" y="418" on="0"/>
        <pt x="569" y="311" on="0"/>
        <pt x="569" y="249" on="1"/>
        <pt x="569" y="209" on="1"/>
        <pt x="192" y="209" on="1"/>
        <pt x="208" y="172" on="0"/>
        <pt x="276" y="125" on="0"/>
        <pt x="322" y="125" on="1"/>
        <pt x="355" y="125" on="0"/>
        <pt x="409" y="146" on="0"/>
        <pt x="428" y="165" on="1"/>
      </contour>
      <contour>
        <pt x="299" y="406" on="1"/>
        <pt x="259" y="406" on="0"/>
        <pt x="201" y="362" on="0"/>
        <pt x="189" y="322" on="1"/>
        <pt x="410" y="322" on="1"/>
        <pt x="397" y="360" on="0"/>
        <pt x="338" y="406" on="0"/>
      </contour>
    </TTGlyph>
    <TTGlyph name="eacute" xMin="26" yMin="-10" xMax="569" yMax="747">
      <component glyphName="e" x="0" y="0" flags="0x204"/>
      <component glyphName="acute" x="75" y="0" flags="0x4"/>
    </TTGlyph>
    <TTGlyph name="ebreve" xMin="26" yMin="-10" xMax="569" yMax="768">
      <component glyphName="e" x="0" y="0" flags="0x204"/>
      <component glyphName="breve" x="42" y="0" flags="0x4"/>
    </TTGlyph>
    <TTGlyph name="ecaron" xMin="26" yMin="-10" xMax="569" yMax="750">
      <component glyphName="e" x="0" y="0" flags="0x204"/>
      <component glyphName="caron" x="40" y="0" flags="0x4"/>
    </TTGlyph>
    <TTGlyph name="ecircumflex" xMin="26" yMin="-10" xMax="569" yMax="750">
      <component glyphName="e" x="0" y="0" flags="0x204"/>
      <component glyphName="circumflex" x="42" y="0" flags="0x4"/>
    </TTGlyph>
    <TTGlyph name="edieresis" xMin="26" yMin="-10" xMax="569" yMax="766">
      <component glyphName="e" x="0" y="0" flags="0x204"/>
      <component glyphName="dieresis" x="-4" y="0" flags="0x4"/>
    </TTGlyph>
    <TTGlyph name="edotaccent" xMin="26" yMin="-10" xMax="569" yMax="766">
      <component glyphName="e" x="0" y="0" flags="0x204"/>
      <component glyphName="dotaccent" x="150" y="0" flags="0x4"/>
    </TTGlyph>
    <TTGlyph name="egrave" xMin="26" yMin="-10" xMax="569" yMax="747">
      <component glyphName="e" x="0" y="0" flags="0x204"/>
      <component glyphName="grave" x="0" y="0" flags="0x4"/>
    </TTGlyph>
    <TTGlyph name="eight" xMin="33" yMin="-11" xMax="607" yMax="711">
      <contour>
        <pt x="320" y="-11" on="1"/>
        <pt x="257" y="-11" on="0"/>
        <pt x="150" y="20" on="0"/>
        <pt x="75" y="74" on="0"/>
        <pt x="33" y="152" on="0"/>
        <pt x="33" y="198" on="1"/>
        <pt x="33" y="249" on="0"/>
        <pt x="94" y="334" on="0"/>
        <pt x="143" y="357" on="1"/>
        <pt x="103" y="382" on="0"/>
        <pt x="54" y="461" on="0"/>
        <pt x="54" y="508" on="1"/>
        <pt x="54" y="551" on="0"/>
        <pt x="95" y="626" on="0"/>
        <pt x="165" y="680" on="0"/>
        <pt x="263" y="711" on="0"/>
        <pt x="319" y="711" on="1"/>
        <pt x="376" y="711" on="0"/>
        <pt x="474" y="680" on="0"/>
        <pt x="545" y="626" on="0"/>
        <pt x="586" y="551" on="0"/>
        <pt x="586" y="508" on="1"/>
        <pt x="586" y="461" on="0"/>
        <pt x="537" y="382" on="0"/>
        <pt x="497" y="357" on="1"/>
        <pt x="546" y="334" on="0"/>
        <pt x="607" y="249" on="0"/>
        <pt x="607" y="198" on="1"/>
        <pt x="607" y="152" on="0"/>
        <pt x="565" y="74" on="0"/>
        <pt x="490" y="20" on="0"/>
        <pt x="383" y="-11" on="0"/>
      </contour>
      <contour>
        <pt x="320" y="415" on="1"/>
        <pt x="366" y="415" on="0"/>
        <pt x="427" y="463" on="0"/>
        <pt x="427" y="497" on="1"/>
        <pt x="427" y="532" on="0"/>
        <pt x="366" y="579" on="0"/>
        <pt x="320" y="579" on="1"/>
        <pt x="274" y="579" on="0"/>
        <pt x="213" y="532" on="0"/>
        <pt x="213" y="497" on="1"/>
        <pt x="213" y="463" on="0"/>
        <pt x="274" y="415" on="0"/>
      </contour>
      <contour>
        <pt x="320" y="121" on="1"/>
        <pt x="374" y="121" on="0"/>
        <pt x="444" y="170" on="0"/>
        <pt x="444" y="208" on="1"/>
        <pt x="444" y="246" on="0"/>
        <pt x="374" y="295" on="0"/>
        <pt x="320" y="295" on="1"/>
        <pt x="266" y="295" on="0"/>
        <pt x="196" y="246" on="0"/>
        <pt x="196" y="208" on="1"/>
        <pt x="196" y="170" on="0"/>
        <pt x="266" y="121" on="0"/>
      </contour>
    </TTGlyph>
    <TTGlyph name="ellipsis" xMin="36" yMin="-11" xMax="706" yMax="175">
      <component glyphName="period" x="0" y="0" flags="0x4"/>
      <component glyphName="period" x="242" y="0" flags="0x4"/>
      <component glyphName="period" x="484" y="0" flags="0x4"/>
    </TTGlyph>
    <TTGlyph name="emacron" xMin="26" yMin="-10" xMax="569" yMax="728">
      <component glyphName="e" x="0" y="0" flags="0x204"/>
      <component glyphName="macron" x="42" y="0" flags="0x4"/>
    </TTGlyph>
    <TTGlyph name="emdash" xMin="38" yMin="219" xMax="675" yMax="354">
      <contour>
        <pt x="38" y="354" on="1"/>
        <pt x="675" y="354" on="1"/>
        <pt x="675" y="219" on="1"/>
        <pt x="38" y="219" on="1"/>
      </contour>
    </TTGlyph>
    <TTGlyph name="emdash.cap" xMin="38" yMin="284" xMax="675" yMax="419">
      <component glyphName="emdash" x="0" y="65" flags="0x4"/>
    </TTGlyph>
    <TTGlyph name="endash" xMin="38" yMin="219" xMax="525" yMax="354">
      <contour>
        <pt x="38" y="354" on="1"/>
        <pt x="525" y="354" on="1"/>
        <pt x="525" y="219" on="1"/>
        <pt x="38" y="219" on="1"/>
      </contour>
    </TTGlyph>
    <TTGlyph name="endash.cap" xMin="38" yMin="284" xMax="525" yMax="419">
      <component glyphName="endash" x="0" y="65" flags="0x4"/>
    </TTGlyph>
    <TTGlyph name="eng" xMin="50" yMin="-218" xMax="565" yMax="539">
      <contour>
        <pt x="50" y="0" on="1"/>
        <pt x="50" y="529" on="1"/>
        <pt x="212" y="529" on="1"/>
        <pt x="212" y="493" on="1"/>
        <pt x="241" y="515" on="0"/>
        <pt x="314" y="539" on="0"/>
        <pt x="354" y="539" on="1"/>
        <pt x="447" y="539" on="0"/>
        <pt x="565" y="419" on="0"/>
        <pt x="565" y="326" on="1"/>
        <pt x="565" y="-52" on="1"/>
        <pt x="565" y="-131" on="0"/>
        <pt x="468" y="-218" on="0"/>
        <pt x="381" y="-218" on="1"/>
        <pt x="360" y="-218" on="0"/>
        <pt x="312" y="-212" on="0"/>
        <pt x="299" y="-208" on="1"/>
        <pt x="299" y="-86" on="1"/>
        <pt x="311" y="-88" on="0"/>
        <pt x="333" y="-90" on="0"/>
        <pt x="347" y="-90" on="1"/>
        <pt x="375" y="-90" on="0"/>
        <pt x="403" y="-67" on="0"/>
        <pt x="403" y="-42" on="1"/>
        <pt x="403" y="304" on="1"/>
        <pt x="403" y="347" on="0"/>
        <pt x="350" y="400" on="0"/>
        <pt x="307" y="400" on="1"/>
        <pt x="276" y="400" on="0"/>
        <pt x="228" y="378" on="0"/>
        <pt x="212" y="358" on="1"/>
        <pt x="212" y="0" on="1"/>
      </contour>
    </TTGlyph>
    <TTGlyph name="eogonek" xMin="26" yMin="-221" xMax="569" yMax="538">
      <contour>
        <pt x="422" y="-198" on="1"/>
        <pt x="405" y="-208" on="0"/>
        <pt x="359" y="-221" on="0"/>
        <pt x="335" y="-221" on="1"/>
        <pt x="286" y="-221" on="0"/>
        <pt x="227" y="-169" on="0"/>
        <pt x="227" y="-127" on="1"/>
        <pt x="227" y="-93" on="0"/>
        <pt x="263" y="-36" on="0"/>
        <pt x="300" y="-10" on="1"/>
        <pt x="242" y="-7" on="0"/>
        <pt x="142" y="37" on="0"/>
        <pt x="68" y="110" on="0"/>
        <pt x="26" y="208" on="0"/>
        <pt x="26" y="264" on="1"/>
        <pt x="26" y="321" on="0"/>
        <pt x="69" y="422" on="0"/>
        <pt x="143" y="496" on="0"/>
        <pt x="244" y="538" on="0"/>
        <pt x="302" y="538" on="1"/>
        <pt x="360" y="538" on="0"/>
        <pt x="458" y="494" on="0"/>
        <pt x="529" y="418" on="0"/>
        <pt x="569" y="311" on="0"/>
        <pt x="569" y="249" on="1"/>
        <pt x="569" y="209" on="1"/>
        <pt x="192" y="209" on="1"/>
        <pt x="208" y="172" on="0"/>
        <pt x="276" y="125" on="0"/>
        <pt x="322" y="125" on="1"/>
        <pt x="355" y="125" on="0"/>
        <pt x="409" y="146" on="0"/>
        <pt x="428" y="165" on="1"/>
        <pt x="535" y="70" on="1"/>
        <pt x="503" y="43" on="0"/>
        <pt x="438" y="8" on="0"/>
        <pt x="401" y="0" on="1"/>
        <pt x="358" y="-25" on="0"/>
        <pt x="318" y="-73" on="0"/>
        <pt x="318" y="-98" on="1"/>
        <pt x="318" y="-117" on="0"/>
        <pt x="343" y="-139" on="0"/>
        <pt x="365" y="-139" on="1"/>
        <pt x="374" y="-139" on="0"/>
        <pt x="394" y="-133" on="0"/>
        <pt x="401" y="-128" on="1"/>
      </contour>
      <contour>
        <pt x="299" y="406" on="1"/>
        <pt x="259" y="406" on="0"/>
        <pt x="201" y="362" on="0"/>
        <pt x="189" y="322" on="1"/>
        <pt x="410" y="322" on="1"/>
        <pt x="397" y="360" on="0"/>
        <pt x="338" y="406" on="0"/>
      </contour>
    </TTGlyph>
    <TTGlyph name="equal" xMin="43" yMin="189" xMax="517" yMax="515">
      <component glyphName="minus" x="0" y="-108" flags="0x4"/>
      <component glyphName="minus" x="0" y="94" flags="0x4"/>
    </TTGlyph>
    <TTGlyph name="eth" xMin="26" yMin="-9" xMax="568" yMax="771">
      <contour>
        <pt x="237" y="506" on="1"/>
        <pt x="177" y="587" on="1"/>
        <pt x="237" y="626" on="1"/>
        <pt x="220" y="637" on="0"/>
        <pt x="184" y="657" on="0"/>
        <pt x="165" y="665" on="1"/>
        <pt x="251" y="771" on="1"/>
        <pt x="281" y="757" on="0"/>
        <pt x="336" y="724" on="0"/>
        <pt x="361" y="706" on="1"/>
        <pt x="454" y="766" on="1"/>
        <pt x="514" y="685" on="1"/>
        <pt x="439" y="637" on="1"/>
        <pt x="501" y="571" on="0"/>
        <pt x="568" y="409" on="0"/>
        <pt x="568" y="320" on="1"/>
        <pt x="568" y="169" on="0"/>
        <pt x="417" y="-9" on="0"/>
        <pt x="287" y="-9" on="1"/>
        <pt x="232" y="-9" on="0"/>
        <pt x="136" y="30" on="0"/>
        <pt x="66" y="99" on="0"/>
        <pt x="26" y="192" on="0"/>
        <pt x="26" y="246" on="1"/>
        <pt x="26" y="293" on="0"/>
        <pt x="65" y="378" on="0"/>
        <pt x="131" y="443" on="0"/>
        <pt x="218" y="481" on="0"/>
        <pt x="266" y="481" on="1"/>
        <pt x="303" y="481" on="0"/>
        <pt x="365" y="465" on="0"/>
        <pt x="390" y="449" on="1"/>
        <pt x="382" y="476" on="0"/>
        <pt x="344" y="532" on="0"/>
        <pt x="319" y="559" on="1"/>
      </contour>
      <contour>
        <pt x="292" y="132" on="1"/>
        <pt x="337" y="132" on="0"/>
        <pt x="400" y="196" on="0"/>
        <pt x="400" y="241" on="1"/>
        <pt x="400" y="285" on="0"/>
        <pt x="336" y="348" on="0"/>
        <pt x="292" y="348" on="1"/>
        <pt x="246" y="348" on="0"/>
        <pt x="182" y="285" on="0"/>
        <pt x="182" y="241" on="1"/>
        <pt x="182" y="196" on="0"/>
        <pt x="246" y="132" on="0"/>
      </contour>
    </TTGlyph>
    <TTGlyph name="exclam" xMin="36" yMin="-11" xMax="222" yMax="745">
      <contour>
        <pt x="67" y="216" on="1"/>
        <pt x="47" y="745" on="1"/>
        <pt x="211" y="745" on="1"/>
        <pt x="191" y="216" on="1"/>
      </contour>
      <contour>
        <pt x="129" y="-11" on="1"/>
        <pt x="91" y="-11" on="0"/>
        <pt x="36" y="44" on="0"/>
        <pt x="36" y="82" on="1"/>
        <pt x="36" y="120" on="0"/>
        <pt x="91" y="175" on="0"/>
        <pt x="129" y="175" on="1"/>
        <pt x="167" y="175" on="0"/>
        <pt x="222" y="120" on="0"/>
        <pt x="222" y="82" on="1"/>
        <pt x="222" y="44" on="0"/>
        <pt x="167" y="-11" on="0"/>
      </contour>
    </TTGlyph>
    <TTGlyph name="exclamdown" xMin="36" yMin="-44" xMax="222" yMax="712">
      <contour>
        <pt x="191" y="485" on="1"/>
        <pt x="211" y="-44" on="1"/>
        <pt x="47" y="-44" on="1"/>
        <pt x="67" y="485" on="1"/>
      </contour>
      <contour>
        <pt x="129" y="712" on="1"/>
        <pt x="167" y="712" on="0"/>
        <pt x="222" y="657" on="0"/>
        <pt x="222" y="619" on="1"/>
        <pt x="222" y="581" on="0"/>
        <pt x="167" y="526" on="0"/>
        <pt x="129" y="526" on="1"/>
        <pt x="91" y="526" on="0"/>
        <pt x="36" y="581" on="0"/>
        <pt x="36" y="619" on="1"/>
        <pt x="36" y="657" on="0"/>
        <pt x="91" y="712" on="0"/>
      </contour>
    </TTGlyph>
    <TTGlyph name="f" xMin="18" yMin="0" xMax="435" yMax="754">
      <contour>
        <pt x="18" y="529" on="1"/>
        <pt x="134" y="529" on="1"/>
        <pt x="134" y="561" on="1"/>
        <pt x="134" y="654" on="0"/>
        <pt x="245" y="754" on="0"/>
        <pt x="349" y="754" on="1"/>
        <pt x="370" y="754" on="0"/>
        <pt x="419" y="748" on="0"/>
        <pt x="435" y="744" on="1"/>
        <pt x="435" y="610" on="1"/>
        <pt x="416" y="614" on="0"/>
        <pt x="387" y="617" on="0"/>
        <pt x="371" y="617" on="1"/>
        <pt x="334" y="617" on="0"/>
        <pt x="296" y="588" on="0"/>
        <pt x="296" y="558" on="1"/>
        <pt x="296" y="529" on="1"/>
        <pt x="435" y="529" on="1"/>
        <pt x="435" y="394" on="1"/>
        <pt x="296" y="394" on="1"/>
        <pt x="296" y="0" on="1"/>
        <pt x="134" y="0" on="1"/>
        <pt x="134" y="394" on="1"/>
        <pt x="18" y="394" on="1"/>
      </contour>
    </TTGlyph>
    <TTGlyph name="fi" xMin="18" yMin="0" xMax="673" yMax="756">
      <component glyphName="f" x="0" y="0" flags="0x4"/>
      <component glyphName="i" x="453" y="0" flags="0x4"/>
    </TTGlyph>
    <TTGlyph name="five" xMin="25" yMin="-11" xMax="587" yMax="700">
      <contour>
        <pt x="62" y="324" on="1"/>
        <pt x="79" y="700" on="1"/>
        <pt x="547" y="700" on="1"/>
        <pt x="547" y="565" on="1"/>
        <pt x="210" y="565" on="1"/>
        <pt x="204" y="428" on="1"/>
        <pt x="234" y="438" on="0"/>
        <pt x="295" y="447" on="0"/>
        <pt x="329" y="447" on="1"/>
        <pt x="445" y="447" on="0"/>
        <pt x="587" y="328" on="0"/>
        <pt x="587" y="231" on="1"/>
        <pt x="587" y="177" on="0"/>
        <pt x="544" y="88" on="0"/>
        <pt x="466" y="24" on="0"/>
        <pt x="357" y="-11" on="0"/>
        <pt x="291" y="-11" on="1"/>
        <pt x="215" y="-11" on="0"/>
        <pt x="78" y="37" on="0"/>
        <pt x="25" y="83" on="1"/>
        <pt x="122" y="193" on="1"/>
        <pt x="167" y="156" on="0"/>
        <pt x="247" y="125" on="0"/>
        <pt x="296" y="125" on="1"/>
        <pt x="353" y="125" on="0"/>
        <pt x="421" y="179" on="0"/>
        <pt x="421" y="223" on="1"/>
        <pt x="421" y="266" on="0"/>
        <pt x="346" y="319" on="0"/>
        <pt x="288" y="319" on="1"/>
        <pt x="259" y="319" on="0"/>
        <pt x="197" y="305" on="0"/>
        <pt x="170" y="292" on="1"/>
      </contour>
    </TTGlyph>
    <TTGlyph name="fl" xMin="18" yMin="0" xMax="665" yMax="754">
      <component glyphName="f" x="0" y="0" flags="0x4"/>
      <component glyphName="l" x="453" y="0" flags="0x4"/>
    </TTGlyph>
    <TTGlyph name="four" xMin="27" yMin="0" xMax="670" yMax="700">
      <contour>
        <pt x="583" y="700" on="1"/>
        <pt x="583" y="290" on="1"/>
        <pt x="670" y="290" on="1"/>
        <pt x="670" y="155" on="1"/>
        <pt x="583" y="155" on="1"/>
        <pt x="583" y="0" on="1"/>
        <pt x="421" y="0" on="1"/>
        <pt x="421" y="155" on="1"/>
        <pt x="27" y="155" on="1"/>
        <pt x="27" y="286" on="1"/>
        <pt x="394" y="700" on="1"/>
      </contour>
      <contour>
        <pt x="212" y="290" on="1"/>
        <pt x="421" y="290" on="1"/>
        <pt x="421" y="525" on="1"/>
      </contour>
    </TTGlyph>
    <TTGlyph name="fraction" xMin="13" yMin="0" xMax="529" yMax="700">
      <contour>
        <pt x="131" y="0" on="1"/>
        <pt x="13" y="0" on="1"/>
        <pt x="410" y="700" on="1"/>
        <pt x="529" y="700" on="1"/>
      </contour>
    </TTGlyph>
    <TTGlyph name="g" xMin="26" yMin="-217" xMax="594" yMax="536">
      <contour>
        <pt x="295" y="-2" on="1"/>
        <pt x="239" y="-2" on="0"/>
        <pt x="140" y="40" on="0"/>
        <pt x="68" y="113" on="0"/>
        <pt x="26" y="212" on="0"/>
        <pt x="26" y="268" on="1"/>
        <pt x="26" y="324" on="0"/>
        <pt x="69" y="422" on="0"/>
        <pt x="143" y="494" on="0"/>
        <pt x="244" y="536" on="0"/>
        <pt x="301" y="536" on="1"/>
        <pt x="337" y="536" on="0"/>
        <pt x="405" y="518" on="0"/>
        <pt x="434" y="501" on="1"/>
        <pt x="434" y="529" on="1"/>
        <pt x="594" y="529" on="1"/>
        <pt x="594" y="5" on="1"/>
        <pt x="594" y="-102" on="0"/>
        <pt x="452" y="-217" on="0"/>
        <pt x="320" y="-217" on="1"/>
        <pt x="257" y="-217" on="0"/>
        <pt x="141" y="-193" on="0"/>
        <pt x="94" y="-171" on="1"/>
        <pt x="148" y="-45" on="1"/>
        <pt x="191" y="-65" on="0"/>
        <pt x="275" y="-85" on="0"/>
        <pt x="317" y="-85" on="1"/>
        <pt x="374" y="-85" on="0"/>
        <pt x="432" y="-39" on="0"/>
        <pt x="432" y="7" on="1"/>
        <pt x="432" y="40" on="1"/>
        <pt x="402" y="20" on="0"/>
        <pt x="332" y="-2" on="0"/>
      </contour>
      <contour>
        <pt x="185" y="268" on="1"/>
        <pt x="185" y="211" on="0"/>
        <pt x="265" y="134" on="0"/>
        <pt x="323" y="134" on="1"/>
        <pt x="356" y="134" on="0"/>
        <pt x="411" y="154" on="0"/>
        <pt x="432" y="173" on="1"/>
        <pt x="432" y="360" on="1"/>
        <pt x="411" y="378" on="0"/>
        <pt x="355" y="399" on="0"/>
        <pt x="324" y="399" on="1"/>
        <pt x="266" y="399" on="0"/>
        <pt x="185" y="323" on="0"/>
      </contour>
    </TTGlyph>
    <TTGlyph name="g.alt" xMin="17" yMin="-219" xMax="623" yMax="568">
      <contour>
        <pt x="53" y="339" on="1"/>
        <pt x="53" y="381" on="0"/>
        <pt x="91" y="454" on="0"/>
        <pt x="157" y="508" on="0"/>
        <pt x="247" y="539" on="0"/>
        <pt x="298" y="539" on="1"/>
        <pt x="344" y="539" on="0"/>
        <pt x="425" y="515" on="0"/>
        <pt x="457" y="493" on="1"/>
        <pt x="483" y="530" on="0"/>
        <pt x="548" y="568" on="0"/>
        <pt x="585" y="568" on="1"/>
        <pt x="596" y="568" on="0"/>
        <pt x="614" y="565" on="0"/>
        <pt x="621" y="562" on="1"/>
        <pt x="623" y="444" on="1"/>
        <pt x="616" y="445" on="0"/>
        <pt x="594" y="447" on="0"/>
        <pt x="583" y="447" on="1"/>
        <pt x="564" y="447" on="0"/>
        <pt x="529" y="442" on="0"/>
        <pt x="513" y="437" on="1"/>
        <pt x="527" y="415" on="0"/>
        <pt x="543" y="366" on="0"/>
        <pt x="543" y="339" on="1"/>
        <pt x="543" y="297" on="0"/>
        <pt x="506" y="225" on="0"/>
        <pt x="441" y="174" on="0"/>
        <pt x="351" y="144" on="0"/>
        <pt x="298" y="144" on="1"/>
        <pt x="285" y="144" on="0"/>
        <pt x="258" y="146" on="0"/>
        <pt x="245" y="148" on="1"/>
        <pt x="233" y="144" on="0"/>
        <pt x="220" y="131" on="0"/>
        <pt x="220" y="122" on="1"/>
        <pt x="220" y="108" on="0"/>
        <pt x="246" y="93" on="0"/>
        <pt x="273" y="92" on="1"/>
        <pt x="445" y="89" on="1"/>
        <pt x="525" y="88" on="0"/>
        <pt x="617" y="19" on="0"/>
        <pt x="617" y="-38" on="1"/>
        <pt x="617" y="-79" on="0"/>
        <pt x="571" y="-147" on="0"/>
        <pt x="485" y="-194" on="0"/>
        <pt x="363" y="-219" on="0"/>
        <pt x="288" y="-219" on="1"/>
        <pt x="155" y="-219" on="0"/>
        <pt x="17" y="-156" on="0"/>
        <pt x="17" y="-96" on="1"/>
        <pt x="17" y="-64" on="0"/>
        <pt x="71" y="-13" on="0"/>
        <pt x="115" y="0" on="1"/>
        <pt x="99" y="14" on="0"/>
        <pt x="82" y="52" on="0"/>
        <pt x="82" y="74" on="1"/>
        <pt x="82" y="108" on="0"/>
        <pt x="123" y="161" on="0"/>
        <pt x="159" y="176" on="1"/>
        <pt x="110" y="202" on="0"/>
        <pt x="53" y="288" on="0"/>
      </contour>
      <contour>
        <pt x="392" y="339" on="1"/>
        <pt x="392" y="373" on="0"/>
        <pt x="338" y="421" on="0"/>
        <pt x="298" y="421" on="1"/>
        <pt x="258" y="421" on="0"/>
        <pt x="204" y="374" on="0"/>
        <pt x="204" y="339" on="1"/>
        <pt x="204" y="303" on="0"/>
        <pt x="258" y="256" on="0"/>
        <pt x="298" y="256" on="1"/>
        <pt x="338" y="256" on="0"/>
        <pt x="392" y="304" on="0"/>
      </contour>
      <contour>
        <pt x="162" y="-75" on="1"/>
        <pt x="162" y="-99" on="0"/>
        <pt x="223" y="-121" on="0"/>
        <pt x="288" y="-121" on="1"/>
        <pt x="366" y="-121" on="0"/>
        <pt x="455" y="-94" on="0"/>
        <pt x="455" y="-71" on="1"/>
        <pt x="455" y="-60" on="0"/>
        <pt x="437" y="-47" on="0"/>
        <pt x="420" y="-47" on="1"/>
        <pt x="276" y="-45" on="1"/>
        <pt x="256" y="-45" on="0"/>
        <pt x="219" y="-41" on="0"/>
        <pt x="203" y="-38" on="1"/>
        <pt x="184" y="-42" on="0"/>
        <pt x="162" y="-62" on="0"/>
      </contour>
    </TTGlyph>
    <TTGlyph name="gbreve" xMin="26" yMin="-217" xMax="594" yMax="768">
      <component glyphName="g" x="0" y="0" flags="0x204"/>
      <component glyphName="breve" x="62" y="0" flags="0x4"/>
    </TTGlyph>
    <TTGlyph name="gbreve.alt" xMin="17" yMin="-219" xMax="623" yMax="768">
      <component glyphName="g.alt" x="0" y="0" flags="0x204"/>
      <component glyphName="breve" x="40" y="0" flags="0x4"/>
    </TTGlyph>
    <TTGlyph name="gcircumflex" xMin="26" yMin="-217" xMax="594" yMax="750">
      <component glyphName="g" x="0" y="0" flags="0x204"/>
      <component glyphName="circumflex" x="62" y="0" flags="0x4"/>
    </TTGlyph>
    <TTGlyph name="gcircumflex.alt" xMin="17" yMin="-219" xMax="623" yMax="750">
      <component glyphName="g.alt" x="0" y="0" flags="0x204"/>
      <component glyphName="circumflex" x="40" y="0" flags="0x4"/>
    </TTGlyph>
    <TTGlyph name="gcommaaccent" xMin="26" yMin="-217" xMax="594" yMax="832">
      <contour>
        <pt x="387" y="617" on="1"/>
        <pt x="236" y="617" on="1"/>
        <pt x="325" y="832" on="1"/>
        <pt x="442" y="832" on="1"/>
      </contour>
      <contour>
        <pt x="295" y="-2" on="1"/>
        <pt x="239" y="-2" on="0"/>
        <pt x="140" y="40" on="0"/>
        <pt x="68" y="113" on="0"/>
        <pt x="26" y="212" on="0"/>
        <pt x="26" y="268" on="1"/>
        <pt x="26" y="324" on="0"/>
        <pt x="69" y="422" on="0"/>
        <pt x="143" y="494" on="0"/>
        <pt x="244" y="536" on="0"/>
        <pt x="301" y="536" on="1"/>
        <pt x="337" y="536" on="0"/>
        <pt x="405" y="518" on="0"/>
        <pt x="434" y="501" on="1"/>
        <pt x="434" y="529" on="1"/>
        <pt x="594" y="529" on="1"/>
        <pt x="594" y="5" on="1"/>
        <pt x="594" y="-102" on="0"/>
        <pt x="452" y="-217" on="0"/>
        <pt x="320" y="-217" on="1"/>
        <pt x="257" y="-217" on="0"/>
        <pt x="141" y="-193" on="0"/>
        <pt x="94" y="-171" on="1"/>
        <pt x="148" y="-45" on="1"/>
        <pt x="191" y="-65" on="0"/>
        <pt x="275" y="-85" on="0"/>
        <pt x="317" y="-85" on="1"/>
        <pt x="374" y="-85" on="0"/>
        <pt x="432" y="-39" on="0"/>
        <pt x="432" y="7" on="1"/>
        <pt x="432" y="40" on="1"/>
        <pt x="402" y="20" on="0"/>
        <pt x="332" y="-2" on="0"/>
      </contour>
      <contour>
        <pt x="185" y="268" on="1"/>
        <pt x="185" y="211" on="0"/>
        <pt x="265" y="134" on="0"/>
        <pt x="323" y="134" on="1"/>
        <pt x="356" y="134" on="0"/>
        <pt x="411" y="154" on="0"/>
        <pt x="432" y="173" on="1"/>
        <pt x="432" y="360" on="1"/>
        <pt x="411" y="378" on="0"/>
        <pt x="355" y="399" on="0"/>
        <pt x="324" y="399" on="1"/>
        <pt x="266" y="399" on="0"/>
        <pt x="185" y="323" on="0"/>
      </contour>
    </TTGlyph>
    <TTGlyph name="gcommaaccent.alt" xMin="17" yMin="-219" xMax="623" yMax="832">
      <contour>
        <pt x="387" y="617" on="1"/>
        <pt x="236" y="617" on="1"/>
        <pt x="325" y="832" on="1"/>
        <pt x="442" y="832" on="1"/>
      </contour>
      <contour>
        <pt x="53" y="339" on="1"/>
        <pt x="53" y="381" on="0"/>
        <pt x="91" y="454" on="0"/>
        <pt x="157" y="508" on="0"/>
        <pt x="247" y="539" on="0"/>
        <pt x="298" y="539" on="1"/>
        <pt x="344" y="539" on="0"/>
        <pt x="425" y="515" on="0"/>
        <pt x="457" y="493" on="1"/>
        <pt x="483" y="530" on="0"/>
        <pt x="548" y="568" on="0"/>
        <pt x="585" y="568" on="1"/>
        <pt x="596" y="568" on="0"/>
        <pt x="614" y="565" on="0"/>
        <pt x="621" y="562" on="1"/>
        <pt x="623" y="444" on="1"/>
        <pt x="616" y="445" on="0"/>
        <pt x="594" y="447" on="0"/>
        <pt x="583" y="447" on="1"/>
        <pt x="564" y="447" on="0"/>
        <pt x="529" y="442" on="0"/>
        <pt x="513" y="437" on="1"/>
        <pt x="527" y="415" on="0"/>
        <pt x="543" y="366" on="0"/>
        <pt x="543" y="339" on="1"/>
        <pt x="543" y="297" on="0"/>
        <pt x="506" y="225" on="0"/>
        <pt x="441" y="174" on="0"/>
        <pt x="351" y="144" on="0"/>
        <pt x="298" y="144" on="1"/>
        <pt x="285" y="144" on="0"/>
        <pt x="258" y="146" on="0"/>
        <pt x="245" y="148" on="1"/>
        <pt x="233" y="144" on="0"/>
        <pt x="220" y="131" on="0"/>
        <pt x="220" y="122" on="1"/>
        <pt x="220" y="108" on="0"/>
        <pt x="246" y="93" on="0"/>
        <pt x="273" y="92" on="1"/>
        <pt x="445" y="89" on="1"/>
        <pt x="525" y="88" on="0"/>
        <pt x="617" y="19" on="0"/>
        <pt x="617" y="-38" on="1"/>
        <pt x="617" y="-79" on="0"/>
        <pt x="571" y="-147" on="0"/>
        <pt x="485" y="-194" on="0"/>
        <pt x="363" y="-219" on="0"/>
        <pt x="288" y="-219" on="1"/>
        <pt x="155" y="-219" on="0"/>
        <pt x="17" y="-156" on="0"/>
        <pt x="17" y="-96" on="1"/>
        <pt x="17" y="-64" on="0"/>
        <pt x="71" y="-13" on="0"/>
        <pt x="115" y="0" on="1"/>
        <pt x="99" y="14" on="0"/>
        <pt x="82" y="52" on="0"/>
        <pt x="82" y="74" on="1"/>
        <pt x="82" y="108" on="0"/>
        <pt x="123" y="161" on="0"/>
        <pt x="159" y="176" on="1"/>
        <pt x="110" y="202" on="0"/>
        <pt x="53" y="288" on="0"/>
      </contour>
      <contour>
        <pt x="392" y="339" on="1"/>
        <pt x="392" y="373" on="0"/>
        <pt x="338" y="421" on="0"/>
        <pt x="298" y="421" on="1"/>
        <pt x="258" y="421" on="0"/>
        <pt x="204" y="374" on="0"/>
        <pt x="204" y="339" on="1"/>
        <pt x="204" y="303" on="0"/>
        <pt x="258" y="256" on="0"/>
        <pt x="298" y="256" on="1"/>
        <pt x="338" y="256" on="0"/>
        <pt x="392" y="304" on="0"/>
      </contour>
      <contour>
        <pt x="162" y="-75" on="1"/>
        <pt x="162" y="-99" on="0"/>
        <pt x="223" y="-121" on="0"/>
        <pt x="288" y="-121" on="1"/>
        <pt x="366" y="-121" on="0"/>
        <pt x="455" y="-94" on="0"/>
        <pt x="455" y="-71" on="1"/>
        <pt x="455" y="-60" on="0"/>
        <pt x="437" y="-47" on="0"/>
        <pt x="420" y="-47" on="1"/>
        <pt x="276" y="-45" on="1"/>
        <pt x="256" y="-45" on="0"/>
        <pt x="219" y="-41" on="0"/>
        <pt x="203" y="-38" on="1"/>
        <pt x="184" y="-42" on="0"/>
        <pt x="162" y="-62" on="0"/>
      </contour>
    </TTGlyph>
    <TTGlyph name="gdotaccent" xMin="26" yMin="-217" xMax="594" yMax="766">
      <component glyphName="g" x="0" y="0" flags="0x204"/>
      <component glyphName="dotaccent" x="170" y="0" flags="0x4"/>
    </TTGlyph>
    <TTGlyph name="gdotaccent.alt" xMin="17" yMin="-219" xMax="623" yMax="766">
      <component glyphName="g.alt" x="0" y="0" flags="0x204"/>
      <component glyphName="dotaccent" x="148" y="0" flags="0x4"/>
    </TTGlyph>
    <TTGlyph name="germandbls" xMin="50" yMin="-11" xMax="701" yMax="735">
      <contour>
        <pt x="455" y="368" on="1"/>
        <pt x="455" y="355" on="0"/>
        <pt x="471" y="339" on="0"/>
        <pt x="495" y="330" on="1"/>
        <pt x="575" y="302" on="1"/>
        <pt x="642" y="277" on="0"/>
        <pt x="701" y="210" on="0"/>
        <pt x="701" y="159" on="1"/>
        <pt x="701" y="81" on="0"/>
        <pt x="586" y="-11" on="0"/>
        <pt x="489" y="-11" on="1"/>
        <pt x="423" y="-11" on="0"/>
        <pt x="315" y="29" on="0"/>
        <pt x="269" y="70" on="1"/>
        <pt x="347" y="156" on="1"/>
        <pt x="380" y="127" on="0"/>
        <pt x="448" y="98" on="0"/>
        <pt x="482" y="98" on="1"/>
        <pt x="516" y="98" on="0"/>
        <pt x="554" y="125" on="0"/>
        <pt x="554" y="148" on="1"/>
        <pt x="554" y="167" on="0"/>
        <pt x="529" y="191" on="0"/>
        <pt x="497" y="201" on="1"/>
        <pt x="410" y="230" on="1"/>
        <pt x="354" y="249" on="0"/>
        <pt x="301" y="305" on="0"/>
        <pt x="301" y="345" on="1"/>
        <pt x="301" y="388" on="0"/>
        <pt x="351" y="441" on="0"/>
        <pt x="410" y="479" on="0"/>
        <pt x="460" y="513" on="0"/>
        <pt x="460" y="538" on="1"/>
        <pt x="460" y="567" on="0"/>
        <pt x="394" y="607" on="0"/>
        <pt x="345" y="607" on="1"/>
        <pt x="280" y="607" on="0"/>
        <pt x="211" y="534" on="0"/>
        <pt x="211" y="465" on="1"/>
        <pt x="211" y="0" on="1"/>
        <pt x="50" y="0" on="1"/>
        <pt x="50" y="470" on="1"/>
        <pt x="50" y="594" on="0"/>
        <pt x="205" y="735" on="0"/>
        <pt x="341" y="735" on="1"/>
        <pt x="466" y="735" on="0"/>
        <pt x="618" y="640" on="0"/>
        <pt x="618" y="562" on="1"/>
        <pt x="618" y="514" on="0"/>
        <pt x="567" y="454" on="0"/>
        <pt x="506" y="415" on="0"/>
        <pt x="455" y="386" on="0"/>
      </contour>
    </TTGlyph>
    <TTGlyph name="grave" xMin="112" yMin="611" xMax="381" yMax="747">
      <contour>
        <pt x="294" y="747" on="1"/>
        <pt x="381" y="611" on="1"/>
        <pt x="251" y="611" on="1"/>
        <pt x="112" y="747" on="1"/>
      </contour>
    </TTGlyph>
    <TTGlyph name="greater" xMin="56" yMin="43" xMax="497" yMax="652">
      <contour>
        <pt x="141" y="652" on="1"/>
        <pt x="497" y="348" on="1"/>
        <pt x="140" y="43" on="1"/>
        <pt x="58" y="136" on="1"/>
        <pt x="313" y="346" on="1"/>
        <pt x="56" y="557" on="1"/>
      </contour>
    </TTGlyph>
    <TTGlyph name="guillemotleft" xMin="14" yMin="0" xMax="690" yMax="529">
      <component glyphName="guilsinglleft" x="0" y="0" flags="0x4"/>
      <component glyphName="guilsinglleft" x="263" y="0" flags="0x4"/>
    </TTGlyph>
    <TTGlyph name="guillemotright" xMin="21" yMin="0" xMax="697" yMax="529">
      <contour>
        <pt x="287" y="0" on="1"/>
        <pt x="526" y="263" on="1"/>
        <pt x="284" y="529" on="1"/>
        <pt x="451" y="529" on="1"/>
        <pt x="697" y="264" on="1"/>
        <pt x="451" y="0" on="1"/>
      </contour>
      <contour>
        <pt x="24" y="0" on="1"/>
        <pt x="263" y="263" on="1"/>
        <pt x="21" y="529" on="1"/>
        <pt x="188" y="529" on="1"/>
        <pt x="434" y="264" on="1"/>
        <pt x="188" y="0" on="1"/>
      </contour>
    </TTGlyph>
    <TTGlyph name="guilsinglleft" xMin="14" yMin="0" xMax="427" yMax="529">
      <contour>
        <pt x="424" y="529" on="1"/>
        <pt x="185" y="266" on="1"/>
        <pt x="427" y="0" on="1"/>
        <pt x="260" y="0" on="1"/>
        <pt x="14" y="265" on="1"/>
        <pt x="260" y="529" on="1"/>
      </contour>
    </TTGlyph>
    <TTGlyph name="guilsinglright" xMin="21" yMin="0" xMax="434" yMax="529">
      <contour>
        <pt x="24" y="0" on="1"/>
        <pt x="263" y="263" on="1"/>
        <pt x="21" y="529" on="1"/>
        <pt x="188" y="529" on="1"/>
        <pt x="434" y="264" on="1"/>
        <pt x="188" y="0" on="1"/>
      </contour>
    </TTGlyph>
    <TTGlyph name="h" xMin="50" yMin="0" xMax="565" yMax="735">
      <contour>
        <pt x="50" y="0" on="1"/>
        <pt x="50" y="700" on="1"/>
        <pt x="212" y="735" on="1"/>
        <pt x="212" y="493" on="1"/>
        <pt x="241" y="515" on="0"/>
        <pt x="314" y="539" on="0"/>
        <pt x="354" y="539" on="1"/>
        <pt x="447" y="539" on="0"/>
        <pt x="565" y="419" on="0"/>
        <pt x="565" y="326" on="1"/>
        <pt x="565" y="0" on="1"/>
        <pt x="403" y="0" on="1"/>
        <pt x="403" y="304" on="1"/>
        <pt x="403" y="347" on="0"/>
        <pt x="350" y="400" on="0"/>
        <pt x="307" y="400" on="1"/>
        <pt x="276" y="400" on="0"/>
        <pt x="228" y="378" on="0"/>
        <pt x="212" y="358" on="1"/>
        <pt x="212" y="0" on="1"/>
      </contour>
    </TTGlyph>
    <TTGlyph name="hbar" xMin="-5" yMin="0" xMax="565" yMax="735">
      <contour>
        <pt x="50" y="0" on="1"/>
        <pt x="50" y="576" on="1"/>
        <pt x="-5" y="576" on="1"/>
        <pt x="-5" y="671" on="1"/>
        <pt x="50" y="671" on="1"/>
        <pt x="50" y="700" on="1"/>
        <pt x="212" y="735" on="1"/>
        <pt x="212" y="671" on="1"/>
        <pt x="340" y="671" on="1"/>
        <pt x="340" y="576" on="1"/>
        <pt x="212" y="576" on="1"/>
        <pt x="212" y="493" on="1"/>
        <pt x="241" y="515" on="0"/>
        <pt x="314" y="539" on="0"/>
        <pt x="354" y="539" on="1"/>
        <pt x="447" y="539" on="0"/>
        <pt x="565" y="419" on="0"/>
        <pt x="565" y="326" on="1"/>
        <pt x="565" y="0" on="1"/>
        <pt x="403" y="0" on="1"/>
        <pt x="403" y="304" on="1"/>
        <pt x="403" y="347" on="0"/>
        <pt x="350" y="400" on="0"/>
        <pt x="307" y="400" on="1"/>
        <pt x="276" y="400" on="0"/>
        <pt x="228" y="378" on="0"/>
        <pt x="212" y="358" on="1"/>
        <pt x="212" y="0" on="1"/>
      </contour>
    </TTGlyph>
    <TTGlyph name="hcircumflex" xMin="-70" yMin="0" xMax="565" yMax="921">
      <contour>
        <pt x="199" y="780" on="1"/>
        <pt x="129" y="851" on="1"/>
        <pt x="59" y="780" on="1"/>
        <pt x="-70" y="780" on="1"/>
        <pt x="49" y="921" on="1"/>
        <pt x="213" y="921" on="1"/>
        <pt x="332" y="780" on="1"/>
      </contour>
      <contour>
        <pt x="50" y="0" on="1"/>
        <pt x="50" y="700" on="1"/>
        <pt x="212" y="700" on="1"/>
        <pt x="212" y="493" on="1"/>
        <pt x="241" y="515" on="0"/>
        <pt x="314" y="539" on="0"/>
        <pt x="354" y="539" on="1"/>
        <pt x="447" y="539" on="0"/>
        <pt x="565" y="419" on="0"/>
        <pt x="565" y="326" on="1"/>
        <pt x="565" y="0" on="1"/>
        <pt x="403" y="0" on="1"/>
        <pt x="403" y="304" on="1"/>
        <pt x="403" y="347" on="0"/>
        <pt x="350" y="400" on="0"/>
        <pt x="307" y="400" on="1"/>
        <pt x="276" y="400" on="0"/>
        <pt x="228" y="378" on="0"/>
        <pt x="212" y="358" on="1"/>
        <pt x="212" y="0" on="1"/>
      </contour>
    </TTGlyph>
    <TTGlyph name="hungarumlaut" xMin="71" yMin="613" xMax="552" yMax="746">
      <contour>
        <pt x="171" y="746" on="1"/>
        <pt x="327" y="746" on="1"/>
        <pt x="193" y="613" on="1"/>
        <pt x="71" y="613" on="1"/>
      </contour>
      <contour>
        <pt x="394" y="746" on="1"/>
        <pt x="552" y="746" on="1"/>
        <pt x="406" y="613" on="1"/>
        <pt x="294" y="613" on="1"/>
      </contour>
    </TTGlyph>
    <TTGlyph name="hyphen" xMin="38" yMin="219" xMax="425" yMax="354">
      <contour>
        <pt x="38" y="354" on="1"/>
        <pt x="425" y="354" on="1"/>
        <pt x="425" y="219" on="1"/>
        <pt x="38" y="219" on="1"/>
      </contour>
    </TTGlyph>
    <TTGlyph name="hyphen.cap" xMin="38" yMin="284" xMax="425" yMax="419">
      <component glyphName="hyphen" x="0" y="65" flags="0x4"/>
    </TTGlyph>
    <TTGlyph name="i" xMin="42" yMin="0" xMax="220" yMax="756">
      <contour>
        <pt x="131" y="578" on="1"/>
        <pt x="94" y="578" on="0"/>
        <pt x="42" y="630" on="0"/>
        <pt x="42" y="667" on="1"/>
        <pt x="42" y="704" on="0"/>
        <pt x="94" y="756" on="0"/>
        <pt x="131" y="756" on="1"/>
        <pt x="168" y="756" on="0"/>
        <pt x="220" y="704" on="0"/>
        <pt x="220" y="667" on="1"/>
        <pt x="220" y="630" on="0"/>
        <pt x="168" y="578" on="0"/>
      </contour>
      <contour>
        <pt x="212" y="529" on="1"/>
        <pt x="212" y="0" on="1"/>
        <pt x="50" y="0" on="1"/>
        <pt x="50" y="529" on="1"/>
      </contour>
    </TTGlyph>
    <TTGlyph name="iacute" xMin="50" yMin="0" xMax="324" yMax="747">
      <component glyphName="dotlessi" x="0" y="0" flags="0x204"/>
      <component glyphName="acute" x="-94" y="0" flags="0x4"/>
    </TTGlyph>
    <TTGlyph name="ibreve" xMin="-53" yMin="0" xMax="315" yMax="768">
      <component glyphName="dotlessi" x="0" y="0" flags="0x204"/>
      <component glyphName="breve" x="-127" y="0" flags="0x4"/>
    </TTGlyph>
    <TTGlyph name="icircumflex" xMin="-69" yMin="0" xMax="333" yMax="750">
      <component glyphName="dotlessi" x="0" y="0" flags="0x204"/>
      <component glyphName="circumflex" x="-127" y="0" flags="0x4"/>
    </TTGlyph>
    <TTGlyph name="idieresis" xMin="-72" yMin="0" xMax="334" yMax="766">
      <component glyphName="dotlessi" x="0" y="0" flags="0x204"/>
      <component glyphName="dieresis" x="-173" y="0" flags="0x4"/>
    </TTGlyph>
    <TTGlyph name="idotaccent" xMin="42" yMin="0" xMax="220" yMax="756">
      <component glyphName="i" x="0" y="0" flags="0x4"/>
    </TTGlyph>
    <TTGlyph name="igrave" xMin="-57" yMin="0" xMax="212" yMax="747">
      <component glyphName="dotlessi" x="0" y="0" flags="0x204"/>
      <component glyphName="grave" x="-169" y="0" flags="0x4"/>
    </TTGlyph>
    <TTGlyph name="ij" xMin="42" yMin="-218" xMax="478" yMax="756">
      <component glyphName="i" x="0" y="0" flags="0x4"/>
      <component glyphName="j" x="258" y="0" flags="0x4"/>
    </TTGlyph>
    <TTGlyph name="imacron" xMin="-33" yMin="0" xMax="302" yMax="728">
      <component glyphName="dotlessi" x="0" y="0" flags="0x204"/>
      <component glyphName="macron" x="-127" y="0" flags="0x4"/>
    </TTGlyph>
    <TTGlyph name="iogonek" xMin="37" yMin="-221" xMax="232" yMax="756">
      <contour>
        <pt x="131" y="578" on="1"/>
        <pt x="94" y="578" on="0"/>
        <pt x="42" y="630" on="0"/>
        <pt x="42" y="667" on="1"/>
        <pt x="42" y="704" on="0"/>
        <pt x="94" y="756" on="0"/>
        <pt x="131" y="756" on="1"/>
        <pt x="168" y="756" on="0"/>
        <pt x="220" y="704" on="0"/>
        <pt x="220" y="667" on="1"/>
        <pt x="220" y="630" on="0"/>
        <pt x="168" y="578" on="0"/>
      </contour>
      <contour>
        <pt x="212" y="0" on="1"/>
        <pt x="169" y="-25" on="0"/>
        <pt x="128" y="-73" on="0"/>
        <pt x="128" y="-98" on="1"/>
        <pt x="128" y="-117" on="0"/>
        <pt x="153" y="-139" on="0"/>
        <pt x="175" y="-139" on="1"/>
        <pt x="184" y="-139" on="0"/>
        <pt x="204" y="-133" on="0"/>
        <pt x="211" y="-128" on="1"/>
        <pt x="232" y="-198" on="1"/>
        <pt x="215" y="-208" on="0"/>
        <pt x="169" y="-221" on="0"/>
        <pt x="145" y="-221" on="1"/>
        <pt x="96" y="-221" on="0"/>
        <pt x="37" y="-169" on="0"/>
        <pt x="37" y="-127" on="1"/>
        <pt x="37" y="-90" on="0"/>
        <pt x="79" y="-28" on="0"/>
        <pt x="124" y="0" on="1"/>
        <pt x="50" y="0" on="1"/>
        <pt x="50" y="529" on="1"/>
        <pt x="212" y="529" on="1"/>
      </contour>
    </TTGlyph>
    <TTGlyph name="itilde" xMin="-71" yMin="0" xMax="336" yMax="753">
      <component glyphName="dotlessi" x="0" y="0" flags="0x204"/>
      <component glyphName="tilde" x="-127" y="0" flags="0x4"/>
    </TTGlyph>
    <TTGlyph name="j" xMin="-54" yMin="-218" xMax="220" yMax="756">
      <contour>
        <pt x="131" y="578" on="1"/>
        <pt x="94" y="578" on="0"/>
        <pt x="42" y="630" on="0"/>
        <pt x="42" y="667" on="1"/>
        <pt x="42" y="704" on="0"/>
        <pt x="94" y="756" on="0"/>
        <pt x="131" y="756" on="1"/>
        <pt x="168" y="756" on="0"/>
        <pt x="220" y="704" on="0"/>
        <pt x="220" y="667" on="1"/>
        <pt x="220" y="630" on="0"/>
        <pt x="168" y="578" on="0"/>
      </contour>
      <contour>
        <pt x="27" y="-218" on="1"/>
        <pt x="6" y="-218" on="0"/>
        <pt x="-41" y="-212" on="0"/>
        <pt x="-54" y="-208" on="1"/>
        <pt x="-54" y="-86" on="1"/>
        <pt x="-43" y="-88" on="0"/>
        <pt x="-21" y="-90" on="0"/>
        <pt x="-7" y="-90" on="1"/>
        <pt x="22" y="-90" on="0"/>
        <pt x="50" y="-67" on="0"/>
        <pt x="50" y="-42" on="1"/>
        <pt x="50" y="529" on="1"/>
        <pt x="212" y="529" on="1"/>
        <pt x="212" y="-51" on="1"/>
        <pt x="212" y="-130" on="0"/>
        <pt x="115" y="-218" on="0"/>
      </contour>
    </TTGlyph>
    <TTGlyph name="jcircumflex" xMin="-69" yMin="-218" xMax="333" yMax="750">
      <component glyphName="dotlessj" x="0" y="0" flags="0x204"/>
      <component glyphName="circumflex" x="-127" y="0" flags="0x4"/>
    </TTGlyph>
    <TTGlyph name="k" xMin="50" yMin="0" xMax="620" yMax="735">
      <contour>
        <pt x="50" y="0" on="1"/>
        <pt x="50" y="700" on="1"/>
        <pt x="212" y="735" on="1"/>
        <pt x="212" y="313" on="1"/>
        <pt x="423" y="529" on="1"/>
        <pt x="604" y="529" on="1"/>
        <pt x="369" y="290" on="1"/>
        <pt x="620" y="0" on="1"/>
        <pt x="415" y="0" on="1"/>
        <pt x="212" y="237" on="1"/>
        <pt x="212" y="0" on="1"/>
      </contour>
    </TTGlyph>
    <TTGlyph name="kcommaaccent" xMin="50" yMin="-295" xMax="620" yMax="735">
      <component glyphName="k" x="0" y="0" flags="0x204"/>
      <component glyphName="commaaccent" x="164" y="0" flags="0x4"/>
    </TTGlyph>
    <TTGlyph name="kgreenlandic" xMin="50" yMin="0" xMax="620" yMax="529">
      <contour>
        <pt x="50" y="0" on="1"/>
        <pt x="50" y="529" on="1"/>
        <pt x="212" y="529" on="1"/>
        <pt x="212" y="313" on="1"/>
        <pt x="423" y="529" on="1"/>
        <pt x="604" y="529" on="1"/>
        <pt x="369" y="290" on="1"/>
        <pt x="620" y="0" on="1"/>
        <pt x="415" y="0" on="1"/>
        <pt x="212" y="237" on="1"/>
        <pt x="212" y="0" on="1"/>
      </contour>
    </TTGlyph>
    <TTGlyph name="l" xMin="50" yMin="0" xMax="212" yMax="735">
      <contour>
        <pt x="212" y="735" on="1"/>
        <pt x="212" y="0" on="1"/>
        <pt x="50" y="0" on="1"/>
        <pt x="50" y="700" on="1"/>
      </contour>
    </TTGlyph>
    <TTGlyph name="lacute" xMin="50" yMin="0" xMax="324" yMax="918">
      <contour>
        <pt x="143" y="918" on="1"/>
        <pt x="324" y="918" on="1"/>
        <pt x="184" y="782" on="1"/>
        <pt x="55" y="782" on="1"/>
      </contour>
      <contour>
        <pt x="50" y="0" on="1"/>
        <pt x="50" y="700" on="1"/>
        <pt x="212" y="700" on="1"/>
        <pt x="212" y="0" on="1"/>
      </contour>
    </TTGlyph>
    <TTGlyph name="lcaron" xMin="50" yMin="0" xMax="445" yMax="735">
      <component glyphName="l" x="0" y="0" flags="0x4"/>
      <component glyphName="caronSlovak" x="207" y="0" flags="0x4"/>
    </TTGlyph>
    <TTGlyph name="lcommaaccent" xMin="3" yMin="-295" xMax="212" yMax="735">
      <component glyphName="l" x="0" y="0" flags="0x204"/>
      <component glyphName="commaaccent" x="-8" y="0" flags="0x4"/>
    </TTGlyph>
    <TTGlyph name="ldot" xMin="50" yMin="0" xMax="435" yMax="735">
      <component glyphName="l" x="0" y="0" flags="0x4"/>
      <component glyphName="dotaccent" x="200" y="-324" flags="0x4"/>
    </TTGlyph>
    <TTGlyph name="less" xMin="44" yMin="43" xMax="485" yMax="652">
      <contour>
        <pt x="400" y="43" on="1"/>
        <pt x="44" y="347" on="1"/>
        <pt x="401" y="652" on="1"/>
        <pt x="483" y="559" on="1"/>
        <pt x="228" y="349" on="1"/>
        <pt x="485" y="138" on="1"/>
      </contour>
    </TTGlyph>
    <TTGlyph name="lslash" xMin="7" yMin="0" xMax="305" yMax="735">
      <contour>
        <pt x="7" y="336" on="1"/>
        <pt x="75" y="382" on="1"/>
        <pt x="75" y="700" on="1"/>
        <pt x="237" y="735" on="1"/>
        <pt x="237" y="492" on="1"/>
        <pt x="305" y="538" on="1"/>
        <pt x="305" y="393" on="1"/>
        <pt x="237" y="347" on="1"/>
        <pt x="237" y="0" on="1"/>
        <pt x="75" y="0" on="1"/>
        <pt x="75" y="237" on="1"/>
        <pt x="7" y="191" on="1"/>
      </contour>
    </TTGlyph>
    <TTGlyph name="m" xMin="50" yMin="0" xMax="878" yMax="539">
      <contour>
        <pt x="50" y="0" on="1"/>
        <pt x="50" y="529" on="1"/>
        <pt x="212" y="529" on="1"/>
        <pt x="212" y="495" on="1"/>
        <pt x="240" y="517" on="0"/>
        <pt x="307" y="539" on="0"/>
        <pt x="344" y="539" on="1"/>
        <pt x="393" y="539" on="0"/>
        <pt x="474" y="500" on="0"/>
        <pt x="501" y="466" on="1"/>
        <pt x="533" y="501" on="0"/>
        <pt x="621" y="539" on="0"/>
        <pt x="673" y="539" on="1"/>
        <pt x="763" y="539" on="0"/>
        <pt x="878" y="419" on="0"/>
        <pt x="878" y="326" on="1"/>
        <pt x="878" y="0" on="1"/>
        <pt x="716" y="0" on="1"/>
        <pt x="716" y="304" on="1"/>
        <pt x="716" y="347" on="0"/>
        <pt x="669" y="400" on="0"/>
        <pt x="630" y="400" on="1"/>
        <pt x="603" y="400" on="0"/>
        <pt x="559" y="379" on="0"/>
        <pt x="543" y="360" on="1"/>
        <pt x="544" y="352" on="0"/>
        <pt x="545" y="335" on="0"/>
        <pt x="545" y="326" on="1"/>
        <pt x="545" y="0" on="1"/>
        <pt x="383" y="0" on="1"/>
        <pt x="383" y="304" on="1"/>
        <pt x="383" y="347" on="0"/>
        <pt x="336" y="400" on="0"/>
        <pt x="297" y="400" on="1"/>
        <pt x="270" y="400" on="0"/>
        <pt x="227" y="381" on="0"/>
        <pt x="212" y="362" on="1"/>
        <pt x="212" y="0" on="1"/>
      </contour>
    </TTGlyph>
    <TTGlyph name="macron" xMin="94" yMin="624" xMax="429" yMax="728">
      <contour>
        <pt x="429" y="728" on="1"/>
        <pt x="429" y="624" on="1"/>
        <pt x="94" y="624" on="1"/>
        <pt x="94" y="728" on="1"/>
      </contour>
    </TTGlyph>
    <TTGlyph name="minus" xMin="43" yMin="297" xMax="517" yMax="421">
      <contour>
        <pt x="517" y="421" on="1"/>
        <pt x="517" y="297" on="1"/>
        <pt x="43" y="297" on="1"/>
        <pt x="43" y="421" on="1"/>
      </contour>
    </TTGlyph>
    <TTGlyph name="multiply" xMin="46" yMin="132" xMax="495" yMax="586">
      <contour>
        <pt x="122" y="133" on="1"/>
        <pt x="47" y="208" on="1"/>
        <pt x="195" y="358" on="1"/>
        <pt x="46" y="509" on="1"/>
        <pt x="123" y="586" on="1"/>
        <pt x="271" y="436" on="1"/>
        <pt x="419" y="585" on="1"/>
        <pt x="494" y="510" on="1"/>
        <pt x="346" y="360" on="1"/>
        <pt x="495" y="209" on="1"/>
        <pt x="418" y="132" on="1"/>
        <pt x="270" y="282" on="1"/>
      </contour>
    </TTGlyph>
    <TTGlyph name="n" xMin="50" yMin="0" xMax="565" yMax="539">
      <contour>
        <pt x="50" y="0" on="1"/>
        <pt x="50" y="529" on="1"/>
        <pt x="212" y="529" on="1"/>
        <pt x="212" y="493" on="1"/>
        <pt x="241" y="515" on="0"/>
        <pt x="314" y="539" on="0"/>
        <pt x="354" y="539" on="1"/>
        <pt x="447" y="539" on="0"/>
        <pt x="565" y="419" on="0"/>
        <pt x="565" y="326" on="1"/>
        <pt x="565" y="0" on="1"/>
        <pt x="403" y="0" on="1"/>
        <pt x="403" y="304" on="1"/>
        <pt x="403" y="347" on="0"/>
        <pt x="350" y="400" on="0"/>
        <pt x="307" y="400" on="1"/>
        <pt x="276" y="400" on="0"/>
        <pt x="228" y="378" on="0"/>
        <pt x="212" y="358" on="1"/>
        <pt x="212" y="0" on="1"/>
      </contour>
    </TTGlyph>
    <TTGlyph name="nacute" xMin="50" yMin="0" xMax="565" yMax="747">
      <component glyphName="n" x="0" y="0" flags="0x204"/>
      <component glyphName="acute" x="83" y="0" flags="0x4"/>
    </TTGlyph>
    <TTGlyph name="ncaron" xMin="50" yMin="0" xMax="565" yMax="750">
      <component glyphName="n" x="0" y="0" flags="0x204"/>
      <component glyphName="caron" x="48" y="0" flags="0x4"/>
    </TTGlyph>
    <TTGlyph name="ncommaaccent" xMin="50" yMin="-295" xMax="565" yMax="539">
      <component glyphName="n" x="0" y="0" flags="0x204"/>
      <component glyphName="commaaccent" x="169" y="0" flags="0x4"/>
    </TTGlyph>
    <TTGlyph name="nine" xMin="28" yMin="-11" xMax="617" yMax="712">
      <contour>
        <pt x="297" y="712" on="1"/>
        <pt x="368" y="712" on="0"/>
        <pt x="487" y="661" on="0"/>
        <pt x="571" y="569" on="0"/>
        <pt x="617" y="439" on="0"/>
        <pt x="617" y="361" on="1"/>
        <pt x="617" y="278" on="0"/>
        <pt x="566" y="140" on="0"/>
        <pt x="474" y="43" on="0"/>
        <pt x="343" y="-11" on="0"/>
        <pt x="264" y="-11" on="1"/>
        <pt x="203" y="-11" on="0"/>
        <pt x="81" y="32" on="0"/>
        <pt x="42" y="66" on="1"/>
        <pt x="136" y="180" on="1"/>
        <pt x="167" y="155" on="0"/>
        <pt x="234" y="131" on="0"/>
        <pt x="277" y="131" on="1"/>
        <pt x="358" y="131" on="0"/>
        <pt x="449" y="238" on="0"/>
        <pt x="455" y="340" on="1"/>
        <pt x="421" y="305" on="0"/>
        <pt x="327" y="266" on="0"/>
        <pt x="273" y="266" on="1"/>
        <pt x="219" y="266" on="0"/>
        <pt x="129" y="298" on="0"/>
        <pt x="64" y="354" on="0"/>
        <pt x="28" y="433" on="0"/>
        <pt x="28" y="480" on="1"/>
        <pt x="28" y="530" on="0"/>
        <pt x="69" y="615" on="0"/>
        <pt x="140" y="677" on="0"/>
        <pt x="239" y="712" on="0"/>
      </contour>
      <contour>
        <pt x="299" y="392" on="1"/>
        <pt x="342" y="392" on="0"/>
        <pt x="415" y="426" on="0"/>
        <pt x="444" y="458" on="1"/>
        <pt x="428" y="512" on="0"/>
        <pt x="354" y="576" on="0"/>
        <pt x="305" y="576" on="1"/>
        <pt x="254" y="576" on="0"/>
        <pt x="187" y="523" on="0"/>
        <pt x="187" y="483" on="1"/>
        <pt x="187" y="443" on="0"/>
        <pt x="249" y="392" on="0"/>
      </contour>
    </TTGlyph>
    <TTGlyph name="notequal" xMin="35" yMin="91" xMax="520" yMax="611">
      <contour>
        <pt x="35" y="91" on="1"/>
        <pt x="101" y="189" on="1"/>
        <pt x="43" y="189" on="1"/>
        <pt x="43" y="313" on="1"/>
        <pt x="184" y="313" on="1"/>
        <pt x="237" y="391" on="1"/>
        <pt x="43" y="391" on="1"/>
        <pt x="43" y="515" on="1"/>
        <pt x="320" y="515" on="1"/>
        <pt x="385" y="611" on="1"/>
        <pt x="520" y="611" on="1"/>
        <pt x="456" y="515" on="1"/>
        <pt x="517" y="515" on="1"/>
        <pt x="517" y="391" on="1"/>
        <pt x="372" y="391" on="1"/>
        <pt x="320" y="313" on="1"/>
        <pt x="517" y="313" on="1"/>
        <pt x="517" y="189" on="1"/>
        <pt x="237" y="189" on="1"/>
        <pt x="171" y="91" on="1"/>
      </contour>
    </TTGlyph>
    <TTGlyph name="ntilde" xMin="50" yMin="0" xMax="565" yMax="753">
      <component glyphName="n" x="0" y="0" flags="0x204"/>
      <component glyphName="tilde" x="50" y="0" flags="0x4"/>
    </TTGlyph>
    <TTGlyph name="numbersign" xMin="29" yMin="0" xMax="728" yMax="700">
      <contour>
        <pt x="67" y="0" on="1"/>
        <pt x="120" y="184" on="1"/>
        <pt x="29" y="184" on="1"/>
        <pt x="29" y="298" on="1"/>
        <pt x="152" y="298" on="1"/>
        <pt x="182" y="402" on="1"/>
        <pt x="79" y="402" on="1"/>
        <pt x="79" y="516" on="1"/>
        <pt x="214" y="516" on="1"/>
        <pt x="267" y="700" on="1"/>
        <pt x="412" y="700" on="1"/>
        <pt x="359" y="516" on="1"/>
        <pt x="492" y="516" on="1"/>
        <pt x="545" y="700" on="1"/>
        <pt x="689" y="700" on="1"/>
        <pt x="636" y="516" on="1"/>
        <pt x="728" y="516" on="1"/>
        <pt x="728" y="402" on="1"/>
        <pt x="604" y="402" on="1"/>
        <pt x="574" y="298" on="1"/>
        <pt x="678" y="298" on="1"/>
        <pt x="678" y="184" on="1"/>
        <pt x="542" y="184" on="1"/>
        <pt x="489" y="0" on="1"/>
        <pt x="345" y="0" on="1"/>
        <pt x="398" y="184" on="1"/>
        <pt x="265" y="184" on="1"/>
        <pt x="212" y="0" on="1"/>
      </contour>
      <contour>
        <pt x="297" y="298" on="1"/>
        <pt x="430" y="298" on="1"/>
        <pt x="460" y="402" on="1"/>
        <pt x="327" y="402" on="1"/>
      </contour>
    </TTGlyph>
    <TTGlyph name="o" xMin="26" yMin="-10" xMax="600" yMax="539">
      <contour>
        <pt x="26" y="264" on="1"/>
        <pt x="26" y="321" on="0"/>
        <pt x="71" y="422" on="0"/>
        <pt x="148" y="496" on="0"/>
        <pt x="253" y="539" on="0"/>
        <pt x="313" y="539" on="1"/>
        <pt x="373" y="539" on="0"/>
        <pt x="478" y="496" on="0"/>
        <pt x="555" y="422" on="0"/>
        <pt x="600" y="321" on="0"/>
        <pt x="600" y="264" on="1"/>
        <pt x="600" y="207" on="0"/>
        <pt x="555" y="106" on="0"/>
        <pt x="478" y="32" on="0"/>
        <pt x="373" y="-10" on="0"/>
        <pt x="313" y="-10" on="1"/>
        <pt x="253" y="-10" on="0"/>
        <pt x="148" y="32" on="0"/>
        <pt x="71" y="106" on="0"/>
        <pt x="26" y="207" on="0"/>
      </contour>
      <contour>
        <pt x="313" y="130" on="1"/>
        <pt x="367" y="130" on="0"/>
        <pt x="442" y="208" on="0"/>
        <pt x="442" y="264" on="1"/>
        <pt x="442" y="321" on="0"/>
        <pt x="367" y="399" on="0"/>
        <pt x="313" y="399" on="1"/>
        <pt x="259" y="399" on="0"/>
        <pt x="184" y="321" on="0"/>
        <pt x="184" y="264" on="1"/>
        <pt x="184" y="208" on="0"/>
        <pt x="259" y="130" on="0"/>
      </contour>
    </TTGlyph>
    <TTGlyph name="oacute" xMin="26" yMin="-10" xMax="600" yMax="747">
      <component glyphName="o" x="0" y="0" flags="0x204"/>
      <component glyphName="acute" x="88" y="0" flags="0x4"/>
    </TTGlyph>
    <TTGlyph name="obreve" xMin="26" yMin="-10" xMax="600" yMax="768">
      <component glyphName="o" x="0" y="0" flags="0x204"/>
      <component glyphName="breve" x="55" y="0" flags="0x4"/>
    </TTGlyph>
    <TTGlyph name="ocircumflex" xMin="26" yMin="-10" xMax="600" yMax="750">
      <component glyphName="o" x="0" y="0" flags="0x204"/>
      <component glyphName="circumflex" x="55" y="0" flags="0x4"/>
    </TTGlyph>
    <TTGlyph name="odieresis" xMin="26" yMin="-10" xMax="600" yMax="766">
      <component glyphName="o" x="0" y="0" flags="0x204"/>
      <component glyphName="dieresis" x="9" y="0" flags="0x4"/>
    </TTGlyph>
    <TTGlyph name="oe" xMin="26" yMin="-10" xMax="987" yMax="539">
      <contour>
        <pt x="26" y="264" on="1"/>
        <pt x="26" y="321" on="0"/>
        <pt x="71" y="422" on="0"/>
        <pt x="148" y="496" on="0"/>
        <pt x="253" y="539" on="0"/>
        <pt x="313" y="539" on="1"/>
        <pt x="374" y="539" on="0"/>
        <pt x="481" y="491" on="0"/>
        <pt x="518" y="450" on="1"/>
        <pt x="555" y="491" on="0"/>
        <pt x="659" y="538" on="0"/>
        <pt x="720" y="538" on="1"/>
        <pt x="778" y="538" on="0"/>
        <pt x="876" y="494" on="0"/>
        <pt x="947" y="418" on="0"/>
        <pt x="987" y="311" on="0"/>
        <pt x="987" y="249" on="1"/>
        <pt x="987" y="209" on="1"/>
        <pt x="610" y="209" on="1"/>
        <pt x="626" y="172" on="0"/>
        <pt x="694" y="125" on="0"/>
        <pt x="740" y="125" on="1"/>
        <pt x="773" y="125" on="0"/>
        <pt x="827" y="146" on="0"/>
        <pt x="846" y="165" on="1"/>
        <pt x="953" y="70" on="1"/>
        <pt x="903" y="28" on="0"/>
        <pt x="798" y="-10" on="0"/>
        <pt x="732" y="-10" on="1"/>
        <pt x="668" y="-10" on="0"/>
        <pt x="558" y="38" on="0"/>
        <pt x="520" y="80" on="1"/>
        <pt x="482" y="38" on="0"/>
        <pt x="375" y="-10" on="0"/>
        <pt x="313" y="-10" on="1"/>
        <pt x="253" y="-10" on="0"/>
        <pt x="148" y="32" on="0"/>
        <pt x="71" y="106" on="0"/>
        <pt x="26" y="207" on="0"/>
      </contour>
      <contour>
        <pt x="717" y="406" on="1"/>
        <pt x="677" y="406" on="0"/>
        <pt x="619" y="362" on="0"/>
        <pt x="607" y="322" on="1"/>
        <pt x="828" y="322" on="1"/>
        <pt x="815" y="360" on="0"/>
        <pt x="756" y="406" on="0"/>
      </contour>
      <contour>
        <pt x="313" y="130" on="1"/>
        <pt x="367" y="130" on="0"/>
        <pt x="442" y="208" on="0"/>
        <pt x="442" y="264" on="1"/>
        <pt x="442" y="321" on="0"/>
        <pt x="367" y="399" on="0"/>
        <pt x="313" y="399" on="1"/>
        <pt x="259" y="399" on="0"/>
        <pt x="184" y="321" on="0"/>
        <pt x="184" y="264" on="1"/>
        <pt x="184" y="208" on="0"/>
        <pt x="259" y="130" on="0"/>
      </contour>
    </TTGlyph>
    <TTGlyph name="ogonek" xMin="156" yMin="-221" xMax="351" yMax="22">
      <contour>
        <pt x="331" y="0" on="1"/>
        <pt x="288" y="-25" on="0"/>
        <pt x="247" y="-73" on="0"/>
        <pt x="247" y="-98" on="1"/>
        <pt x="247" y="-117" on="0"/>
        <pt x="272" y="-139" on="0"/>
        <pt x="294" y="-139" on="1"/>
        <pt x="303" y="-139" on="0"/>
        <pt x="323" y="-133" on="0"/>
        <pt x="330" y="-128" on="1"/>
        <pt x="351" y="-198" on="1"/>
        <pt x="334" y="-208" on="0"/>
        <pt x="288" y="-221" on="0"/>
        <pt x="264" y="-221" on="1"/>
        <pt x="215" y="-221" on="0"/>
        <pt x="156" y="-169" on="0"/>
        <pt x="156" y="-127" on="1"/>
        <pt x="156" y="-84" on="0"/>
        <pt x="217" y="-12" on="0"/>
        <pt x="282" y="22" on="1"/>
      </contour>
    </TTGlyph>
    <TTGlyph name="ograve" xMin="26" yMin="-10" xMax="600" yMax="747">
      <component glyphName="o" x="0" y="0" flags="0x204"/>
      <component glyphName="grave" x="13" y="0" flags="0x4"/>
    </TTGlyph>
    <TTGlyph name="ohungarumlaut" xMin="26" yMin="-10" xMax="615" yMax="746">
      <component glyphName="o" x="0" y="0" flags="0x204"/>
      <component glyphName="hungarumlaut" x="63" y="0" flags="0x4"/>
    </TTGlyph>
    <TTGlyph name="omacron" xMin="26" yMin="-10" xMax="600" yMax="728">
      <component glyphName="o" x="0" y="0" flags="0x204"/>
      <component glyphName="macron" x="55" y="0" flags="0x4"/>
    </TTGlyph>
    <TTGlyph name="one" xMin="18" yMin="0" xMax="325" yMax="700">
      <contour>
        <pt x="325" y="700" on="1"/>
        <pt x="325" y="0" on="1"/>
        <pt x="163" y="0" on="1"/>
        <pt x="163" y="536" on="1"/>
        <pt x="18" y="478" on="1"/>
        <pt x="18" y="618" on="1"/>
        <pt x="223" y="700" on="1"/>
      </contour>
    </TTGlyph>
    <TTGlyph name="onehalf" xMin="15" yMin="0" xMax="697" yMax="700">
      <component glyphName="onesuperior" x="0" y="0" flags="0x4"/>
      <component glyphName="fraction" x="46" y="0" flags="0x4"/>
      <component glyphName="uni2082" x="402" y="0" flags="0x4"/>
    </TTGlyph>
    <TTGlyph name="onequarter" xMin="15" yMin="0" xMax="682" yMax="700">
      <component glyphName="uni2084" x="323" y="0" flags="0x4"/>
      <component glyphName="onesuperior" x="0" y="0" flags="0x4"/>
      <component glyphName="fraction" x="46" y="0" flags="0x4"/>
    </TTGlyph>
    <TTGlyph name="onesuperior" xMin="15" yMin="350" xMax="190" yMax="700">
      <component glyphName="uni2081" x="0" y="350" flags="0x4"/>
    </TTGlyph>
    <TTGlyph name="ordfeminine" xMin="27" yMin="295" xMax="405" yMax="708">
      <contour>
        <pt x="172" y="295" on="1"/>
        <pt x="108" y="295" on="0"/>
        <pt x="27" y="365" on="0"/>
        <pt x="27" y="419" on="1"/>
        <pt x="27" y="475" on="0"/>
        <pt x="114" y="538" on="0"/>
        <pt x="192" y="538" on="1"/>
        <pt x="214" y="538" on="0"/>
        <pt x="258" y="532" on="0"/>
        <pt x="280" y="528" on="1"/>
        <pt x="280" y="545" on="1"/>
        <pt x="280" y="573" on="0"/>
        <pt x="243" y="602" on="0"/>
        <pt x="206" y="602" on="1"/>
        <pt x="184" y="602" on="0"/>
        <pt x="126" y="587" on="0"/>
        <pt x="86" y="571" on="1"/>
        <pt x="41" y="664" on="1"/>
        <pt x="90" y="686" on="0"/>
        <pt x="183" y="708" on="0"/>
        <pt x="229" y="708" on="1"/>
        <pt x="313" y="708" on="0"/>
        <pt x="405" y="628" on="0"/>
        <pt x="405" y="556" on="1"/>
        <pt x="405" y="302" on="1"/>
        <pt x="280" y="302" on="1"/>
        <pt x="280" y="325" on="1"/>
        <pt x="256" y="309" on="0"/>
        <pt x="203" y="295" on="0"/>
      </contour>
      <contour>
        <pt x="148" y="421" on="1"/>
        <pt x="148" y="404" on="0"/>
        <pt x="179" y="384" on="0"/>
        <pt x="207" y="384" on="1"/>
        <pt x="228" y="384" on="0"/>
        <pt x="265" y="393" on="0"/>
        <pt x="280" y="401" on="1"/>
        <pt x="280" y="449" on="1"/>
        <pt x="263" y="453" on="0"/>
        <pt x="228" y="457" on="0"/>
        <pt x="211" y="457" on="1"/>
        <pt x="180" y="457" on="0"/>
        <pt x="148" y="438" on="0"/>
      </contour>
    </TTGlyph>
    <TTGlyph name="ordmasculine" xMin="26" yMin="294" xMax="460" yMax="708">
      <contour>
        <pt x="26" y="500" on="1"/>
        <pt x="26" y="544" on="0"/>
        <pt x="60" y="620" on="0"/>
        <pt x="118" y="676" on="0"/>
        <pt x="198" y="708" on="0"/>
        <pt x="243" y="708" on="1"/>
        <pt x="289" y="708" on="0"/>
        <pt x="368" y="676" on="0"/>
        <pt x="426" y="620" on="0"/>
        <pt x="460" y="544" on="0"/>
        <pt x="460" y="500" on="1"/>
        <pt x="460" y="457" on="0"/>
        <pt x="426" y="382" on="0"/>
        <pt x="368" y="326" on="0"/>
        <pt x="289" y="294" on="0"/>
        <pt x="243" y="294" on="1"/>
        <pt x="197" y="294" on="0"/>
        <pt x="118" y="326" on="0"/>
        <pt x="60" y="382" on="0"/>
        <pt x="26" y="457" on="0"/>
      </contour>
      <contour>
        <pt x="337" y="500" on="1"/>
        <pt x="337" y="541" on="0"/>
        <pt x="283" y="598" on="0"/>
        <pt x="243" y="598" on="1"/>
        <pt x="204" y="598" on="0"/>
        <pt x="150" y="541" on="0"/>
        <pt x="150" y="500" on="1"/>
        <pt x="150" y="460" on="0"/>
        <pt x="204" y="404" on="0"/>
        <pt x="243" y="404" on="1"/>
        <pt x="283" y="404" on="0"/>
        <pt x="337" y="460" on="0"/>
      </contour>
    </TTGlyph>
    <TTGlyph name="oslash" xMin="26" yMin="-10" xMax="600" yMax="539">
      <contour>
        <pt x="43" y="0" on="1"/>
        <pt x="104" y="74" on="1"/>
        <pt x="67" y="111" on="0"/>
        <pt x="26" y="209" on="0"/>
        <pt x="26" y="264" on="1"/>
        <pt x="26" y="321" on="0"/>
        <pt x="71" y="422" on="0"/>
        <pt x="148" y="496" on="0"/>
        <pt x="253" y="539" on="0"/>
        <pt x="313" y="539" on="1"/>
        <pt x="353" y="539" on="0"/>
        <pt x="426" y="520" on="0"/>
        <pt x="457" y="503" on="1"/>
        <pt x="478" y="529" on="1"/>
        <pt x="583" y="529" on="1"/>
        <pt x="522" y="455" on="1"/>
        <pt x="558" y="418" on="0"/>
        <pt x="600" y="320" on="0"/>
        <pt x="600" y="264" on="1"/>
        <pt x="600" y="207" on="0"/>
        <pt x="555" y="106" on="0"/>
        <pt x="478" y="32" on="0"/>
        <pt x="373" y="-10" on="0"/>
        <pt x="313" y="-10" on="1"/>
        <pt x="273" y="-10" on="0"/>
        <pt x="200" y="9" on="0"/>
        <pt x="168" y="26" on="1"/>
        <pt x="147" y="0" on="1"/>
      </contour>
      <contour>
        <pt x="184" y="264" on="1"/>
        <pt x="184" y="245" on="0"/>
        <pt x="194" y="209" on="0"/>
        <pt x="202" y="194" on="1"/>
        <pt x="363" y="389" on="1"/>
        <pt x="352" y="393" on="0"/>
        <pt x="326" y="399" on="0"/>
        <pt x="313" y="399" on="1"/>
        <pt x="259" y="399" on="0"/>
        <pt x="184" y="321" on="0"/>
      </contour>
      <contour>
        <pt x="313" y="130" on="1"/>
        <pt x="367" y="130" on="0"/>
        <pt x="442" y="208" on="0"/>
        <pt x="442" y="264" on="1"/>
        <pt x="442" y="283" on="0"/>
        <pt x="432" y="320" on="0"/>
        <pt x="423" y="335" on="1"/>
        <pt x="263" y="140" on="1"/>
        <pt x="274" y="136" on="0"/>
        <pt x="300" y="130" on="0"/>
      </contour>
    </TTGlyph>
    <TTGlyph name="otilde" xMin="26" yMin="-10" xMax="600" yMax="753">
      <component glyphName="o" x="0" y="0" flags="0x204"/>
      <component glyphName="tilde" x="55" y="0" flags="0x4"/>
    </TTGlyph>
    <TTGlyph name="p" xMin="50" yMin="-211" xMax="622" yMax="536">
      <contour>
        <pt x="50" y="-211" on="1"/>
        <pt x="50" y="529" on="1"/>
        <pt x="210" y="529" on="1"/>
        <pt x="210" y="490" on="1"/>
        <pt x="241" y="512" on="0"/>
        <pt x="313" y="536" on="0"/>
        <pt x="352" y="536" on="1"/>
        <pt x="408" y="536" on="0"/>
        <pt x="507" y="494" on="0"/>
        <pt x="580" y="420" on="0"/>
        <pt x="622" y="321" on="0"/>
        <pt x="622" y="264" on="1"/>
        <pt x="622" y="207" on="0"/>
        <pt x="579" y="108" on="0"/>
        <pt x="505" y="35" on="0"/>
        <pt x="404" y="-7" on="0"/>
        <pt x="347" y="-7" on="1"/>
        <pt x="310" y="-7" on="0"/>
        <pt x="242" y="11" on="0"/>
        <pt x="212" y="28" on="1"/>
        <pt x="212" y="-211" on="1"/>
      </contour>
      <contour>
        <pt x="324" y="398" on="1"/>
        <pt x="290" y="398" on="0"/>
        <pt x="234" y="377" on="0"/>
        <pt x="212" y="356" on="1"/>
        <pt x="212" y="171" on="1"/>
        <pt x="233" y="152" on="0"/>
        <pt x="291" y="130" on="0"/>
        <pt x="324" y="130" on="1"/>
        <pt x="383" y="130" on="0"/>
        <pt x="463" y="207" on="0"/>
        <pt x="463" y="264" on="1"/>
        <pt x="463" y="321" on="0"/>
        <pt x="382" y="398" on="0"/>
      </contour>
    </TTGlyph>
    <TTGlyph name="paragraph" xMin="23" yMin="0" xMax="660" yMax="700">
      <contour>
        <pt x="312" y="0" on="1"/>
        <pt x="312" y="238" on="1"/>
        <pt x="283" y="238" on="1"/>
        <pt x="226" y="238" on="0"/>
        <pt x="130" y="271" on="0"/>
        <pt x="61" y="331" on="0"/>
        <pt x="23" y="414" on="0"/>
        <pt x="23" y="464" on="1"/>
        <pt x="23" y="571" on="0"/>
        <pt x="166" y="700" on="0"/>
        <pt x="283" y="700" on="1"/>
        <pt x="660" y="700" on="1"/>
        <pt x="660" y="0" on="1"/>
        <pt x="529" y="0" on="1"/>
        <pt x="529" y="238" on="1"/>
        <pt x="442" y="238" on="1"/>
        <pt x="442" y="0" on="1"/>
      </contour>
      <contour>
        <pt x="529" y="365" on="1"/>
        <pt x="529" y="570" on="1"/>
        <pt x="442" y="570" on="1"/>
        <pt x="442" y="365" on="1"/>
      </contour>
      <contour>
        <pt x="276" y="365" on="1"/>
        <pt x="312" y="365" on="1"/>
        <pt x="312" y="570" on="1"/>
        <pt x="276" y="570" on="1"/>
        <pt x="226" y="570" on="0"/>
        <pt x="165" y="514" on="0"/>
        <pt x="165" y="468" on="1"/>
        <pt x="165" y="422" on="0"/>
        <pt x="226" y="365" on="0"/>
      </contour>
    </TTGlyph>
    <TTGlyph name="parenleft" xMin="48" yMin="-221" xMax="402" yMax="715">
      <contour>
        <pt x="48" y="247" on="1"/>
        <pt x="48" y="399" on="0"/>
        <pt x="185" y="642" on="0"/>
        <pt x="312" y="715" on="1"/>
        <pt x="402" y="616" on="1"/>
        <pt x="302" y="553" on="0"/>
        <pt x="198" y="365" on="0"/>
        <pt x="198" y="247" on="1"/>
        <pt x="198" y="129" on="0"/>
        <pt x="302" y="-59" on="0"/>
        <pt x="402" y="-122" on="1"/>
        <pt x="312" y="-221" on="1"/>
        <pt x="185" y="-148" on="0"/>
        <pt x="48" y="95" on="0"/>
      </contour>
    </TTGlyph>
    <TTGlyph name="parenright" xMin="19" yMin="-223" xMax="373" yMax="713">
      <contour>
        <pt x="373" y="245" on="1"/>
        <pt x="373" y="93" on="0"/>
        <pt x="236" y="-150" on="0"/>
        <pt x="109" y="-223" on="1"/>
        <pt x="19" y="-124" on="1"/>
        <pt x="119" y="-61" on="0"/>
        <pt x="223" y="127" on="0"/>
        <pt x="223" y="245" on="1"/>
        <pt x="223" y="363" on="0"/>
        <pt x="119" y="551" on="0"/>
        <pt x="19" y="614" on="1"/>
        <pt x="109" y="713" on="1"/>
        <pt x="236" y="640" on="0"/>
        <pt x="373" y="397" on="0"/>
      </contour>
    </TTGlyph>
    <TTGlyph name="percent" xMin="20" yMin="-5" xMax="794" yMax="706">
      <component glyphName="uni2070" x="0" y="0" flags="0x4"/>
      <component glyphName="fraction" x="130" y="0" flags="0x4"/>
      <component glyphName="uni2080" x="446" y="0" flags="0x4"/>
    </TTGlyph>
    <TTGlyph name="period" xMin="36" yMin="-11" xMax="222" yMax="175">
      <contour>
        <pt x="129" y="175" on="1"/>
        <pt x="167" y="175" on="0"/>
        <pt x="222" y="120" on="0"/>
        <pt x="222" y="82" on="1"/>
        <pt x="222" y="44" on="0"/>
        <pt x="167" y="-11" on="0"/>
        <pt x="129" y="-11" on="1"/>
        <pt x="91" y="-11" on="0"/>
        <pt x="36" y="44" on="0"/>
        <pt x="36" y="82" on="1"/>
        <pt x="36" y="120" on="0"/>
        <pt x="91" y="175" on="0"/>
      </contour>
    </TTGlyph>
    <TTGlyph name="periodcentered" xMin="36" yMin="194" xMax="222" yMax="380">
      <component glyphName="period" x="0" y="205" flags="0x4"/>
    </TTGlyph>
    <TTGlyph name="periodcentered.cap" xMin="36" yMin="259" xMax="222" yMax="445">
      <component glyphName="periodcentered" x="0" y="65" flags="0x4"/>
    </TTGlyph>
    <TTGlyph name="perthousand" xMin="20" yMin="-5" xMax="1153" yMax="706">
      <component glyphName="uni2070" x="0" y="0" flags="0x4"/>
      <component glyphName="fraction" x="130" y="0" flags="0x4"/>
      <component glyphName="uni2080" x="446" y="0" flags="0x4"/>
      <component glyphName="uni2080" x="805" y="0" flags="0x4"/>
    </TTGlyph>
    <TTGlyph name="plus" xMin="43" yMin="123" xMax="517" yMax="591">
      <contour>
        <pt x="343" y="123" on="1"/>
        <pt x="218" y="123" on="1"/>
        <pt x="218" y="297" on="1"/>
        <pt x="43" y="297" on="1"/>
        <pt x="43" y="421" on="1"/>
        <pt x="218" y="421" on="1"/>
        <pt x="218" y="591" on="1"/>
        <pt x="343" y="591" on="1"/>
        <pt x="343" y="421" on="1"/>
        <pt x="517" y="421" on="1"/>
        <pt x="517" y="297" on="1"/>
        <pt x="343" y="297" on="1"/>
      </contour>
    </TTGlyph>
    <TTGlyph name="plusminus" xMin="43" yMin="-1" xMax="517" yMax="629">
      <contour>
        <pt x="343" y="209" on="1"/>
        <pt x="218" y="209" on="1"/>
        <pt x="218" y="359" on="1"/>
        <pt x="43" y="359" on="1"/>
        <pt x="43" y="482" on="1"/>
        <pt x="218" y="482" on="1"/>
        <pt x="218" y="629" on="1"/>
        <pt x="343" y="629" on="1"/>
        <pt x="343" y="482" on="1"/>
        <pt x="517" y="482" on="1"/>
        <pt x="517" y="359" on="1"/>
        <pt x="343" y="359" on="1"/>
      </contour>
      <contour>
        <pt x="517" y="123" on="1"/>
        <pt x="517" y="-1" on="1"/>
        <pt x="43" y="-1" on="1"/>
        <pt x="43" y="123" on="1"/>
      </contour>
    </TTGlyph>
    <TTGlyph name="q" xMin="26" yMin="-211" xMax="598" yMax="536">
      <contour>
        <pt x="296" y="-7" on="1"/>
        <pt x="240" y="-7" on="0"/>
        <pt x="141" y="35" on="0"/>
        <pt x="68" y="109" on="0"/>
        <pt x="26" y="208" on="0"/>
        <pt x="26" y="265" on="1"/>
        <pt x="26" y="322" on="0"/>
        <pt x="69" y="421" on="0"/>
        <pt x="143" y="494" on="0"/>
        <pt x="244" y="536" on="0"/>
        <pt x="301" y="536" on="1"/>
        <pt x="338" y="536" on="0"/>
        <pt x="408" y="517" on="0"/>
        <pt x="438" y="499" on="1"/>
        <pt x="438" y="529" on="1"/>
        <pt x="598" y="529" on="1"/>
        <pt x="598" y="-211" on="1"/>
        <pt x="436" y="-211" on="1"/>
        <pt x="436" y="37" on="1"/>
        <pt x="405" y="15" on="0"/>
        <pt x="334" y="-7" on="0"/>
      </contour>
      <contour>
        <pt x="185" y="265" on="1"/>
        <pt x="185" y="208" on="0"/>
        <pt x="266" y="131" on="0"/>
        <pt x="324" y="131" on="1"/>
        <pt x="358" y="131" on="0"/>
        <pt x="414" y="152" on="0"/>
        <pt x="436" y="173" on="1"/>
        <pt x="436" y="358" on="1"/>
        <pt x="415" y="377" on="0"/>
        <pt x="357" y="399" on="0"/>
        <pt x="324" y="399" on="1"/>
        <pt x="265" y="399" on="0"/>
        <pt x="185" y="322" on="0"/>
      </contour>
    </TTGlyph>
    <TTGlyph name="question" xMin="3" yMin="-11" xMax="513" yMax="711">
      <contour>
        <pt x="387" y="336" on="1"/>
        <pt x="362" y="319" on="1"/>
        <pt x="333" y="300" on="0"/>
        <pt x="310" y="255" on="0"/>
        <pt x="311" y="218" on="1"/>
        <pt x="176" y="218" on="1"/>
        <pt x="172" y="287" on="0"/>
        <pt x="204" y="365" on="0"/>
        <pt x="251" y="400" on="1"/>
        <pt x="305" y="440" on="1"/>
        <pt x="330" y="459" on="0"/>
        <pt x="355" y="493" on="0"/>
        <pt x="355" y="509" on="1"/>
        <pt x="355" y="538" on="0"/>
        <pt x="303" y="577" on="0"/>
        <pt x="263" y="577" on="1"/>
        <pt x="220" y="577" on="0"/>
        <pt x="149" y="531" on="0"/>
        <pt x="134" y="493" on="1"/>
        <pt x="3" y="542" on="1"/>
        <pt x="31" y="619" on="0"/>
        <pt x="176" y="711" on="0"/>
        <pt x="269" y="711" on="1"/>
        <pt x="321" y="711" on="0"/>
        <pt x="411" y="682" on="0"/>
        <pt x="476" y="630" on="0"/>
        <pt x="513" y="560" on="0"/>
        <pt x="513" y="519" on="1"/>
        <pt x="513" y="464" on="0"/>
        <pt x="458" y="385" on="0"/>
      </contour>
      <contour>
        <pt x="244" y="175" on="1"/>
        <pt x="282" y="175" on="0"/>
        <pt x="337" y="120" on="0"/>
        <pt x="337" y="82" on="1"/>
        <pt x="337" y="44" on="0"/>
        <pt x="282" y="-11" on="0"/>
        <pt x="244" y="-11" on="1"/>
        <pt x="206" y="-11" on="0"/>
        <pt x="151" y="44" on="0"/>
        <pt x="151" y="82" on="1"/>
        <pt x="151" y="120" on="0"/>
        <pt x="206" y="175" on="0"/>
      </contour>
    </TTGlyph>
    <TTGlyph name="questiondown" xMin="8" yMin="-11" xMax="518" yMax="711">
      <contour>
        <pt x="134" y="364" on="1"/>
        <pt x="159" y="381" on="1"/>
        <pt x="188" y="400" on="0"/>
        <pt x="211" y="445" on="0"/>
        <pt x="210" y="482" on="1"/>
        <pt x="345" y="482" on="1"/>
        <pt x="349" y="413" on="0"/>
        <pt x="317" y="335" on="0"/>
        <pt x="270" y="300" on="1"/>
        <pt x="216" y="260" on="1"/>
        <pt x="191" y="241" on="0"/>
        <pt x="166" y="207" on="0"/>
        <pt x="166" y="191" on="1"/>
        <pt x="166" y="162" on="0"/>
        <pt x="218" y="123" on="0"/>
        <pt x="258" y="123" on="1"/>
        <pt x="301" y="123" on="0"/>
        <pt x="372" y="169" on="0"/>
        <pt x="387" y="207" on="1"/>
        <pt x="518" y="158" on="1"/>
        <pt x="490" y="81" on="0"/>
        <pt x="345" y="-11" on="0"/>
        <pt x="252" y="-11" on="1"/>
        <pt x="200" y="-11" on="0"/>
        <pt x="110" y="18" on="0"/>
        <pt x="45" y="70" on="0"/>
        <pt x="8" y="140" on="0"/>
        <pt x="8" y="181" on="1"/>
        <pt x="8" y="236" on="0"/>
        <pt x="63" y="315" on="0"/>
      </contour>
      <contour>
        <pt x="277" y="525" on="1"/>
        <pt x="239" y="525" on="0"/>
        <pt x="184" y="580" on="0"/>
        <pt x="184" y="618" on="1"/>
        <pt x="184" y="656" on="0"/>
        <pt x="239" y="711" on="0"/>
        <pt x="277" y="711" on="1"/>
        <pt x="315" y="711" on="0"/>
        <pt x="370" y="656" on="0"/>
        <pt x="370" y="618" on="1"/>
        <pt x="370" y="580" on="0"/>
        <pt x="315" y="525" on="0"/>
      </contour>
    </TTGlyph>
    <TTGlyph name="quotedbl" xMin="60" yMin="396" xMax="423" yMax="706">
      <component glyphName="quotesingle" x="0" y="0" flags="0x4"/>
      <component glyphName="quotesingle" x="207" y="0" flags="0x4"/>
    </TTGlyph>
    <TTGlyph name="quotedblbase" xMin="-10" yMin="-157" xMax="444" yMax="127">
      <component glyphName="comma" x="214" y="0" flags="0x4"/>
      <component glyphName="comma" x="0" y="0" flags="0x4"/>
    </TTGlyph>
    <TTGlyph name="quotedblleft" xMin="9" yMin="466" xMax="463" yMax="750">
      <contour>
        <pt x="176" y="466" on="1"/>
        <pt x="9" y="466" on="1"/>
        <pt x="128" y="750" on="1"/>
        <pt x="249" y="750" on="1"/>
      </contour>
      <contour>
        <pt x="390" y="466" on="1"/>
        <pt x="223" y="466" on="1"/>
        <pt x="342" y="750" on="1"/>
        <pt x="463" y="750" on="1"/>
      </contour>
    </TTGlyph>
    <TTGlyph name="quotedblright" xMin="20" yMin="466" xMax="474" yMax="750">
      <component glyphName="comma" x="244" y="623" flags="0x4"/>
      <component glyphName="comma" x="30" y="623" flags="0x4"/>
    </TTGlyph>
    <TTGlyph name="quoteleft" xMin="9" yMin="466" xMax="249" yMax="750">
      <contour>
        <pt x="176" y="466" on="1"/>
        <pt x="9" y="466" on="1"/>
        <pt x="128" y="750" on="1"/>
        <pt x="249" y="750" on="1"/>
      </contour>
    </TTGlyph>
    <TTGlyph name="quoteright" xMin="20" yMin="466" xMax="260" yMax="750">
      <component glyphName="comma" x="30" y="623" flags="0x4"/>
    </TTGlyph>
    <TTGlyph name="quotesinglbase" xMin="-10" yMin="-157" xMax="230" yMax="127">
      <component glyphName="comma" x="0" y="0" flags="0x204"/>
    </TTGlyph>
    <TTGlyph name="quotesingle" xMin="60" yMin="396" xMax="216" yMax="706">
      <contour>
        <pt x="79" y="396" on="1"/>
        <pt x="60" y="706" on="1"/>
        <pt x="216" y="706" on="1"/>
        <pt x="197" y="396" on="1"/>
      </contour>
    </TTGlyph>
    <TTGlyph name="r" xMin="50" yMin="0" xMax="412" yMax="541">
      <contour>
        <pt x="50" y="0" on="1"/>
        <pt x="50" y="529" on="1"/>
        <pt x="212" y="529" on="1"/>
        <pt x="212" y="476" on="1"/>
        <pt x="238" y="507" on="0"/>
        <pt x="308" y="541" on="0"/>
        <pt x="351" y="541" on="1"/>
        <pt x="374" y="540" on="0"/>
        <pt x="402" y="535" on="0"/>
        <pt x="412" y="528" on="1"/>
        <pt x="412" y="387" on="1"/>
        <pt x="396" y="394" on="0"/>
        <pt x="356" y="403" on="0"/>
        <pt x="335" y="403" on="1"/>
        <pt x="297" y="403" on="0"/>
        <pt x="232" y="367" on="0"/>
        <pt x="212" y="336" on="1"/>
        <pt x="212" y="0" on="1"/>
      </contour>
    </TTGlyph>
</ttFont>
